<svg width="441" height="419" viewBox="0 0 441 419" fill="none" xmlns="http://www.w3.org/2000/svg">
<path opacity="0.1" d="M247.047 65.5341C222.875 64.6662 199.854 56.5888 177.883 47.7586C155.912 38.9283 134.113 29.1309 110.521 24.4256C95.3456 21.4142 77.994 20.9855 65.7666 29.408C54.0036 37.5168 50.197 51.5124 48.1575 64.4989C46.6429 74.2702 45.714 84.5539 49.9295 93.6978C52.8526 100.05 58.0474 105.388 61.6369 111.473C74.1369 132.637 65.3021 158.735 51.757 179.402C45.406 189.095 38.0352 198.343 33.1332 208.679C28.2311 219.015 25.9593 230.82 30.2505 241.349C34.5013 251.806 44.6336 259.616 55.609 265.132C77.9031 276.325 104.17 279.53 129.786 281.339C186.491 285.354 243.493 283.619 300.349 281.862C321.386 281.214 342.519 280.56 363.218 277.193C374.713 275.322 386.582 272.352 394.928 265.169C405.529 256.067 408.145 240.659 401.046 229.246C389.137 210.106 356.221 205.349 347.896 184.808C343.317 173.499 348.022 160.905 354.676 150.423C368.958 127.942 392.893 108.19 394.155 82.4574C395.023 64.8022 383.513 47.1155 365.722 38.7558C347.073 29.9988 321.21 31.1019 307.453 45.5994C293.286 60.5622 268.387 66.3026 247.047 65.5341Z" fill="#0463A7"/>
<path opacity="0.1" d="M199.036 419C283.789 419 352.495 409.375 352.495 397.502C352.495 385.629 283.789 376.004 199.036 376.004C114.283 376.004 45.5777 385.629 45.5777 397.502C45.5777 409.375 114.283 419 199.036 419Z" fill="#0463A7"/>
<path d="M236.91 109.581C236.91 109.581 232.159 99.8722 232.801 96.9863C233.442 94.1004 229.458 87.9365 229.458 87.9365L229.716 77.7103C229.716 77.7103 229.166 78.7559 226.298 79.6709C226.056 79.3415 225.793 79.0173 225.521 78.7089C224.482 77.589 223.328 76.5914 222.078 75.7341L217.029 64.4519L212.147 56.7091C212.147 56.7091 204.448 40.502 196.497 36.926L195.245 34.3904C195.286 34.3652 195.317 34.3249 195.331 34.2775C195.345 34.2301 195.341 34.179 195.321 34.1342L194.048 31.5567C194.026 31.5122 193.988 31.4779 193.942 31.4605C193.897 31.4431 193.846 31.4439 193.801 31.4626L192.584 28.995C192.12 25.7971 190.906 22.7655 189.05 20.1647C188.924 19.9818 188.788 19.8145 188.657 19.6419L190.636 19.5687C192.372 19.5008 194.311 19.3439 195.477 18.0003C195.895 17.4995 196.203 16.9109 196.381 16.275C196.531 15.7767 196.629 15.2632 196.674 14.7432C196.674 14.6648 196.674 14.5864 196.674 14.5132C196.674 14.3354 196.674 14.1612 196.674 13.9904C196.674 13.8492 196.674 13.7133 196.674 13.5721C196.674 13.431 196.674 13.3473 196.674 13.2375C196.674 13.1277 196.618 12.8768 196.588 12.7147C196.588 12.6467 196.588 12.5788 196.547 12.5108C196.505 12.306 196.453 12.1036 196.391 11.9044C196.376 11.8653 196.364 11.8251 196.356 11.7841C196.285 11.575 196.209 11.3659 196.123 11.162C196.109 11.1351 196.098 11.1071 196.088 11.0783C195.997 10.8744 195.896 10.6758 195.79 10.4823L195.76 10.4196C195.723 10.3384 195.681 10.2599 195.634 10.1843C194.266 7.95716 191.862 6.65536 189.575 5.47904C187.441 4.3171 185.251 3.27009 183.012 2.34219C174.69 -0.890037 165.497 -0.755632 157.265 2.71861C156.452 3.0374 155.682 3.46259 154.973 3.98381C153.985 4.84983 153.141 5.87771 152.474 7.02656L148.562 13.0127C148.015 13.7409 147.587 14.5568 147.294 15.4281C146.562 18.2722 148.859 21.1215 148.602 24.0544C148.471 25.5131 147.713 26.8515 147.567 28.3101C147.38 30.1922 148.223 32.0064 149.046 33.7055L154.645 45.2073C154.347 46.7182 154.019 48.2657 153.661 49.761C151.081 52.5214 150.212 54.0271 149.975 54.8427L149.899 54.8845C149.389 55.2262 148.949 55.6706 148.607 56.1915L143.286 61.5451C143.286 61.5451 134.037 64.0336 132.114 67.1862C132.114 67.1862 117.599 66.5274 117.726 87.5182C117.726 87.5182 117.084 95.3917 116.716 96.4426C116.347 97.4934 116.716 108.117 116.716 108.117L116.544 129.636C116.544 129.636 115.989 141.049 116.544 145.116C117.1 149.184 117.741 164.664 117.741 164.664C117.741 164.664 121.209 179.752 119.927 185.132C118.695 190.282 119.927 201.543 121.946 201.59C122.33 202.411 122.769 202.813 123.249 202.583C123.457 202.49 123.671 202.409 123.89 202.343V215.199C123.89 215.199 121.391 233.209 124.193 236.634C122.335 239.373 120.154 244.047 119.599 245.276L99.9599 244.183L97.4609 244.91L95.1689 245.574L93.7806 278.652L94.3359 278.694L94.2955 279.703L95.6081 279.802L93.7806 313.115L120.967 315.432C119.77 318.208 118.382 321.182 117.842 321.47C116.832 321.993 114.631 320.424 114.116 321.073C113.601 321.721 112.061 322.516 110.264 322.118C108.467 321.721 107.31 323.823 107.31 323.823C107.31 323.823 107.573 324.063 107.967 324.507C105.049 324.142 101.358 325.762 99.3541 326.808C98.4555 327.278 97.8951 327.629 97.8951 327.629H92.5942L95.5072 346.873L97.5619 348.327L98.0667 363.488C98.0667 363.488 106.286 389.728 110.052 389.555C110.296 389.546 110.536 389.483 110.755 389.369C110.974 389.256 111.166 389.094 111.319 388.897C113.338 386.481 111.94 378.184 111.94 378.184V364.372C111.94 364.372 115.02 362.971 114.676 361.92C114.333 360.869 119.644 349.372 120.119 348.327C120.132 348.318 120.143 348.306 120.15 348.291C120.157 348.276 120.16 348.259 120.159 348.243C120.159 347.061 122.471 345.749 122.34 345.226C122.209 344.704 127.994 341.42 128.398 338.534C128.802 335.649 132.634 337.222 132.634 337.222L137.511 331.419C137.657 338.493 137.935 343.444 138.414 344.698C140.726 350.737 141.625 360.184 141.625 360.184C141.625 360.184 140.211 367.399 141.625 369.762C142.493 371.205 144.513 372.752 145.916 374.033C144.457 378.613 144.664 388.348 144.664 388.348V393.942L155.453 397.079C155.453 397.079 155.791 394.282 156.306 394.282C156.821 394.282 163.672 399.703 163.672 399.703C163.672 399.703 190.045 400.053 196.719 399.703C199.243 399.572 199.93 398.448 199.541 397.089C198.9 394.825 195.3 391.892 192.1 391.668C186.96 391.317 180.453 385.723 180.453 385.723C180.453 385.723 180.958 384.495 178.227 382.748C176.338 381.546 171.113 376.679 167.882 373.829C168.034 373.615 168.19 373.401 168.337 373.171C168.337 373.171 163.97 366.897 164.873 364.115C165.777 361.334 164.485 357.319 164.485 357.319C164.485 357.319 162.046 349.576 162.046 345.639C162.046 343.146 161.683 328.962 161.42 318.903L163.672 319.096L163.717 318.093L164.727 318.187L174.274 319.096L173.981 308.53C178.58 306.439 182.407 304.5 183.992 303.261C189.384 299.078 194.008 298.801 194.008 298.801C194.008 298.801 204.923 292.768 206.594 290.274C208.265 287.78 208.108 269.675 208.108 269.675L207.21 230.872V230.841C207.21 230.841 206.442 212.083 204.898 208.015C204.332 206.51 202.934 201.491 201.404 195.761C202.283 195.667 203.171 195.706 204.039 195.876C204.095 197.277 204.13 198.239 204.13 198.568C204.13 200.795 207.21 202.688 207.21 202.688L205.029 152.498V118.353C211.753 120.57 228.015 121.26 228.015 121.26C239.732 120.622 236.91 109.581 236.91 109.581ZM173.481 66.4595H173.446C173.684 65.1436 173.996 63.8432 174.38 62.5645L173.481 66.4595ZM129.347 238.605C133.33 239.284 137.93 239.086 138.278 238.286C138.313 238.207 138.359 238.066 138.419 237.883C138.545 238.113 138.667 238.349 138.793 238.589L138.404 246.159V246.332L125.278 245.6C126.197 241.548 127.934 239.572 129.347 238.605ZM173.102 276.801L172.764 264.541C173.35 262.283 173.875 260.233 174.324 258.477C174.526 259.935 174.698 261.279 174.829 262.518C176.071 274.151 174.238 276.42 173.102 276.801ZM210.461 92.992C209.709 93.29 206.846 91.4236 204.13 89.4892C204.13 89.1337 204.155 88.7834 204.171 88.4436C204.554 80.4394 191.968 75.457 188.116 74.5369C187.182 74.287 186.275 73.9366 185.41 73.4913C183.358 72.4386 181.363 71.271 179.433 69.9937L179.484 69.842C179.484 69.842 174.516 66.5849 174.41 62.5227C175.542 58.8279 176.971 55.2376 178.681 51.7895C178.777 51.5856 178.883 51.3712 178.984 51.1673C181.332 50.4112 183.523 49.2091 185.446 47.6227C186.218 58.0788 200.829 67.0764 200.829 67.0764L202.389 69.6904L202.757 70.3073C201.97 70.7883 201.591 71.1752 201.858 71.4C202.969 72.3202 205.655 77.5273 206.766 79.7284C207.068 80.3244 207.27 80.6956 207.27 80.6956C207.27 80.6956 209.658 87.4241 211.026 93.0548C210.845 92.9762 210.645 92.9543 210.451 92.992H210.461Z" fill="url(#paint0_linear)"/>
<path d="M216.105 65.8739L215.934 66.1092L215.348 66.9195L204.115 75.1381L201.732 71.0811L200.218 68.4671C200.218 68.4671 177.828 54.5603 187.455 41.1555C197.083 27.7507 211.309 58.1468 211.309 58.1468L216.105 65.8739Z" fill="#FFC5D3"/>
<path d="M193.514 33.1264C193.466 33.0284 193.351 32.9889 193.256 33.0383C193.161 33.0876 193.123 33.2071 193.171 33.3051L194.42 35.8732C194.468 35.9712 194.583 36.0107 194.678 35.9613C194.772 35.912 194.81 35.7925 194.763 35.6945L193.514 33.1264Z" fill="#3A3768"/>
<path d="M180.695 36.7169L180.691 36.7193C180.638 36.7466 180.617 36.8128 180.644 36.867L181.016 37.6334C181.043 37.6876 181.107 37.7094 181.159 37.682L181.164 37.6796C181.216 37.6523 181.237 37.5861 181.211 37.5319L180.838 36.7655C180.812 36.7113 180.748 36.6895 180.695 36.7169Z" fill="#3A3768"/>
<path d="M181.715 38.5304C181.685 38.4685 181.612 38.4436 181.552 38.4747C181.492 38.5059 181.468 38.5813 181.498 38.6432L182.204 40.0954C182.235 40.1573 182.307 40.1822 182.367 40.151C182.427 40.1199 182.451 40.0444 182.421 39.9825L181.715 38.5304Z" fill="#3A3768"/>
<path d="M182.803 40.7907C182.775 40.7313 182.705 40.7075 182.648 40.7373C182.59 40.7672 182.567 40.8395 182.596 40.8988L183.314 42.3744C183.342 42.4337 183.412 42.4575 183.47 42.4277C183.527 42.3978 183.55 42.3255 183.521 42.2662L182.803 40.7907Z" fill="#3A3768"/>
<path d="M189.596 28.0838L180.163 33.0031C179.605 33.294 179.381 33.9982 179.662 34.5758L190.366 56.5874C190.647 57.165 191.327 57.3975 191.885 57.1066L201.318 52.1872C201.875 51.8963 202.1 51.1921 201.819 50.6145L191.115 28.603C190.834 28.0253 190.154 27.7928 189.596 28.0838Z" fill="#3A3768"/>
<path d="M188.389 29.4812C188.335 29.5089 188.287 29.5475 188.247 29.5948C188.208 29.642 188.178 29.6969 188.159 29.7563C188.14 29.8156 188.133 29.8783 188.138 29.9406C188.143 30.0029 188.159 30.0635 188.187 30.119L188.228 30.2079C188.255 30.2638 188.272 30.3248 188.277 30.3875C188.282 30.4502 188.275 30.5132 188.256 30.573C188.237 30.6328 188.207 30.6882 188.168 30.7359C188.128 30.7836 188.08 30.8227 188.026 30.851L183.169 33.3813C183.115 33.4101 183.057 33.4274 182.997 33.4324C182.937 33.4374 182.876 33.43 182.819 33.4105C182.761 33.3911 182.708 33.36 182.663 33.319C182.617 33.2781 182.58 33.2282 182.553 33.1722L182.508 33.0833C182.481 33.0274 182.444 32.9775 182.398 32.9364C182.353 32.8953 182.3 32.864 182.243 32.8441C182.185 32.8242 182.125 32.8161 182.065 32.8204C182.005 32.8247 181.946 32.8412 181.892 32.869L180.948 33.3657C180.844 33.4184 180.752 33.492 180.676 33.582C180.6 33.6721 180.543 33.7769 180.507 33.8903C180.47 34.0037 180.456 34.1234 180.465 34.2425C180.474 34.3616 180.506 34.4776 180.559 34.5838L190.878 55.7942C190.984 56.009 191.167 56.1718 191.389 56.2472C191.61 56.3226 191.851 56.3044 192.059 56.1967L200.531 51.779C200.738 51.6693 200.895 51.4792 200.968 51.2501C201.041 51.021 201.023 50.7714 200.919 50.5556L190.595 29.3348C190.543 29.228 190.472 29.1328 190.384 29.0547C190.297 28.9766 190.195 28.9172 190.085 28.8798C189.976 28.8424 189.86 28.8278 189.745 28.8368C189.629 28.8458 189.517 28.8782 189.414 28.9322L188.389 29.4812Z" fill="#0463A7"/>
<path d="M185.567 31.0875L184.291 31.753C184.201 31.7997 184.165 31.9129 184.21 32.0057C184.255 32.0986 184.365 32.1359 184.454 32.0892L185.73 31.4237C185.82 31.377 185.856 31.2638 185.811 31.171C185.766 31.0781 185.657 31.0408 185.567 31.0875Z" fill="#E6E8EC"/>
<path d="M186.228 31.149C186.343 31.149 186.435 31.053 186.435 30.9346C186.435 30.8162 186.343 30.7202 186.228 30.7202C186.114 30.7202 186.021 30.8162 186.021 30.9346C186.021 31.053 186.114 31.149 186.228 31.149Z" fill="#E6E8EC"/>
<path d="M195.659 110.836L192.504 198.521C192.504 198.521 203.105 194.861 204.746 197.606C206.387 200.351 202.979 153.69 202.979 153.69L195.659 110.836Z" fill="#5F5570"/>
<path opacity="0.15" d="M195.659 110.836L192.504 198.521C192.504 198.521 203.105 194.861 204.746 197.606C206.387 200.351 202.979 153.69 202.979 153.69L195.659 110.836Z" fill="#1C2331"/>
<path d="M196.164 399.86C189.601 400.21 163.687 399.86 163.687 399.86C163.687 399.86 156.952 394.459 156.447 394.459C155.943 394.459 155.609 397.246 155.609 397.246L145.008 394.109V388.536C145.008 388.536 144.669 372.669 147.865 371.979C151.061 371.288 165.201 371.979 165.201 371.979C165.706 371.806 175.298 381.217 177.989 382.958C180.68 384.699 180.175 385.922 180.175 385.922C180.175 385.922 186.572 391.495 191.62 391.845C194.765 392.065 198.304 394.982 198.935 397.246C199.319 398.61 198.638 399.729 196.164 399.86Z" fill="#BC8487"/>
<path opacity="0.1" d="M196.164 399.86C189.601 400.21 163.687 399.86 163.687 399.86C163.687 399.86 156.952 394.459 156.447 394.459C155.943 394.459 155.609 397.246 155.609 397.246L145.008 394.109V388.646L154.933 392.368L162.844 397.246H198.935C199.319 398.61 198.638 399.729 196.164 399.86Z" fill="#1C2331"/>
<g opacity="0.1">
<path d="M166.696 391.673C166.696 391.673 174.773 383.658 180.175 385.922L166.696 391.673Z" fill="#1C2331"/>
<path d="M166.696 391.673C166.696 391.673 174.773 383.658 180.175 385.922" stroke="#1C2331" stroke-miterlimit="10"/>
</g>
<path d="M115.555 362.218C115.893 363.263 112.864 364.659 112.864 364.659V378.425C112.864 378.425 114.237 386.69 112.253 389.101C112.104 389.296 111.916 389.456 111.701 389.569C111.487 389.682 111.251 389.745 111.011 389.754C107.311 389.927 99.2329 363.786 99.2329 363.786L98.7281 348.682L96.7087 347.234L93.8462 328.063H99.0664C99.0664 328.063 99.6166 327.712 100.5 327.242C103.024 325.909 108.31 323.582 111.183 325.799L120.941 348.567C120.941 348.567 115.221 361.172 115.555 362.218Z" fill="#BC8487"/>
<path opacity="0.1" d="M112.253 389.101C112.104 389.296 111.916 389.456 111.701 389.569C111.487 389.682 111.251 389.745 111.011 389.754C107.311 389.927 99.2329 363.786 99.2329 363.786L98.7281 348.682L96.7087 347.234L93.8462 328.063H99.0664C99.0664 328.063 99.6166 327.712 100.5 327.242L101.757 346.884L102.429 363.786C102.429 363.786 108.77 382.189 112.253 389.101Z" fill="#1C2331"/>
<path d="M205.882 290.813C204.241 293.296 193.513 299.308 193.513 299.308C193.513 299.308 188.97 299.57 183.669 303.752C180.927 305.916 171.401 310.209 162.844 313.853C154.852 317.256 147.698 320.09 147.698 320.09L139.459 330.023L133.184 337.588C133.184 337.588 129.398 336.02 129.019 338.895C128.64 341.771 122.961 345.038 123.087 345.561C123.213 346.084 120.941 347.391 120.941 348.567C120.941 349.744 112.485 340.072 112.611 334.19C112.738 328.308 108.32 324.257 108.32 324.257C108.32 324.257 109.456 322.165 111.223 322.557C112.99 322.95 114.505 322.165 115.009 321.512C115.514 320.858 117.66 322.427 118.67 321.904C119.679 321.381 123.718 311.056 123.718 311.056L139.454 300.124L170.755 278.396L172.199 277.392C172.199 277.392 176.364 279.368 174.672 263.177C174.344 260.04 173.794 256.229 172.956 251.586C167.781 222.962 186.334 219.695 186.334 219.695L202.616 225.315L206.528 231.589V231.62L207.412 270.277C207.412 270.277 207.523 288.329 205.882 290.813Z" fill="#433A59"/>
<path opacity="0.1" d="M162.718 309.111C162.718 309.111 162.768 310.967 162.844 313.853C154.852 317.256 147.698 320.09 147.698 320.09L139.459 330.023C139.323 321.789 139.353 311.092 139.459 300.129L170.76 278.401C166.888 293.264 162.718 309.111 162.718 309.111Z" fill="#1C2331"/>
<path opacity="0.1" d="M206.513 231.604V231.636L182.028 232.127C182.028 232.127 177.737 249.511 177.106 253.17C176.949 254.069 176 257.912 174.657 263.192C174.329 260.056 173.779 256.244 172.941 251.602C167.766 222.978 186.319 219.71 186.319 219.71L202.601 225.331L206.513 231.604Z" fill="#1C2331"/>
<path d="M142.019 184.159L138.864 246.897C138.864 246.897 136.592 339.042 138.864 345.054C141.135 351.066 142.019 360.477 142.019 360.477C142.019 360.477 140.63 367.665 142.019 370.018C143.407 372.371 147.825 374.985 147.698 376.292C147.572 377.599 161.203 384.657 168.271 373.416C168.271 373.416 163.98 367.143 164.863 364.398C165.747 361.653 164.485 357.601 164.485 357.601C164.485 357.601 162.087 349.89 162.087 345.953C162.087 342.016 161.203 309.095 161.203 309.095C161.203 309.095 174.96 256.814 175.591 253.155C176.222 249.495 180.513 232.111 180.513 232.111L206.513 231.589C206.513 231.589 205.756 212.898 204.241 208.846C202.727 204.795 195.28 175.125 195.28 175.125L142.019 184.159Z" fill="#433A59"/>
<path d="M98.6271 245.663L96.3705 246.332L96.2796 248.643L163.939 249.547V248.637L98.6271 245.663Z" fill="#003B72"/>
<path d="M178.434 53.2585C168.589 73.9356 174.703 78.2593 175.677 78.7925C173.592 77.7887 146.492 64.6035 150.056 61.2575C152.373 59.0774 154.357 49.5937 155.524 42.7971C156.215 38.7402 156.619 35.6399 156.619 35.6399L185.057 41.0405C182.301 45.6412 180.11 49.693 178.434 53.2585Z" fill="#FFC5D3"/>
<path opacity="0.1" d="M215.954 66.1092L215.368 66.9195L204.115 75.1381L201.732 71.0811C205.201 68.9899 215.6 65.3302 215.6 65.3302L215.954 66.1092Z" fill="#1C2331"/>
<path d="M226.328 84.9565C225.319 88.6161 208.28 84.9565 208.28 84.9565L206.513 82.081C206.513 82.081 206.336 81.715 206.039 81.119C204.948 78.9285 202.308 73.7422 201.217 72.8221C199.829 71.6457 216.11 65.8948 216.11 65.8948L221.098 77.1352C222.328 77.9912 223.462 78.9854 224.481 80.0996C225.743 81.5164 226.788 83.2887 226.328 84.9565Z" fill="#E5E8EF"/>
<path d="M198.057 86.6399C198.057 86.6399 208.154 94.8898 209.668 94.2938C211.183 93.6978 235.668 110.82 235.668 110.82C235.668 110.82 238.445 121.799 226.96 122.452C226.96 122.452 202.601 121.407 201.591 117.747C200.581 114.087 198.057 86.6399 198.057 86.6399Z" fill="#5F5570"/>
<path opacity="0.1" d="M170.543 70.0564L159.562 81.8196L174.96 183.245L181.018 179.585C181.018 179.585 196.669 186.773 197.931 180.108C199.193 173.442 198.845 147.171 198.845 147.171L196.795 99.7101C196.795 99.7101 189.601 83.1109 189.601 82.5881C189.601 82.0653 179.226 73.9618 179.226 73.9618L174.329 70.0407L170.543 70.0564Z" fill="#1C2331"/>
<path d="M170.543 68.488L159.562 80.2512L174.96 181.676L181.018 178.016C181.018 178.016 196.669 185.205 197.931 178.539C199.193 171.873 198.845 145.602 198.845 145.602L196.795 98.1417C196.795 98.1417 189.601 81.5425 189.601 81.0197C189.601 80.4969 179.226 72.3934 179.226 72.3934L174.329 68.4723L170.543 68.488Z" fill="#E5E8EF"/>
<path opacity="0.1" d="M171.174 70.1871L168.145 76.5915L171.174 79.9009C171.174 79.9009 182.028 102.601 179.882 116.064L182.154 160.372L189.475 167.822L195.28 160.879L192.504 120.622C192.504 120.622 185.057 87.4241 177.232 77.0986L174.96 67.9495L171.174 70.1871Z" fill="#1C2331"/>
<path d="M171.174 69.1415L168.145 75.5459L171.174 78.8553C171.174 78.8553 182.028 101.556 179.882 115.018L182.154 159.326L189.475 166.776L195.28 159.833L192.504 119.577C192.504 119.577 185.057 86.3785 177.232 76.053L174.96 66.9039L171.174 69.1415Z" fill="#BC8487"/>
<path opacity="0.1" d="M185.057 41.0405C182.301 45.6412 180.13 49.693 178.433 53.2586C176.647 53.8042 174.793 54.0806 172.931 54.0794C166.691 54.0794 163.096 49.6094 159.562 44.8622C158.755 43.7853 156.099 44.0362 155.523 42.771C156.215 38.714 156.619 35.6138 156.619 35.6138L185.057 41.0405Z" fill="#1C2331"/>
<path d="M192.281 33.5121C192.281 38.2846 190.636 42.9003 187.642 46.5287C184.649 50.1571 180.503 52.5599 175.951 53.3047C171.398 54.0495 166.739 53.0874 162.811 50.5916C158.883 48.0958 155.944 44.2301 154.523 39.6901C153.102 35.1501 153.292 30.234 155.059 25.8263C156.827 21.4186 160.055 17.8089 164.163 15.6465C168.272 13.4842 172.99 12.9113 177.47 14.031C181.95 15.1506 185.897 17.8892 188.601 21.7541C190.994 25.1739 192.282 29.289 192.281 33.5121Z" fill="#FFC5D3"/>
<path opacity="0.1" d="M166.756 78.1599L150.854 58.2932C150.854 58.2932 149.385 57.6815 154.347 52.3018C154.347 52.3018 172.572 67.0137 173.703 69.5127C174.834 72.0117 166.756 78.1599 166.756 78.1599Z" fill="#1C2331"/>
<path d="M166.252 77.1143L150.349 57.2476C150.349 57.2476 148.88 56.6359 153.842 51.2562C153.842 51.2562 172.067 65.968 173.198 68.4671C174.329 70.9661 166.252 77.1143 166.252 77.1143Z" fill="#E5E8EF"/>
<path d="M206.513 203.556C206.513 203.556 203.484 201.674 203.484 199.452C203.484 197.23 201.97 165.861 201.97 165.861C201.97 165.861 199.748 147.139 197.426 132.26C196.063 123.493 194.664 116.053 193.675 114.579L193.634 114.516C190.984 110.987 191.489 93.7344 174.955 68.5089C175.177 68.6657 180.877 72.8064 185.052 74.8871C185.902 75.3294 186.793 75.6798 187.713 75.9328C191.499 76.8477 203.868 81.8144 203.489 89.7872C203.111 97.76 204.373 116.058 204.373 116.058V153.559L206.513 203.556Z" fill="#5F5570"/>
<path d="M206.513 82.081C206.513 82.081 211.814 97.2424 211.057 101.033C210.3 104.823 223.299 119.723 223.299 119.723L235.668 110.835C235.668 110.835 230.998 101.164 231.629 98.2881C232.26 95.4126 228.348 89.2696 228.348 89.2696L228.6 79.0853C228.6 79.0853 226.328 83.503 206.513 82.081Z" fill="#5F5570"/>
<path opacity="0.1" d="M188.601 21.7541L179.009 22.1305C178.072 22.1241 177.139 22.2454 176.232 22.4912C172.804 23.5839 171.224 27.3586 171.098 30.7516C170.972 34.1446 169.079 37.9455 165.408 38.2435C165.043 38.3077 164.668 38.2214 164.363 38.003C164.131 37.7465 163.976 37.4246 163.919 37.0776C163.393 35.1005 162.579 33.2178 161.506 31.494C159.991 31.7763 158.871 33.2663 158.477 34.8243C158.083 36.3823 158.189 38.0239 158.194 39.6394C158.199 41.6911 158.008 43.7382 157.624 45.751C156.059 43.647 154.913 41.2419 154.253 38.6754C153.594 36.1089 153.434 33.4322 153.782 30.801C154.13 28.1698 154.98 25.6365 156.282 23.3484C157.584 21.0603 159.312 19.063 161.366 17.4726C163.42 15.8823 165.759 14.7306 168.246 14.0846C170.734 13.4385 173.321 13.311 175.856 13.7094C178.392 14.1078 180.826 15.0241 183.016 16.4052C185.207 17.7862 187.11 19.6044 188.616 21.7541H188.601Z" fill="#1C2331"/>
<path d="M175.733 21.9684C176.639 21.7226 177.572 21.6013 178.509 21.6077L190.156 21.1581C191.863 21.0901 193.766 20.9333 194.912 19.621C195.323 19.1199 195.626 18.5334 195.8 17.901C196.1 16.8905 196.188 15.8253 196.059 14.7767C195.929 13.7281 195.584 12.7203 195.048 11.8207C193.7 9.59877 191.337 8.30743 189.086 7.11543C186.99 5.95602 184.838 4.90902 182.639 3.97857C174.469 0.765575 165.423 0.900197 157.346 4.355C156.548 4.67222 155.791 5.09201 155.094 5.60451C154.121 6.4684 153.292 7.49297 152.641 8.6368L148.809 14.6177C148.28 15.348 147.873 16.1643 147.602 17.0331C146.88 19.872 149.117 22.7108 148.885 25.6333C148.753 27.0867 148.011 28.4199 147.875 29.8733C147.693 31.7502 148.521 33.533 149.334 35.2426L156.069 49.3113C157.156 46.0307 157.707 42.5851 157.699 39.1166C157.699 37.5011 157.568 35.8595 157.982 34.3015C158.396 32.7435 159.497 31.2535 161.011 30.9712C162.087 32.6942 162.902 34.577 163.429 36.5548C163.485 36.9022 163.64 37.2245 163.874 37.4802C164.178 37.6991 164.553 37.7855 164.919 37.7207C168.609 37.4227 170.472 33.6584 170.608 30.2288C170.745 26.7992 172.305 23.0611 175.733 21.9684Z" fill="#8F7080"/>
<path d="M96.3705 246.332L101.086 244.936L172.184 248.946L164.358 249.992L96.3705 246.332Z" fill="#003B72"/>
<path opacity="0.1" d="M96.3705 246.332L101.086 244.936L172.184 248.946L164.358 249.992L96.3705 246.332Z" fill="#1C2331"/>
<path d="M174.117 319.525L164.737 318.621L161.445 318.307V264.28L162.314 251.738L162.506 248.946H172.184L174.117 319.525Z" fill="#003B72"/>
<path opacity="0.1" d="M171.552 317.606L164.071 316.749L161.445 316.451V265.226L162.137 253.338L162.288 250.687H170.008L171.552 317.606Z" fill="#1C2331"/>
<path d="M120.245 246.332C120.245 246.332 124.915 235.724 126.873 235.395C128.832 235.065 132.427 235.395 132.427 235.395L132.109 238.469C132.109 238.469 127.313 238.861 125.798 247.158L120.245 246.332Z" fill="#003B72"/>
<path opacity="0.1" d="M120.245 246.332C120.245 246.332 124.915 235.724 126.873 235.395C128.832 235.065 132.427 235.395 132.427 235.395L132.109 238.469C132.109 238.469 127.313 238.861 125.798 247.158L120.245 246.332Z" fill="#1C2331"/>
<path d="M138.359 234.286C138.359 234.286 150.914 240.754 149.273 248.334L142.458 247.942C142.458 247.942 139.177 236.639 136.592 236.048C134.007 235.457 138.359 234.286 138.359 234.286Z" fill="#003B72"/>
<path d="M185.057 131.879V132.26L184.805 175.795C184.805 175.795 178.368 212.391 176.601 213.829C174.834 215.267 136.087 211.346 136.087 211.346L118.543 88.8775C118.417 67.9652 132.679 68.6187 132.679 68.6187C134.572 65.4818 143.66 62.9985 143.66 62.9985L148.708 57.9011L148.87 57.6658C149.205 57.1479 149.638 56.7052 150.142 56.364C151.182 55.7419 151.843 56.5627 152.222 57.3731C152.392 57.7535 152.524 58.1512 152.616 58.5598C173.067 74.0925 185.057 131.879 185.057 131.879Z" fill="#5F5570"/>
<path opacity="0.1" d="M184.552 132.401V132.783C178.206 120.758 153.757 75.2008 147.067 72.9319L149.642 71.102C149.642 71.102 151.359 70.0564 148.203 69.0108C148.203 69.0108 143.281 69.6643 143.155 63.5213L148.365 58.1886L149.637 56.8868L151.717 57.8959C151.887 58.2763 152.019 58.674 152.111 59.0826C172.562 74.6153 184.552 132.401 184.552 132.401Z" fill="#1C2331"/>
<path d="M185.057 131.879V132.26C178.711 120.236 154.261 74.678 147.572 72.409L150.147 70.5792C150.147 70.5792 151.863 69.5336 148.708 68.488C148.708 68.488 143.786 69.1415 143.66 62.9985L148.87 57.6658L150.142 56.364L152.222 57.3731C152.392 57.7535 152.524 58.1512 152.616 58.5598C173.067 74.0925 185.057 131.879 185.057 131.879Z" fill="#433A59"/>
<path opacity="0.1" d="M194.185 115.081L194.144 115.018C191.494 111.489 191.999 94.2363 175.465 69.0108C175.687 69.1676 181.387 73.3083 185.562 75.389L184.396 79.3728L186.92 80.7687L194.185 115.081Z" fill="#1C2331"/>
<path d="M193.68 114.558L193.64 114.495C190.989 110.966 191.494 93.7135 174.96 68.488C175.182 68.6448 180.882 72.7855 185.057 74.8662L183.891 78.8501L186.415 80.246L193.68 114.558Z" fill="#433A59"/>
<path opacity="0.1" d="M174.233 64.4623L173.198 68.9899C173.198 68.9899 173.956 73.5226 178.494 73.9147L179.226 71.7555C179.226 71.7555 174.329 68.5037 174.233 64.4623Z" fill="#1C2331"/>
<path d="M174.233 63.9395L173.198 68.4671C173.198 68.4671 173.956 72.9998 178.494 73.3919L179.226 71.2327C179.226 71.2327 174.329 67.9808 174.233 63.9395Z" fill="#E5E8EF"/>
<path opacity="0.1" d="M167.705 249.678L164.737 318.621L161.445 318.307V264.28L162.314 251.738L167.705 249.678Z" fill="#1C2331"/>
<path d="M97.0469 276.305L95.0276 313.597L163.687 319.525L166.696 249.678L97.0469 276.305Z" fill="#003B72"/>
<path opacity="0.1" d="M95.5324 280.314L96.8753 247.378L167.201 250.723L163.854 285.543L95.5324 280.314Z" fill="#1C2331"/>
<path d="M95.0276 279.269L96.3705 246.332L166.696 249.678L163.349 284.497L95.0276 279.269Z" fill="#003B72"/>
<path d="M133.058 279.311H124.602V289.505H133.058V279.311Z" fill="#C3BBC8"/>
<path d="M125.864 212.522L124.602 216.051C124.602 216.051 121.951 235.395 125.233 237.747C128.514 240.1 138.232 240.231 138.737 239.054C139.242 237.878 142.776 224.546 142.776 224.546C142.776 224.546 145.931 234.349 147.572 233.565C149.213 232.781 143.786 214.148 143.786 214.148L125.864 212.522Z" fill="#FFC5D3"/>
<path opacity="0.1" d="M124.602 197.883V216.574C124.602 216.574 137.98 219.188 143.786 214.671C143.786 214.671 138.359 196.576 140.378 192.002C142.397 187.427 124.602 197.883 124.602 197.883Z" fill="#1C2331"/>
<path d="M124.602 197.36V216.051C124.602 216.051 137.98 218.665 143.786 214.148C143.786 214.148 138.359 196.053 140.378 191.479C142.397 186.904 124.602 197.36 124.602 197.36Z" fill="#E5E8EF"/>
<path opacity="0.1" d="M123.087 87.9626L119.553 89.9231C119.553 89.9231 118.922 97.7653 118.543 98.8109C118.165 99.8565 118.543 110.443 118.543 110.443L118.372 131.879C118.372 131.879 117.826 143.25 118.372 147.301C118.917 151.353 119.528 166.776 119.528 166.776C119.528 166.776 122.941 181.807 121.678 187.166C120.416 192.524 121.805 204.549 123.95 203.503C126.096 202.458 145.911 198.406 146.921 197.622C147.931 196.838 147.426 189.518 146.921 188.603C146.416 187.688 143.387 175.272 143.639 172.396C143.892 169.521 142.756 144.295 142.756 144.295C142.756 144.295 144.649 117.371 145.406 111.097C146.164 104.823 143.892 86.3942 141.872 86.1328C139.853 85.8714 133.941 71.6248 123.087 87.9626Z" fill="#1C2331"/>
<path d="M122.077 86.917L118.543 88.8775C118.543 88.8775 117.912 96.7197 117.534 97.7653C117.155 98.8109 117.534 109.398 117.534 109.398L117.362 130.833C117.362 130.833 116.817 142.204 117.362 146.256C117.907 150.308 118.518 165.73 118.518 165.73C118.518 165.73 121.931 180.761 120.669 186.12C119.407 191.479 120.795 203.503 122.941 202.458C125.086 201.412 144.902 197.36 145.911 196.576C146.921 195.792 146.416 188.473 145.911 187.558C145.406 186.643 142.377 174.226 142.63 171.351C142.882 168.475 141.746 143.25 141.746 143.25C141.746 143.25 143.639 116.325 144.397 110.051C145.154 103.778 142.882 85.3486 140.863 85.0872C138.843 84.8258 132.932 70.5792 122.077 86.917Z" fill="#5F5570"/>
<g opacity="0.1">
<path opacity="0.1" d="M160.249 29.0107C158.734 29.293 157.614 30.783 157.22 32.3409C156.826 33.8989 156.932 35.5405 156.937 37.156C156.947 40.6243 156.397 44.0699 155.311 47.3508L148.572 33.282C148.441 33.0049 148.304 32.7174 148.173 32.4298C148.485 33.398 148.871 34.3386 149.329 35.2425L156.069 49.3113C157.155 46.0304 157.704 42.5848 157.694 39.1166C157.694 37.5011 157.568 35.8595 157.977 34.3015C158.386 32.7435 159.492 31.2535 161.006 30.9712C161.495 31.7642 161.932 32.5903 162.314 33.4441C161.801 31.8853 161.108 30.3967 160.249 29.0107Z" fill="#1C2331"/>
<path opacity="0.1" d="M195.169 12.0455C195.465 13.3317 195.424 14.6766 195.048 15.9404C194.872 16.5732 194.567 17.1597 194.154 17.6605C193.008 18.9727 191.125 19.1296 189.399 19.1975L177.757 19.6472C176.819 19.6408 175.883 19.7621 174.975 20.0079C171.552 21.1006 169.967 24.8752 169.841 28.2683C169.715 31.6613 167.822 35.4621 164.151 35.7601C163.786 35.8244 163.411 35.7381 163.106 35.5196C163.222 35.8595 163.333 36.2045 163.429 36.5653C163.481 36.9129 163.635 37.2358 163.869 37.4906C164.173 37.7091 164.548 37.7954 164.914 37.7311C168.609 37.4331 170.467 33.6689 170.603 30.2393C170.74 26.8096 172.315 23.0716 175.738 21.9789C176.646 21.733 177.581 21.6118 178.519 21.6181L190.161 21.1685C191.868 21.1006 193.771 20.9437 194.917 19.6315C195.33 19.1307 195.634 18.5442 195.81 17.9114C196.097 16.9403 196.187 15.9186 196.077 14.9096C195.967 13.9007 195.658 12.9259 195.169 12.0455Z" fill="#1C2331"/>
</g>
<path opacity="0.1" d="M176.212 226.476C176.212 226.476 180.584 224.123 182.27 224.254C183.957 224.384 199.097 244.324 199.097 244.324L176.212 226.476Z" fill="#1C2331"/>
<path opacity="0.1" d="M131.367 91.5282C131.367 91.5282 123.375 95.0624 123.587 97.5039C123.799 99.9454 131.367 91.5282 131.367 91.5282Z" fill="#1C2331"/>
<path opacity="0.1" d="M127.474 103.082C127.474 103.082 119.089 114.187 120.941 114.558C122.794 114.929 127.474 103.082 127.474 103.082Z" fill="#1C2331"/>
<path opacity="0.1" d="M155.523 119.723C155.523 119.723 156.291 144.557 150.142 147.694L155.523 119.723Z" fill="#1C2331"/>
<path opacity="0.1" d="M123.567 186.031C123.567 186.031 129.483 182.549 130.841 183.245C132.2 183.94 123.567 186.031 123.567 186.031Z" fill="#1C2331"/>
<path opacity="0.1" d="M124.602 190.846C124.602 190.846 128.337 191.123 130.109 190.323C131.881 189.523 124.602 190.846 124.602 190.846Z" fill="#1C2331"/>
<path opacity="0.1" d="M213.783 99.4017C213.783 99.4017 218.417 113.188 221.088 113.188L213.783 99.4017Z" fill="#1C2331"/>
<path opacity="0.1" d="M147.88 363.441C147.88 363.441 156.574 361 157.856 363.441C159.138 365.883 147.88 363.441 147.88 363.441Z" fill="#1C2331"/>
<path opacity="0.1" d="M120.245 327.242C120.245 327.242 118.079 330.677 120.941 331.722C123.804 332.768 120.245 327.242 120.245 327.242Z" fill="#1C2331"/>
<path opacity="0.1" d="M177.989 279.311C177.989 279.311 184.552 285.365 187.652 285.543C190.752 285.72 177.989 279.311 177.989 279.311Z" fill="#1C2331"/>
<path d="M436.492 31.2797C436.492 31.2797 393.989 28.6081 398.997 59.4538C398.997 59.4538 397.987 64.9067 402.773 67.3848C402.773 67.3848 402.849 65.0949 407.135 65.8739C408.659 66.1359 410.208 66.2131 411.749 66.104C413.83 65.9574 415.809 65.1154 417.388 63.7043C417.388 63.7043 429.338 58.5964 433.983 38.3689C433.983 38.3689 437.421 33.9564 437.284 32.8219L430.11 35.9954C430.11 35.9954 432.564 41.3542 430.615 45.8085C430.615 45.8085 430.383 36.1888 429.005 36.398C428.722 36.445 425.274 38.2539 425.274 38.2539C425.274 38.2539 429.494 47.5913 426.309 54.3721C426.309 54.3721 427.521 42.8703 423.961 38.9284L418.913 41.9816C418.913 41.9816 423.845 51.6222 420.503 59.4904C420.503 59.4904 421.361 47.424 417.853 42.7239L413.279 46.4202C413.279 46.4202 417.908 55.9249 415.086 62.4495C415.086 62.4495 414.718 48.4017 412.284 47.3404C412.284 47.3404 408.286 51 407.675 52.4952C407.675 52.4952 410.845 59.3963 408.877 63.0351C408.877 63.0351 407.67 53.6768 406.68 53.6245C406.68 53.6245 402.692 59.825 402.278 64.0807C402.278 64.0807 402.45 57.7547 405.716 53.0337C405.716 53.0337 401.859 53.7186 399.608 56.3118C399.608 56.3118 400.228 51.9254 406.675 51.5437C406.675 51.5437 409.967 46.8385 410.85 46.5509C410.85 46.5509 404.414 45.9967 400.511 47.7847C400.511 47.7847 403.949 43.6493 412.032 45.5314L416.575 41.7149C416.575 41.7149 408.099 40.5125 404.51 41.8404C404.51 41.8404 408.644 38.1807 417.792 40.8471L422.709 37.7991C422.709 37.7991 415.485 36.1888 411.184 36.7535C411.184 36.7535 415.727 34.2178 424.148 36.9678L427.682 35.3314C427.682 35.3314 422.391 34.2544 420.841 34.0871C419.292 33.9198 419.206 33.4702 419.206 33.4702C422.559 32.8915 426.002 33.2879 429.151 34.6152C429.151 34.6152 436.623 31.745 436.492 31.2797Z" fill="#0463A7"/>
<path d="M352.127 25.3667C352.127 25.3667 332.942 24.1695 335.184 38.1075C335.184 38.1075 334.735 40.57 336.89 41.6888C336.89 41.6888 336.926 40.6432 338.859 41.0039C339.549 41.1266 340.251 41.1618 340.949 41.1085C341.882 41.0362 342.767 40.6549 343.473 40.021C343.473 40.021 348.87 37.7102 350.97 28.5715C350.97 28.5715 352.525 26.5796 352.485 26.0673L349.234 27.4997C349.234 27.4997 350.339 29.9204 349.471 31.9332C349.471 31.9332 349.365 27.5886 348.739 27.688C348.613 27.688 347.058 28.5297 347.058 28.5297C347.058 28.5297 348.961 32.7488 347.522 35.8124C347.522 35.8124 348.073 30.6157 346.462 28.8329L344.185 30.2131C344.185 30.2131 346.412 34.5681 344.902 38.1232C344.902 38.1232 345.291 32.6703 343.706 30.5477L341.641 32.2207C341.641 32.2207 343.731 36.513 342.454 39.4616C342.454 39.4616 342.287 33.1147 341.192 32.6337C341.192 32.6337 339.384 34.2858 339.106 34.9655C339.106 34.9655 340.54 38.1023 339.652 39.7282C339.652 39.7282 339.107 35.4987 338.642 35.4778C338.642 35.4778 336.84 38.2801 336.653 40.1831C336.74 38.4082 337.277 36.6882 338.208 35.1955C337.167 35.3983 336.207 35.9128 335.446 36.675C335.446 36.675 335.729 34.6936 338.652 34.5211C338.652 34.5211 340.141 32.3932 340.54 32.2678C340.54 32.2678 337.632 32.0116 335.865 32.8219C335.865 32.8219 337.42 30.9555 341.07 31.7763L343.09 30.0511C343.09 30.0511 339.258 29.5282 337.637 30.1086C337.637 30.1086 339.505 28.4565 343.635 29.659L345.861 28.284C345.861 28.284 342.595 27.5573 340.651 27.8187C340.651 27.8187 342.701 26.6737 346.513 27.9128L348.098 27.1756C348.098 27.1756 345.71 26.6894 345.008 26.611C344.306 26.5326 344.271 26.3339 344.271 26.3339C345.787 26.0761 347.342 26.257 348.764 26.8567C348.764 26.8567 352.187 25.5863 352.127 25.3667Z" fill="#0463A7"/>
<path opacity="0.1" d="M427.404 380.307C434.913 380.307 441 379.242 441 377.928C441 376.614 434.913 375.549 427.404 375.549C419.896 375.549 413.809 376.614 413.809 377.928C413.809 379.242 419.896 380.307 427.404 380.307Z" fill="#0463A7"/>
<path opacity="0.1" d="M13.5956 344.897C21.1042 344.897 27.1911 343.832 27.1911 342.518C27.1911 341.205 21.1042 340.139 13.5956 340.139C6.08694 340.139 0 341.205 0 342.518C0 343.832 6.08694 344.897 13.5956 344.897Z" fill="#0463A7"/>
<path opacity="0.1" d="M417.944 334.232C425.452 334.232 431.539 333.167 431.539 331.853C431.539 330.539 425.452 329.474 417.944 329.474C410.435 329.474 404.348 330.539 404.348 331.853C404.348 333.167 410.435 334.232 417.944 334.232Z" fill="#0463A7"/>
<path opacity="0.1" d="M66.1805 357.659C73.6892 357.659 79.7761 356.594 79.7761 355.28C79.7761 353.966 73.6892 352.901 66.1805 352.901C58.6719 352.901 52.585 353.966 52.585 355.28C52.585 356.594 58.6719 357.659 66.1805 357.659Z" fill="#0463A7"/>
<path opacity="0.1" d="M357.342 359.703C364.85 359.703 370.937 358.638 370.937 357.324C370.937 356.01 364.85 354.945 357.342 354.945C349.833 354.945 343.746 356.01 343.746 357.324C343.746 358.638 349.833 359.703 357.342 359.703Z" fill="#0463A7"/>
<path d="M397.649 406.975C408.86 406.975 417.949 405.384 417.949 403.42C417.949 401.457 408.86 399.865 397.649 399.865C386.437 399.865 377.349 401.457 377.349 403.42C377.349 405.384 386.437 406.975 397.649 406.975Z" fill="#0463A7"/>
<path d="M406.039 397.607C406.964 396.825 407.639 395.772 407.973 394.585C408.225 393.382 407.73 391.971 406.62 391.505C405.378 391.014 404.05 391.903 403.046 392.802C402.041 393.701 400.885 394.731 399.567 394.543C400.245 393.907 400.753 393.099 401.04 392.2C401.328 391.3 401.386 390.339 401.208 389.409C401.149 389.024 400.99 388.663 400.748 388.363C400.062 387.6 398.81 387.929 397.987 388.531C395.362 390.444 394.63 394.135 394.615 397.46C394.352 396.258 394.574 395.008 394.564 393.801C394.554 392.593 394.236 391.187 393.231 390.549C392.611 390.204 391.915 390.033 391.212 390.052C390.031 390.01 388.718 390.13 387.915 391.024C386.905 392.133 387.173 393.999 388.041 395.207C388.91 396.415 390.238 397.194 391.459 398.041C392.438 398.642 393.271 399.467 393.898 400.451C393.974 400.586 394.035 400.73 394.079 400.879H401.48C403.135 400.006 404.669 398.905 406.039 397.607Z" fill="#0463A7"/>
<path d="M66.8823 296.809C66.8823 296.809 69.659 300.563 65.605 306.22C61.5511 311.876 58.209 316.676 59.5468 320.21C59.5468 320.21 65.6656 309.681 70.6535 309.534C75.6414 309.388 72.3599 303.156 66.8823 296.809Z" fill="#0463A7"/>
<path opacity="0.1" d="M66.8823 296.809C67.1252 297.17 67.3157 297.567 67.4477 297.985C72.3044 303.893 74.8942 309.409 70.2244 309.55C65.8776 309.675 60.6626 317.727 59.4106 319.76C59.4517 319.918 59.5006 320.073 59.5569 320.226C59.5569 320.226 65.6757 309.696 70.6636 309.55C75.6515 309.404 72.3599 303.156 66.8823 296.809Z" fill="#1C2331"/>
<path d="M72.0368 301.608C72.0368 302.931 71.8954 304.003 71.7187 304.003C71.542 304.003 71.4007 302.957 71.4007 301.608C71.4007 300.26 71.5774 300.908 71.7541 300.908C71.9308 300.908 72.0368 300.286 72.0368 301.608Z" fill="#FFD037"/>
<path d="M73.8088 303.187C72.688 303.82 71.7086 304.202 71.6278 304.045C71.5471 303.888 72.3801 303.24 73.5008 302.607C74.6216 301.974 74.1824 302.435 74.2632 302.607C74.3439 302.78 74.9296 302.56 73.8088 303.187Z" fill="#FFD037"/>
<path d="M52.2366 296.809C52.2366 296.809 49.46 300.563 53.5139 306.22C57.5678 311.876 60.9099 316.676 59.5721 320.21C59.5721 320.21 53.4584 309.681 48.4654 309.534C43.4725 309.388 46.759 303.156 52.2366 296.809Z" fill="#0463A7"/>
<path opacity="0.1" d="M52.2366 296.809C51.9931 297.171 51.801 297.567 51.6662 297.985C46.8095 303.893 44.2247 309.409 48.8895 309.55C53.2413 309.675 58.4564 317.727 59.7084 319.76C59.6678 319.919 59.6172 320.074 59.5569 320.226C59.5569 320.226 53.4432 309.696 48.4503 309.55C43.4573 309.404 46.759 303.156 52.2366 296.809Z" fill="#1C2331"/>
<path d="M47.0771 301.608C47.0771 302.931 47.2235 304.003 47.4002 304.003C47.5769 304.003 47.7183 302.957 47.7183 301.608C47.7183 300.26 47.5416 300.908 47.3649 300.908C47.1882 300.908 47.0771 300.286 47.0771 301.608Z" fill="#FFD037"/>
<path d="M45.3152 303.187C46.4359 303.82 47.4103 304.202 47.4961 304.045C47.5819 303.888 46.7388 303.24 45.6181 302.607C44.4973 301.974 44.9416 302.435 44.8558 302.607C44.7699 302.78 44.1894 302.56 45.3152 303.187Z" fill="#FFD037"/>
<path d="M47.9606 319.75C47.9606 319.75 55.715 319.504 58.0575 317.779C60.4 316.054 69.9871 313.999 70.5626 316.765C71.1382 319.53 82.2196 330.509 73.4655 330.583C64.7114 330.656 53.1201 329.171 50.7877 327.697C48.4553 326.222 47.9606 319.75 47.9606 319.75Z" fill="#A8A8A8"/>
<path opacity="0.2" d="M73.617 329.621C64.8629 329.694 53.2716 328.209 50.9392 326.735C49.1672 325.616 48.4553 321.595 48.218 319.739H47.9606C47.9606 319.739 48.4654 326.217 50.7827 327.686C53.0999 329.155 64.7064 330.645 73.4605 330.572C75.9847 330.572 76.8581 329.621 76.8127 328.24C76.4593 329.082 75.495 329.605 73.617 329.621Z" fill="#1C2331"/>
<defs>
<linearGradient id="paint0_linear" x1="164.904" y1="399.86" x2="164.904" y2="4.14061e-06" gradientUnits="userSpaceOnUse">
<stop stop-color="#808080" stop-opacity="0.25"/>
<stop offset="0.54" stop-color="#808080" stop-opacity="0.12"/>
<stop offset="1" stop-color="#808080" stop-opacity="0.1"/>
</linearGradient>
</defs>
</svg>
