<svg width="260" height="260" viewBox="0 0 260 260" fill="none" xmlns="http://www.w3.org/2000/svg">
<rect width="260" height="260" rx="5" fill="#003B72"/>
<path d="M100.68 217.144V199.288L104.208 199V216.856L100.68 217.144ZM111.963 217.264C110.875 217.264 109.955 216.992 109.203 216.448C108.451 215.888 108.075 214.904 108.075 213.496V206.032H106.203L106.347 203.488H108.171L108.507 200.56L111.435 200.152V203.488H114.219L114.075 206.032H111.459V213.472C111.459 213.952 111.579 214.296 111.819 214.504C112.059 214.712 112.411 214.816 112.875 214.816C113.131 214.816 113.563 214.768 114.171 214.672V217C114.107 217.016 113.851 217.064 113.403 217.144C112.971 217.224 112.491 217.264 111.963 217.264ZM120.299 217.312C118.699 217.312 117.475 216.68 116.627 215.416C115.779 214.136 115.355 212.44 115.355 210.328C115.355 208.184 115.787 206.48 116.651 205.216C117.515 203.952 118.771 203.32 120.419 203.32C121.987 203.32 123.187 203.952 124.019 205.216C124.851 206.48 125.267 208.184 125.267 210.328C125.267 210.456 125.243 210.552 125.195 210.616C125.147 210.664 125.123 210.696 125.123 210.712H118.715C118.715 211.752 118.851 212.704 119.123 213.568C119.395 214.416 119.811 214.84 120.371 214.84C120.995 214.84 121.459 214.48 121.763 213.76C122.067 213.04 122.227 212.664 122.243 212.632L124.787 213.592C124.451 214.744 123.915 215.656 123.179 216.328C122.443 216.984 121.483 217.312 120.299 217.312ZM121.955 208.768C121.955 207.808 121.827 207.048 121.571 206.488C121.315 205.928 120.915 205.648 120.371 205.648C120.099 205.648 119.835 205.784 119.579 206.056C119.323 206.328 119.115 206.704 118.955 207.184C118.795 207.664 118.715 208.192 118.715 208.768H121.955ZM127.3 203.776L130.588 203.488V205.216C131.084 204.64 131.652 204.184 132.292 203.848C132.948 203.496 133.596 203.32 134.236 203.32C135.244 203.32 135.908 204.024 136.228 205.432C137.284 204.024 138.468 203.32 139.78 203.32C140.644 203.32 141.26 203.664 141.628 204.352C141.996 205.04 142.18 206.064 142.18 207.424V216.856L138.868 217.144V207.592C138.868 207.16 138.788 206.824 138.628 206.584C138.468 206.328 138.284 206.2 138.076 206.2C137.74 206.2 137.42 206.296 137.116 206.488C136.828 206.664 136.58 206.888 136.372 207.16V216.856L133.084 217.144V207.568C133.084 207.12 133.012 206.784 132.868 206.56C132.74 206.32 132.588 206.2 132.412 206.2C132.092 206.2 131.764 206.296 131.428 206.488C131.092 206.68 130.812 206.904 130.588 207.16V216.856L127.3 217.144V203.776ZM149.027 217.312C147.699 217.312 146.627 217.016 145.811 216.424C144.995 215.816 144.467 214.976 144.227 213.904L146.843 213.04C146.907 213.344 147.027 213.616 147.203 213.856C147.571 214.384 148.107 214.648 148.811 214.648C149.211 214.648 149.595 214.56 149.963 214.384C150.331 214.208 150.515 213.936 150.515 213.568C150.515 213.072 150.171 212.688 149.483 212.416L146.651 211.264C145.899 210.944 145.323 210.464 144.923 209.824C144.523 209.184 144.323 208.4 144.323 207.472C144.323 206.608 144.531 205.864 144.947 205.24C145.379 204.616 145.939 204.144 146.627 203.824C147.331 203.488 148.083 203.32 148.883 203.32C149.891 203.32 150.819 203.616 151.667 204.208C152.515 204.784 153.083 205.576 153.371 206.584L150.587 207.448C150.523 207.176 150.411 206.904 150.251 206.632C149.899 206.088 149.451 205.816 148.907 205.816C148.507 205.816 148.163 205.912 147.875 206.104C147.587 206.28 147.443 206.544 147.443 206.896C147.443 207.312 147.835 207.696 148.619 208.048L151.019 209.032C151.867 209.432 152.531 209.936 153.011 210.544C153.491 211.152 153.731 211.968 153.731 212.992C153.731 213.92 153.507 214.712 153.059 215.368C152.611 216.008 152.027 216.496 151.307 216.832C150.587 217.152 149.827 217.312 149.027 217.312Z" fill="white"/>
<path d="M84.6055 31H72.0371V39.6133H84.6055C86.9155 39.6133 88.7949 41.5452 88.7949 43.9199V147.854C88.7949 153.803 92.7288 158.824 98.0623 160.318C97.4914 161.793 97.1738 163.398 97.1738 165.08C97.1738 172.204 102.812 178 109.742 178C116.672 178 122.311 172.204 122.311 165.08C122.311 163.57 122.055 162.121 121.59 160.771H148.168C147.703 162.121 147.448 163.57 147.448 165.08C147.448 172.204 153.086 178 160.016 178C166.946 178 172.584 172.204 172.584 165.08C172.584 163.57 172.329 162.121 171.864 160.773H180.963V152.16H172.584V100.193H164.205V65.7402H113.932V100.193H105.553V152.16H101.363C99.0532 152.16 97.1738 150.228 97.1738 147.854V43.9199C97.1738 36.7959 91.5357 31 84.6055 31ZM113.932 165.08C113.932 167.455 112.052 169.387 109.742 169.387C107.432 169.387 105.553 167.455 105.553 165.08C105.553 162.705 107.432 160.773 109.742 160.773C112.052 160.773 113.932 162.705 113.932 165.08ZM164.205 165.08C164.205 167.455 162.326 169.387 160.016 169.387C157.706 169.387 155.826 167.455 155.826 165.08C155.826 162.705 157.706 160.773 160.016 160.773C162.326 160.773 164.205 162.705 164.205 165.08ZM122.311 74.3535H134.879V82.9668H143.258V74.3535H155.826V100.193C145.539 100.193 132.606 100.193 122.311 100.193V74.3535ZM134.879 108.807H143.258V117.42H134.879V108.807ZM126.5 108.807V126.033H151.637V108.807H164.205V152.16H113.932V108.807H126.5Z" fill="white"/>
</svg>
