<svg width="260" height="260" viewBox="0 0 260 260" fill="none" xmlns="http://www.w3.org/2000/svg">
<rect width="260" height="260" rx="5" fill="#003B72"/>
<path d="M20.432 217.336C18.976 217.336 17.744 216.936 16.736 216.136C15.744 215.32 15.016 214.232 14.552 212.872L17.528 211.48L17.816 211.96C18.28 212.76 18.72 213.384 19.136 213.832C19.568 214.28 20.104 214.504 20.744 214.504C21.16 214.504 21.528 214.304 21.848 213.904C22.184 213.504 22.352 213.064 22.352 212.584C22.352 212.136 22.24 211.728 22.016 211.36C21.792 210.992 21.504 210.696 21.152 210.472L18.008 208.6C17.096 208.088 16.368 207.44 15.824 206.656C15.28 205.872 15.008 204.992 15.008 204.016C15.008 202.976 15.248 202.048 15.728 201.232C16.224 200.416 16.888 199.784 17.72 199.336C18.568 198.888 19.52 198.664 20.576 198.664C21.808 198.664 22.856 198.968 23.72 199.576C24.584 200.184 25.224 201.088 25.64 202.288L22.664 203.632C22.6 203.504 22.464 203.216 22.256 202.768C22.048 202.32 21.792 202 21.488 201.808C21.2 201.6 20.84 201.496 20.408 201.496C19.88 201.496 19.472 201.664 19.184 202C18.912 202.336 18.776 202.768 18.776 203.296C18.776 203.68 18.88 204.032 19.088 204.352C19.312 204.656 19.576 204.896 19.88 205.072L22.784 206.776C24.928 207.992 26.056 209.592 26.168 211.576C26.168 212.712 25.912 213.72 25.4 214.6C24.904 215.464 24.216 216.136 23.336 216.616C22.472 217.096 21.504 217.336 20.432 217.336ZM32.6529 217.312C31.0369 217.312 29.7889 216.672 28.9089 215.392C28.0449 214.112 27.6129 212.408 27.6129 210.28C27.6129 208.168 28.0449 206.48 28.9089 205.216C29.7729 203.952 31.0209 203.32 32.6529 203.32C34.2689 203.32 35.5169 203.952 36.3969 205.216C37.2929 206.48 37.7409 208.168 37.7409 210.28C37.7409 212.392 37.2929 214.096 36.3969 215.392C35.5169 216.672 34.2689 217.312 32.6529 217.312ZM32.6529 214.816C33.3729 214.816 33.8369 214.376 34.0449 213.496C34.2529 212.616 34.3569 211.536 34.3569 210.256C34.3569 208.976 34.2529 207.896 34.0449 207.016C33.8369 206.136 33.3729 205.696 32.6529 205.696C31.9329 205.696 31.4769 206.112 31.2849 206.944C31.0929 207.776 30.9969 208.792 30.9969 209.992C30.9969 211.464 31.0929 212.64 31.2849 213.52C31.4769 214.384 31.9329 214.816 32.6529 214.816ZM40.0505 217.144V199.432L43.4105 199V216.856L40.0505 217.144ZM46.3552 201.76V198.28L49.7152 198.04V201.616L46.3552 201.76ZM46.3312 217.144V203.776L49.6912 203.488V216.856L46.3312 217.144ZM56.8119 217.312C55.7879 217.312 54.9079 216.992 54.1719 216.352C53.4519 215.712 52.9079 214.864 52.5399 213.808C52.1719 212.752 51.9879 211.608 51.9879 210.376C51.9879 209.16 52.1639 208.016 52.5159 206.944C52.8839 205.872 53.4359 205 54.1719 204.328C54.9079 203.656 55.8119 203.32 56.8839 203.32C57.6999 203.32 58.4279 203.528 59.0679 203.944C59.7239 204.344 60.2359 204.912 60.6039 205.648C60.9719 206.384 61.1719 207.224 61.2039 208.168L58.0119 208.312C58.0119 208.248 57.9799 207.992 57.9159 207.544C57.8679 207.096 57.7479 206.728 57.5559 206.44C57.3799 206.152 57.1479 206.008 56.8599 206.008C56.2199 206.008 55.8119 206.448 55.6359 207.328C55.4599 208.192 55.3719 209.168 55.3719 210.256C55.3719 211.328 55.4599 212.304 55.6359 213.184C55.8279 214.048 56.2679 214.48 56.9559 214.48C57.8199 214.48 58.2679 213.632 58.2999 211.936L61.1319 212.248C60.9239 213.912 60.5079 215.176 59.8839 216.04C59.2599 216.888 58.2359 217.312 56.8119 217.312ZM63.3474 201.76V198.28L66.7074 198.04V201.616L63.3474 201.76ZM63.3234 217.144V203.776L66.6834 203.488V216.856L63.3234 217.144ZM74.2361 217.264C73.1481 217.264 72.2281 216.992 71.4761 216.448C70.7241 215.888 70.3481 214.904 70.3481 213.496V206.032H68.4761L68.6201 203.488H70.4441L70.7801 200.56L73.7081 200.152V203.488H76.4921L76.3481 206.032H73.7321V213.472C73.7321 213.952 73.8521 214.296 74.0921 214.504C74.3321 214.712 74.6841 214.816 75.1481 214.816C75.4041 214.816 75.8361 214.768 76.4441 214.672V217C76.3801 217.016 76.1241 217.064 75.6761 217.144C75.2441 217.224 74.7641 217.264 74.2361 217.264ZM81.1805 217.312C80.3005 217.312 79.5805 217.008 79.0205 216.4C78.4605 215.776 78.1805 214.944 78.1805 213.904V203.776L81.5405 203.488V212.536C81.5405 213.176 81.6445 213.64 81.8525 213.928C82.0605 214.2 82.3805 214.336 82.8125 214.336C83.1485 214.336 83.5085 214.256 83.8925 214.096C84.2765 213.92 84.6205 213.648 84.9245 213.28V203.776L88.3085 203.488V216.856L84.9245 217.144V215.416C84.3645 216.056 83.7485 216.536 83.0765 216.856C82.4205 217.16 81.7885 217.312 81.1805 217.312ZM94.502 217.312C91.91 217.312 90.614 214.96 90.614 210.256C90.614 207.808 90.934 206.04 91.574 204.952C92.214 203.864 93.214 203.32 94.574 203.32C95.15 203.32 95.702 203.512 96.23 203.896C96.758 204.264 97.142 204.728 97.382 205.288V199.432L100.766 199V216.856L98.222 217.144L97.382 215.32C97.222 215.912 96.926 216.392 96.494 216.76C96.062 217.128 95.398 217.312 94.502 217.312ZM95.75 214.912C96.23 214.912 96.622 214.648 96.926 214.12C97.23 213.576 97.382 212.664 97.382 211.384V206.872C96.918 206.152 96.374 205.792 95.75 205.792C95.222 205.792 94.83 205.984 94.574 206.368C94.334 206.736 94.174 207.224 94.094 207.832C94.03 208.44 93.998 209.248 93.998 210.256C93.998 211.28 94.03 212.112 94.094 212.752C94.174 213.392 94.342 213.912 94.598 214.312C94.854 214.712 95.238 214.912 95.75 214.912ZM112.783 217.312C110.191 217.312 108.895 214.96 108.895 210.256C108.895 207.808 109.215 206.04 109.855 204.952C110.495 203.864 111.495 203.32 112.855 203.32C113.431 203.32 113.983 203.512 114.511 203.896C115.039 204.264 115.423 204.728 115.663 205.288V199.432L119.047 199V216.856L116.503 217.144L115.663 215.32C115.503 215.912 115.207 216.392 114.775 216.76C114.343 217.128 113.679 217.312 112.783 217.312ZM114.031 214.912C114.511 214.912 114.903 214.648 115.207 214.12C115.511 213.576 115.663 212.664 115.663 211.384V206.872C115.199 206.152 114.655 205.792 114.031 205.792C113.503 205.792 113.111 205.984 112.855 206.368C112.615 206.736 112.455 207.224 112.375 207.832C112.311 208.44 112.279 209.248 112.279 210.256C112.279 211.28 112.311 212.112 112.375 212.752C112.455 213.392 112.623 213.912 112.879 214.312C113.135 214.712 113.519 214.912 114.031 214.912ZM126.213 217.312C124.613 217.312 123.389 216.68 122.541 215.416C121.693 214.136 121.269 212.44 121.269 210.328C121.269 208.184 121.701 206.48 122.565 205.216C123.429 203.952 124.685 203.32 126.333 203.32C127.901 203.32 129.101 203.952 129.933 205.216C130.765 206.48 131.181 208.184 131.181 210.328C131.181 210.456 131.157 210.552 131.109 210.616C131.061 210.664 131.037 210.696 131.037 210.712H124.629C124.629 211.752 124.765 212.704 125.037 213.568C125.309 214.416 125.725 214.84 126.285 214.84C126.909 214.84 127.373 214.48 127.677 213.76C127.981 213.04 128.141 212.664 128.157 212.632L130.701 213.592C130.365 214.744 129.829 215.656 129.093 216.328C128.357 216.984 127.397 217.312 126.213 217.312ZM127.869 208.768C127.869 207.808 127.741 207.048 127.485 206.488C127.229 205.928 126.829 205.648 126.285 205.648C126.013 205.648 125.749 205.784 125.493 206.056C125.237 206.328 125.029 206.704 124.869 207.184C124.709 207.664 124.629 208.192 124.629 208.768H127.869ZM143.249 217.312C142.225 217.312 141.345 216.992 140.609 216.352C139.889 215.712 139.345 214.864 138.977 213.808C138.609 212.752 138.425 211.608 138.425 210.376C138.425 209.16 138.601 208.016 138.953 206.944C139.321 205.872 139.873 205 140.609 204.328C141.345 203.656 142.249 203.32 143.321 203.32C144.137 203.32 144.865 203.528 145.505 203.944C146.161 204.344 146.673 204.912 147.041 205.648C147.409 206.384 147.609 207.224 147.641 208.168L144.449 208.312C144.449 208.248 144.417 207.992 144.353 207.544C144.305 207.096 144.185 206.728 143.993 206.44C143.817 206.152 143.585 206.008 143.297 206.008C142.657 206.008 142.249 206.448 142.073 207.328C141.897 208.192 141.809 209.168 141.809 210.256C141.809 211.328 141.897 212.304 142.073 213.184C142.265 214.048 142.705 214.48 143.393 214.48C144.257 214.48 144.705 213.632 144.737 211.936L147.569 212.248C147.361 213.912 146.945 215.176 146.321 216.04C145.697 216.888 144.673 217.312 143.249 217.312ZM154.153 217.312C152.537 217.312 151.289 216.672 150.409 215.392C149.545 214.112 149.113 212.408 149.113 210.28C149.113 208.168 149.545 206.48 150.409 205.216C151.273 203.952 152.521 203.32 154.153 203.32C155.769 203.32 157.017 203.952 157.897 205.216C158.793 206.48 159.241 208.168 159.241 210.28C159.241 212.392 158.793 214.096 157.897 215.392C157.017 216.672 155.769 217.312 154.153 217.312ZM154.153 214.816C154.873 214.816 155.337 214.376 155.545 213.496C155.753 212.616 155.857 211.536 155.857 210.256C155.857 208.976 155.753 207.896 155.545 207.016C155.337 206.136 154.873 205.696 154.153 205.696C153.433 205.696 152.977 206.112 152.785 206.944C152.593 207.776 152.497 208.792 152.497 209.992C152.497 211.464 152.593 212.64 152.785 213.52C152.977 214.384 153.433 214.816 154.153 214.816ZM166.135 217.264C165.047 217.264 164.127 216.992 163.375 216.448C162.623 215.888 162.247 214.904 162.247 213.496V206.032H160.375L160.519 203.488H162.343L162.679 200.56L165.607 200.152V203.488H168.391L168.247 206.032H165.631V213.472C165.631 213.952 165.751 214.296 165.991 214.504C166.231 214.712 166.583 214.816 167.047 214.816C167.303 214.816 167.735 214.768 168.343 214.672V217C168.279 217.016 168.023 217.064 167.575 217.144C167.143 217.224 166.663 217.264 166.135 217.264ZM170.199 201.76V198.28L173.559 198.04V201.616L170.199 201.76ZM170.175 217.144V203.776L173.535 203.488V216.856L170.175 217.144ZM176.072 217V214.888L180.608 206.128H176.264L176.552 203.488H184.352V205.504L179.888 214.336H184.712L184.424 217H176.072ZM188.883 217.312C188.307 217.312 187.787 217.136 187.323 216.784C186.859 216.416 186.499 215.928 186.243 215.32C185.987 214.696 185.859 214 185.859 213.232C185.859 211.488 186.451 210.264 187.635 209.56C188.835 208.84 190.227 208.432 191.811 208.336C191.811 207.472 191.755 206.832 191.643 206.416C191.531 206 191.259 205.792 190.827 205.792C190.459 205.792 190.179 205.936 189.987 206.224C189.795 206.512 189.675 206.88 189.627 207.328L186.339 206.752C186.499 205.52 187.003 204.64 187.851 204.112C188.699 203.584 189.691 203.32 190.827 203.32C192.283 203.32 193.371 203.704 194.091 204.472C194.827 205.24 195.195 206.24 195.195 207.472V214.456C195.195 215.208 195.315 216.008 195.555 216.856L192.267 217.144L191.883 215.488C191.595 216 191.171 216.432 190.611 216.784C190.051 217.136 189.475 217.312 188.883 217.312ZM190.443 214.912C190.715 214.912 190.939 214.848 191.115 214.72C191.307 214.592 191.539 214.384 191.811 214.096V210.352C191.011 210.352 190.371 210.568 189.891 211C189.411 211.432 189.171 212.104 189.171 213.016C189.171 213.624 189.275 214.096 189.483 214.432C189.707 214.752 190.027 214.912 190.443 214.912ZM202.148 217.312C201.124 217.312 200.244 216.992 199.508 216.352C198.788 215.712 198.244 214.864 197.876 213.808C197.508 212.752 197.324 211.608 197.324 210.376C197.324 209.16 197.5 208.016 197.852 206.944C198.22 205.872 198.772 205 199.508 204.328C200.244 203.656 201.148 203.32 202.22 203.32C203.036 203.32 203.764 203.528 204.404 203.944C205.06 204.344 205.572 204.912 205.94 205.648C206.308 206.384 206.508 207.224 206.54 208.168L203.348 208.312C203.348 208.248 203.316 207.992 203.252 207.544C203.204 207.096 203.084 206.728 202.892 206.44C202.716 206.152 202.484 206.008 202.196 206.008C201.556 206.008 201.148 206.448 200.972 207.328C200.796 208.192 200.708 209.168 200.708 210.256C200.708 211.328 200.796 212.304 200.972 213.184C201.164 214.048 201.604 214.48 202.292 214.48C203.156 214.48 203.604 213.632 203.636 211.936L206.468 212.248C206.26 213.912 205.844 215.176 205.22 216.04C204.596 216.888 203.572 217.312 202.148 217.312ZM208.683 201.76V198.28L212.043 198.04V201.616L208.683 201.76ZM208.659 217.144V203.776L212.019 203.488V216.856L208.659 217.144ZM219.356 217.312C217.74 217.312 216.492 216.672 215.612 215.392C214.748 214.112 214.316 212.408 214.316 210.28C214.316 208.168 214.748 206.48 215.612 205.216C216.476 203.952 217.724 203.32 219.356 203.32C220.972 203.32 222.22 203.952 223.1 205.216C223.996 206.48 224.444 208.168 224.444 210.28C224.444 212.392 223.996 214.096 223.1 215.392C222.22 216.672 220.972 217.312 219.356 217.312ZM219.356 214.816C220.076 214.816 220.54 214.376 220.748 213.496C220.956 212.616 221.06 211.536 221.06 210.256C221.06 208.976 220.956 207.896 220.748 207.016C220.54 206.136 220.076 205.696 219.356 205.696C218.636 205.696 218.18 206.112 217.988 206.944C217.796 207.776 217.7 208.792 217.7 209.992C217.7 211.464 217.796 212.64 217.988 213.52C218.18 214.384 218.636 214.816 219.356 214.816ZM219.764 202.48L218.516 201.28L221.636 196.552L224.108 198.832L219.764 202.48ZM226.73 203.776L230.09 203.488V205.216C230.778 204.608 231.45 204.144 232.106 203.824C232.778 203.488 233.394 203.32 233.954 203.32C234.802 203.32 235.49 203.632 236.018 204.256C236.562 204.864 236.834 205.688 236.834 206.728V216.856L233.474 217.144V208C233.474 206.8 233.066 206.2 232.25 206.2C231.978 206.2 231.674 206.28 231.338 206.44C231.018 206.6 230.602 206.832 230.09 207.136V216.856L226.73 217.144V203.776Z" fill="white"/>
<g clip-path="url(#clip0)">
<path fill-rule="evenodd" clip-rule="evenodd" d="M126.667 91.3333H140V71.3333H160V58H140V38H126.667V58H106.667V71.3333H126.667V91.3333ZM100 151.333C92.6667 151.333 86.7333 157.333 86.7333 164.667C86.7333 172 92.6667 178 100 178C107.333 178 113.333 172 113.333 164.667C113.333 157.333 107.333 151.333 100 151.333ZM166.667 151.333C159.333 151.333 153.4 157.333 153.4 164.667C153.4 172 159.333 178 166.667 178C174 178 180 172 180 164.667C180 157.333 174 151.333 166.667 151.333ZM107.333 118H157C162 118 166.4 115.267 168.667 111.133L194.4 64.4L182.8 58L157 104.667H110.2L81.8 44.6667H60V58H73.3333L97.3333 108.6L88.3333 124.867C83.4667 133.8 89.8667 144.667 100 144.667H180V131.333H100L107.333 118Z" fill="white"/>
</g>
<defs>
<clipPath id="clip0">
<rect width="140" height="140" fill="white" transform="translate(60 38)"/>
</clipPath>
</defs>
</svg>
