<svg width="260" height="260" viewBox="0 0 260 260" fill="none" xmlns="http://www.w3.org/2000/svg">
<rect width="260" height="260" rx="5" fill="#003B72"/>
<path d="M30.432 217.336C28.976 217.336 27.744 216.936 26.736 216.136C25.744 215.32 25.016 214.232 24.552 212.872L27.528 211.48L27.816 211.96C28.28 212.76 28.72 213.384 29.136 213.832C29.568 214.28 30.104 214.504 30.744 214.504C31.16 214.504 31.528 214.304 31.848 213.904C32.184 213.504 32.352 213.064 32.352 212.584C32.352 212.136 32.24 211.728 32.016 211.36C31.792 210.992 31.504 210.696 31.152 210.472L28.008 208.6C27.096 208.088 26.368 207.44 25.824 206.656C25.28 205.872 25.008 204.992 25.008 204.016C25.008 202.976 25.248 202.048 25.728 201.232C26.224 200.416 26.888 199.784 27.72 199.336C28.568 198.888 29.52 198.664 30.576 198.664C31.808 198.664 32.856 198.968 33.72 199.576C34.584 200.184 35.224 201.088 35.64 202.288L32.664 203.632C32.6 203.504 32.464 203.216 32.256 202.768C32.048 202.32 31.792 202 31.488 201.808C31.2 201.6 30.84 201.496 30.408 201.496C29.88 201.496 29.472 201.664 29.184 202C28.912 202.336 28.776 202.768 28.776 203.296C28.776 203.68 28.88 204.032 29.088 204.352C29.312 204.656 29.576 204.896 29.88 205.072L32.784 206.776C34.928 207.992 36.056 209.592 36.168 211.576C36.168 212.712 35.912 213.72 35.4 214.6C34.904 215.464 34.216 216.136 33.336 216.616C32.472 217.096 31.504 217.336 30.432 217.336ZM42.6529 217.312C41.0369 217.312 39.7889 216.672 38.9089 215.392C38.0449 214.112 37.6129 212.408 37.6129 210.28C37.6129 208.168 38.0449 206.48 38.9089 205.216C39.7729 203.952 41.0209 203.32 42.6529 203.32C44.2689 203.32 45.5169 203.952 46.3969 205.216C47.2929 206.48 47.7409 208.168 47.7409 210.28C47.7409 212.392 47.2929 214.096 46.3969 215.392C45.5169 216.672 44.2689 217.312 42.6529 217.312ZM42.6529 214.816C43.3729 214.816 43.8369 214.376 44.0449 213.496C44.2529 212.616 44.3569 211.536 44.3569 210.256C44.3569 208.976 44.2529 207.896 44.0449 207.016C43.8369 206.136 43.3729 205.696 42.6529 205.696C41.9329 205.696 41.4769 206.112 41.2849 206.944C41.0929 207.776 40.9969 208.792 40.9969 209.992C40.9969 211.464 41.0929 212.64 41.2849 213.52C41.4769 214.384 41.9329 214.816 42.6529 214.816ZM50.0505 217.144V199.432L53.4105 199V216.856L50.0505 217.144ZM56.3552 201.76V198.28L59.7152 198.04V201.616L56.3552 201.76ZM56.3312 217.144V203.776L59.6912 203.488V216.856L56.3312 217.144ZM66.8119 217.312C65.7879 217.312 64.9079 216.992 64.1719 216.352C63.4519 215.712 62.9079 214.864 62.5399 213.808C62.1719 212.752 61.9879 211.608 61.9879 210.376C61.9879 209.16 62.1639 208.016 62.5159 206.944C62.8839 205.872 63.4359 205 64.1719 204.328C64.9079 203.656 65.8119 203.32 66.8839 203.32C67.6999 203.32 68.4279 203.528 69.0679 203.944C69.7239 204.344 70.2359 204.912 70.6039 205.648C70.9719 206.384 71.1719 207.224 71.2039 208.168L68.0119 208.312C68.0119 208.248 67.9799 207.992 67.9159 207.544C67.8679 207.096 67.7479 206.728 67.5559 206.44C67.3799 206.152 67.1479 206.008 66.8599 206.008C66.2199 206.008 65.8119 206.448 65.6359 207.328C65.4599 208.192 65.3719 209.168 65.3719 210.256C65.3719 211.328 65.4599 212.304 65.6359 213.184C65.8279 214.048 66.2679 214.48 66.9559 214.48C67.8199 214.48 68.2679 213.632 68.2999 211.936L71.1319 212.248C70.9239 213.912 70.5079 215.176 69.8839 216.04C69.2599 216.888 68.2359 217.312 66.8119 217.312ZM73.3474 201.76V198.28L76.7074 198.04V201.616L73.3474 201.76ZM73.3234 217.144V203.776L76.6834 203.488V216.856L73.3234 217.144ZM84.2361 217.264C83.1481 217.264 82.2281 216.992 81.4761 216.448C80.7241 215.888 80.3481 214.904 80.3481 213.496V206.032H78.4761L78.6201 203.488H80.4441L80.7801 200.56L83.7081 200.152V203.488H86.4921L86.3481 206.032H83.7321V213.472C83.7321 213.952 83.8521 214.296 84.0921 214.504C84.3321 214.712 84.6841 214.816 85.1481 214.816C85.4041 214.816 85.8361 214.768 86.4441 214.672V217C86.3801 217.016 86.1241 217.064 85.6761 217.144C85.2441 217.224 84.7641 217.264 84.2361 217.264ZM91.1805 217.312C90.3005 217.312 89.5805 217.008 89.0205 216.4C88.4605 215.776 88.1805 214.944 88.1805 213.904V203.776L91.5405 203.488V212.536C91.5405 213.176 91.6445 213.64 91.8525 213.928C92.0605 214.2 92.3805 214.336 92.8125 214.336C93.1485 214.336 93.5085 214.256 93.8925 214.096C94.2765 213.92 94.6205 213.648 94.9245 213.28V203.776L98.3085 203.488V216.856L94.9245 217.144V215.416C94.3645 216.056 93.7485 216.536 93.0765 216.856C92.4205 217.16 91.7885 217.312 91.1805 217.312ZM104.502 217.312C101.91 217.312 100.614 214.96 100.614 210.256C100.614 207.808 100.934 206.04 101.574 204.952C102.214 203.864 103.214 203.32 104.574 203.32C105.15 203.32 105.702 203.512 106.23 203.896C106.758 204.264 107.142 204.728 107.382 205.288V199.432L110.766 199V216.856L108.222 217.144L107.382 215.32C107.222 215.912 106.926 216.392 106.494 216.76C106.062 217.128 105.398 217.312 104.502 217.312ZM105.75 214.912C106.23 214.912 106.622 214.648 106.926 214.12C107.23 213.576 107.382 212.664 107.382 211.384V206.872C106.918 206.152 106.374 205.792 105.75 205.792C105.222 205.792 104.83 205.984 104.574 206.368C104.334 206.736 104.174 207.224 104.094 207.832C104.03 208.44 103.998 209.248 103.998 210.256C103.998 211.28 104.03 212.112 104.094 212.752C104.174 213.392 104.342 213.912 104.598 214.312C104.854 214.712 105.238 214.912 105.75 214.912ZM117.932 217.312C116.332 217.312 115.108 216.68 114.26 215.416C113.412 214.136 112.988 212.44 112.988 210.328C112.988 208.184 113.42 206.48 114.284 205.216C115.148 203.952 116.404 203.32 118.052 203.32C119.62 203.32 120.82 203.952 121.652 205.216C122.484 206.48 122.9 208.184 122.9 210.328C122.9 210.456 122.876 210.552 122.828 210.616C122.78 210.664 122.756 210.696 122.756 210.712H116.348C116.348 211.752 116.484 212.704 116.756 213.568C117.028 214.416 117.444 214.84 118.004 214.84C118.628 214.84 119.092 214.48 119.396 213.76C119.7 213.04 119.86 212.664 119.876 212.632L122.42 213.592C122.084 214.744 121.548 215.656 120.812 216.328C120.076 216.984 119.116 217.312 117.932 217.312ZM119.588 208.768C119.588 207.808 119.46 207.048 119.204 206.488C118.948 205.928 118.548 205.648 118.004 205.648C117.732 205.648 117.468 205.784 117.212 206.056C116.956 206.328 116.748 206.704 116.588 207.184C116.428 207.664 116.348 208.192 116.348 208.768H119.588ZM128.965 217.312C127.637 217.312 126.565 217.016 125.749 216.424C124.933 215.816 124.405 214.976 124.165 213.904L126.781 213.04C126.845 213.344 126.965 213.616 127.141 213.856C127.509 214.384 128.045 214.648 128.749 214.648C129.149 214.648 129.533 214.56 129.901 214.384C130.269 214.208 130.453 213.936 130.453 213.568C130.453 213.072 130.109 212.688 129.421 212.416L126.589 211.264C125.837 210.944 125.261 210.464 124.861 209.824C124.461 209.184 124.261 208.4 124.261 207.472C124.261 206.608 124.469 205.864 124.885 205.24C125.317 204.616 125.877 204.144 126.565 203.824C127.269 203.488 128.021 203.32 128.821 203.32C129.829 203.32 130.757 203.616 131.605 204.208C132.453 204.784 133.021 205.576 133.309 206.584L130.525 207.448C130.461 207.176 130.349 206.904 130.189 206.632C129.837 206.088 129.389 205.816 128.845 205.816C128.445 205.816 128.101 205.912 127.813 206.104C127.525 206.28 127.381 206.544 127.381 206.896C127.381 207.312 127.773 207.696 128.557 208.048L130.957 209.032C131.805 209.432 132.469 209.936 132.949 210.544C133.429 211.152 133.669 211.968 133.669 212.992C133.669 213.92 133.445 214.712 132.997 215.368C132.549 216.008 131.965 216.496 131.245 216.832C130.525 217.152 129.765 217.312 128.965 217.312ZM146.732 217.336C144.668 217.336 143.212 216.4 142.364 214.528C141.532 212.656 141.116 210.352 141.116 207.616C141.116 206.144 141.308 204.728 141.692 203.368C142.076 202.008 142.692 200.888 143.54 200.008C144.404 199.112 145.492 198.664 146.804 198.664C147.812 198.664 148.692 198.976 149.444 199.6C150.212 200.224 150.796 201.04 151.196 202.048C151.612 203.04 151.82 204.08 151.82 205.168L148.412 205.336C148.412 204.616 148.292 203.8 148.052 202.888C147.812 201.96 147.332 201.496 146.612 201.496C145.86 201.496 145.34 202.096 145.052 203.296C144.764 204.496 144.62 205.936 144.62 207.616C144.62 209.696 144.78 211.368 145.1 212.632C145.42 213.88 146.036 214.504 146.948 214.504C147.588 214.504 148.044 214.128 148.316 213.376C148.588 212.608 148.764 211.68 148.844 210.592L151.844 210.88C151.844 212.032 151.652 213.104 151.268 214.096C150.884 215.072 150.308 215.856 149.54 216.448C148.772 217.04 147.836 217.336 146.732 217.336ZM158.551 217.312C156.935 217.312 155.687 216.672 154.807 215.392C153.943 214.112 153.511 212.408 153.511 210.28C153.511 208.168 153.943 206.48 154.807 205.216C155.671 203.952 156.919 203.32 158.551 203.32C160.167 203.32 161.415 203.952 162.295 205.216C163.191 206.48 163.639 208.168 163.639 210.28C163.639 212.392 163.191 214.096 162.295 215.392C161.415 216.672 160.167 217.312 158.551 217.312ZM158.551 214.816C159.271 214.816 159.735 214.376 159.943 213.496C160.151 212.616 160.255 211.536 160.255 210.256C160.255 208.976 160.151 207.896 159.943 207.016C159.735 206.136 159.271 205.696 158.551 205.696C157.831 205.696 157.375 206.112 157.183 206.944C156.991 207.776 156.895 208.792 156.895 209.992C156.895 211.464 156.991 212.64 157.183 213.52C157.375 214.384 157.831 214.816 158.551 214.816ZM170.533 217.264C169.445 217.264 168.525 216.992 167.773 216.448C167.021 215.888 166.645 214.904 166.645 213.496V206.032H164.773L164.917 203.488H166.741L167.077 200.56L170.005 200.152V203.488H172.789L172.645 206.032H170.029V213.472C170.029 213.952 170.149 214.296 170.389 214.504C170.629 214.712 170.981 214.816 171.445 214.816C171.701 214.816 172.133 214.768 172.741 214.672V217C172.677 217.016 172.421 217.064 171.973 217.144C171.541 217.224 171.061 217.264 170.533 217.264ZM174.597 201.76V198.28L177.957 198.04V201.616L174.597 201.76ZM174.573 217.144V203.776L177.933 203.488V216.856L174.573 217.144ZM180.47 217V214.888L185.006 206.128H180.662L180.95 203.488H188.75V205.504L184.286 214.336H189.11L188.822 217H180.47ZM193.281 217.312C192.705 217.312 192.185 217.136 191.721 216.784C191.257 216.416 190.897 215.928 190.641 215.32C190.385 214.696 190.257 214 190.257 213.232C190.257 211.488 190.849 210.264 192.033 209.56C193.233 208.84 194.625 208.432 196.209 208.336C196.209 207.472 196.153 206.832 196.041 206.416C195.929 206 195.657 205.792 195.225 205.792C194.857 205.792 194.577 205.936 194.385 206.224C194.193 206.512 194.073 206.88 194.025 207.328L190.737 206.752C190.897 205.52 191.401 204.64 192.249 204.112C193.097 203.584 194.089 203.32 195.225 203.32C196.681 203.32 197.769 203.704 198.489 204.472C199.225 205.24 199.593 206.24 199.593 207.472V214.456C199.593 215.208 199.713 216.008 199.953 216.856L196.665 217.144L196.281 215.488C195.993 216 195.569 216.432 195.009 216.784C194.449 217.136 193.873 217.312 193.281 217.312ZM194.841 214.912C195.113 214.912 195.337 214.848 195.513 214.72C195.705 214.592 195.937 214.384 196.209 214.096V210.352C195.409 210.352 194.769 210.568 194.289 211C193.809 211.432 193.569 212.104 193.569 213.016C193.569 213.624 193.673 214.096 193.881 214.432C194.105 214.752 194.425 214.912 194.841 214.912ZM205.658 217.312C203.066 217.312 201.77 214.96 201.77 210.256C201.77 207.808 202.09 206.04 202.73 204.952C203.37 203.864 204.37 203.32 205.73 203.32C206.306 203.32 206.858 203.512 207.386 203.896C207.914 204.264 208.298 204.728 208.538 205.288V199.432L211.922 199V216.856L209.378 217.144L208.538 215.32C208.378 215.912 208.082 216.392 207.65 216.76C207.218 217.128 206.554 217.312 205.658 217.312ZM206.906 214.912C207.386 214.912 207.778 214.648 208.082 214.12C208.386 213.576 208.538 212.664 208.538 211.384V206.872C208.074 206.152 207.53 205.792 206.906 205.792C206.378 205.792 205.986 205.984 205.73 206.368C205.49 206.736 205.33 207.224 205.25 207.832C205.186 208.44 205.154 209.248 205.154 210.256C205.154 211.28 205.186 212.112 205.25 212.752C205.33 213.392 205.498 213.912 205.754 214.312C206.01 214.712 206.394 214.912 206.906 214.912ZM217 217.312C216.424 217.312 215.904 217.136 215.44 216.784C214.976 216.416 214.616 215.928 214.36 215.32C214.104 214.696 213.976 214 213.976 213.232C213.976 211.488 214.568 210.264 215.752 209.56C216.952 208.84 218.344 208.432 219.928 208.336C219.928 207.472 219.872 206.832 219.76 206.416C219.648 206 219.376 205.792 218.944 205.792C218.576 205.792 218.296 205.936 218.104 206.224C217.912 206.512 217.792 206.88 217.744 207.328L214.456 206.752C214.616 205.52 215.12 204.64 215.968 204.112C216.816 203.584 217.808 203.32 218.944 203.32C220.4 203.32 221.488 203.704 222.208 204.472C222.944 205.24 223.312 206.24 223.312 207.472V214.456C223.312 215.208 223.432 216.008 223.672 216.856L220.384 217.144L220 215.488C219.712 216 219.288 216.432 218.728 216.784C218.168 217.136 217.592 217.312 217 217.312ZM218.56 214.912C218.832 214.912 219.056 214.848 219.232 214.72C219.424 214.592 219.656 214.384 219.928 214.096V210.352C219.128 210.352 218.488 210.568 218.008 211C217.528 211.432 217.288 212.104 217.288 213.016C217.288 213.624 217.392 214.096 217.6 214.432C217.824 214.752 218.144 214.912 218.56 214.912ZM230.121 217.312C228.793 217.312 227.721 217.016 226.905 216.424C226.089 215.816 225.561 214.976 225.321 213.904L227.937 213.04C228.001 213.344 228.121 213.616 228.297 213.856C228.665 214.384 229.201 214.648 229.905 214.648C230.305 214.648 230.689 214.56 231.057 214.384C231.425 214.208 231.609 213.936 231.609 213.568C231.609 213.072 231.265 212.688 230.577 212.416L227.745 211.264C226.993 210.944 226.417 210.464 226.017 209.824C225.617 209.184 225.417 208.4 225.417 207.472C225.417 206.608 225.625 205.864 226.041 205.24C226.473 204.616 227.033 204.144 227.721 203.824C228.425 203.488 229.177 203.32 229.977 203.32C230.985 203.32 231.913 203.616 232.761 204.208C233.609 204.784 234.177 205.576 234.465 206.584L231.681 207.448C231.617 207.176 231.505 206.904 231.345 206.632C230.993 206.088 230.545 205.816 230.001 205.816C229.601 205.816 229.257 205.912 228.969 206.104C228.681 206.28 228.537 206.544 228.537 206.896C228.537 207.312 228.929 207.696 229.713 208.048L232.113 209.032C232.961 209.432 233.625 209.936 234.105 210.544C234.585 211.152 234.825 211.968 234.825 212.992C234.825 213.92 234.601 214.712 234.153 215.368C233.705 216.008 233.121 216.496 232.401 216.832C231.681 217.152 230.921 217.312 230.121 217.312Z" fill="white"/>
<path d="M192.5 92.6666C171.792 92.6666 155 109.458 155 130.167C155 150.875 171.792 167.667 192.5 167.667C213.208 167.667 230 150.875 230 130.167C230 109.458 213.208 92.6666 192.5 92.6666ZM188.592 146.7L174.525 133.058L180.325 127.25L188.583 135.083L206.217 117.008L212.017 122.808L188.592 146.7ZM63.3333 126H105V134.333H63.3333V126ZM130 117.667H63.3333V109.333H130V117.667ZM142.517 151H50.8333C48.5333 151 46.6667 149.133 46.6667 146.833V92.6666H153.5C163.367 82.4166 177.183 75.9999 192.5 75.9999C199.883 75.9999 206.908 77.4916 213.333 80.1749V50.9999C213.333 41.7999 205.867 34.3333 196.667 34.3333H46.6667C37.4667 34.3333 30 41.7999 30 50.9999V151C30 160.2 37.4667 167.667 46.6667 167.667H153.5C148.892 162.867 145.117 157.242 142.517 151ZM46.6667 55.1666C46.6667 52.8666 48.5333 50.9999 50.8333 50.9999H192.5C194.8 50.9999 196.667 52.8666 196.667 55.1666V67.6666H46.6667V55.1666Z" fill="white"/>
</svg>
