<svg width="260" height="260" viewBox="0 0 260 260" fill="none" xmlns="http://www.w3.org/2000/svg">
<rect width="260" height="260" rx="5" fill="#003B72"/>
<path d="M73.576 217.336C71.512 217.336 70.056 216.4 69.208 214.528C68.376 212.656 67.96 210.352 67.96 207.616C67.96 206.144 68.152 204.728 68.536 203.368C68.92 202.008 69.536 200.888 70.384 200.008C71.248 199.112 72.336 198.664 73.648 198.664C74.656 198.664 75.536 198.976 76.288 199.6C77.056 200.224 77.64 201.04 78.04 202.048C78.456 203.04 78.664 204.08 78.664 205.168L75.256 205.336C75.256 204.616 75.136 203.8 74.896 202.888C74.656 201.96 74.176 201.496 73.456 201.496C72.704 201.496 72.184 202.096 71.896 203.296C71.608 204.496 71.464 205.936 71.464 207.616C71.464 209.696 71.624 211.368 71.944 212.632C72.264 213.88 72.88 214.504 73.792 214.504C74.432 214.504 74.888 214.128 75.16 213.376C75.432 212.608 75.608 211.68 75.688 210.592L78.688 210.88C78.688 212.032 78.496 213.104 78.112 214.096C77.728 215.072 77.152 215.856 76.384 216.448C75.616 217.04 74.68 217.336 73.576 217.336ZM85.3951 217.312C83.7791 217.312 82.5311 216.672 81.6511 215.392C80.7871 214.112 80.3551 212.408 80.3551 210.28C80.3551 208.168 80.7871 206.48 81.6511 205.216C82.5151 203.952 83.7631 203.32 85.3951 203.32C87.0111 203.32 88.2591 203.952 89.1391 205.216C90.0351 206.48 90.4831 208.168 90.4831 210.28C90.4831 212.392 90.0351 214.096 89.1391 215.392C88.2591 216.672 87.0111 217.312 85.3951 217.312ZM85.3951 214.816C86.1151 214.816 86.5791 214.376 86.7871 213.496C86.9951 212.616 87.0991 211.536 87.0991 210.256C87.0991 208.976 86.9951 207.896 86.7871 207.016C86.5791 206.136 86.1151 205.696 85.3951 205.696C84.6751 205.696 84.2191 206.112 84.0271 206.944C83.8351 207.776 83.7391 208.792 83.7391 209.992C83.7391 211.464 83.8351 212.64 84.0271 213.52C84.2191 214.384 84.6751 214.816 85.3951 214.816ZM97.3767 217.264C96.2887 217.264 95.3687 216.992 94.6167 216.448C93.8647 215.888 93.4887 214.904 93.4887 213.496V206.032H91.6167L91.7607 203.488H93.5847L93.9207 200.56L96.8487 200.152V203.488H99.6327L99.4887 206.032H96.8727V213.472C96.8727 213.952 96.9927 214.296 97.2327 214.504C97.4727 214.712 97.8247 214.816 98.2887 214.816C98.5447 214.816 98.9767 214.768 99.5847 214.672V217C99.5207 217.016 99.2647 217.064 98.8167 217.144C98.3847 217.224 97.9047 217.264 97.3767 217.264ZM101.441 201.76V198.28L104.801 198.04V201.616L101.441 201.76ZM101.417 217.144V203.776L104.777 203.488V216.856L101.417 217.144ZM107.314 217V214.888L111.85 206.128H107.506L107.794 203.488H115.594V205.504L111.13 214.336H115.954L115.666 217H107.314ZM120.125 217.312C119.549 217.312 119.029 217.136 118.565 216.784C118.101 216.416 117.741 215.928 117.485 215.32C117.229 214.696 117.101 214 117.101 213.232C117.101 211.488 117.693 210.264 118.877 209.56C120.077 208.84 121.469 208.432 123.053 208.336C123.053 207.472 122.997 206.832 122.885 206.416C122.773 206 122.501 205.792 122.069 205.792C121.701 205.792 121.421 205.936 121.229 206.224C121.037 206.512 120.917 206.88 120.869 207.328L117.581 206.752C117.741 205.52 118.245 204.64 119.093 204.112C119.941 203.584 120.933 203.32 122.069 203.32C123.525 203.32 124.613 203.704 125.333 204.472C126.069 205.24 126.437 206.24 126.437 207.472V214.456C126.437 215.208 126.557 216.008 126.797 216.856L123.509 217.144L123.125 215.488C122.837 216 122.413 216.432 121.853 216.784C121.293 217.136 120.717 217.312 120.125 217.312ZM121.685 214.912C121.957 214.912 122.181 214.848 122.357 214.72C122.549 214.592 122.781 214.384 123.053 214.096V210.352C122.253 210.352 121.613 210.568 121.133 211C120.653 211.432 120.413 212.104 120.413 213.016C120.413 213.624 120.517 214.096 120.725 214.432C120.949 214.752 121.269 214.912 121.685 214.912ZM133.39 217.312C132.366 217.312 131.486 216.992 130.75 216.352C130.03 215.712 129.486 214.864 129.118 213.808C128.75 212.752 128.566 211.608 128.566 210.376C128.566 209.16 128.742 208.016 129.094 206.944C129.462 205.872 130.014 205 130.75 204.328C131.486 203.656 132.39 203.32 133.462 203.32C134.278 203.32 135.006 203.528 135.646 203.944C136.302 204.344 136.814 204.912 137.182 205.648C137.55 206.384 137.75 207.224 137.782 208.168L134.59 208.312C134.59 208.248 134.558 207.992 134.494 207.544C134.446 207.096 134.326 206.728 134.134 206.44C133.958 206.152 133.726 206.008 133.438 206.008C132.798 206.008 132.39 206.448 132.214 207.328C132.038 208.192 131.95 209.168 131.95 210.256C131.95 211.328 132.038 212.304 132.214 213.184C132.406 214.048 132.846 214.48 133.534 214.48C134.398 214.48 134.846 213.632 134.878 211.936L137.71 212.248C137.502 213.912 137.086 215.176 136.462 216.04C135.838 216.888 134.814 217.312 133.39 217.312ZM139.926 201.76V198.28L143.286 198.04V201.616L139.926 201.76ZM139.902 217.144V203.776L143.262 203.488V216.856L139.902 217.144ZM150.598 217.312C148.982 217.312 147.734 216.672 146.854 215.392C145.99 214.112 145.558 212.408 145.558 210.28C145.558 208.168 145.99 206.48 146.854 205.216C147.718 203.952 148.966 203.32 150.598 203.32C152.214 203.32 153.462 203.952 154.342 205.216C155.238 206.48 155.686 208.168 155.686 210.28C155.686 212.392 155.238 214.096 154.342 215.392C153.462 216.672 152.214 217.312 150.598 217.312ZM150.598 214.816C151.318 214.816 151.782 214.376 151.99 213.496C152.198 212.616 152.302 211.536 152.302 210.256C152.302 208.976 152.198 207.896 151.99 207.016C151.782 206.136 151.318 205.696 150.598 205.696C149.878 205.696 149.422 206.112 149.23 206.944C149.038 207.776 148.942 208.792 148.942 209.992C148.942 211.464 149.038 212.64 149.23 213.52C149.422 214.384 149.878 214.816 150.598 214.816ZM151.006 202.48L149.758 201.28L152.878 196.552L155.35 198.832L151.006 202.48ZM157.972 203.776L161.332 203.488V205.216C162.02 204.608 162.692 204.144 163.348 203.824C164.02 203.488 164.636 203.32 165.196 203.32C166.044 203.32 166.732 203.632 167.26 204.256C167.804 204.864 168.076 205.688 168.076 206.728V216.856L164.716 217.144V208C164.716 206.8 164.308 206.2 163.492 206.2C163.22 206.2 162.916 206.28 162.58 206.44C162.26 206.6 161.844 206.832 161.332 207.136V216.856L157.972 217.144V203.776ZM175.205 217.312C173.605 217.312 172.381 216.68 171.533 215.416C170.685 214.136 170.261 212.44 170.261 210.328C170.261 208.184 170.693 206.48 171.557 205.216C172.421 203.952 173.677 203.32 175.325 203.32C176.893 203.32 178.093 203.952 178.925 205.216C179.757 206.48 180.173 208.184 180.173 210.328C180.173 210.456 180.149 210.552 180.101 210.616C180.053 210.664 180.029 210.696 180.029 210.712H173.621C173.621 211.752 173.757 212.704 174.029 213.568C174.301 214.416 174.717 214.84 175.277 214.84C175.901 214.84 176.365 214.48 176.669 213.76C176.973 213.04 177.133 212.664 177.149 212.632L179.693 213.592C179.357 214.744 178.821 215.656 178.085 216.328C177.349 216.984 176.389 217.312 175.205 217.312ZM176.861 208.768C176.861 207.808 176.733 207.048 176.477 206.488C176.221 205.928 175.821 205.648 175.277 205.648C175.005 205.648 174.741 205.784 174.485 206.056C174.229 206.328 174.021 206.704 173.861 207.184C173.701 207.664 173.621 208.192 173.621 208.768H176.861ZM186.238 217.312C184.91 217.312 183.838 217.016 183.022 216.424C182.206 215.816 181.678 214.976 181.438 213.904L184.054 213.04C184.118 213.344 184.238 213.616 184.414 213.856C184.782 214.384 185.318 214.648 186.022 214.648C186.422 214.648 186.806 214.56 187.174 214.384C187.542 214.208 187.726 213.936 187.726 213.568C187.726 213.072 187.382 212.688 186.694 212.416L183.862 211.264C183.11 210.944 182.534 210.464 182.134 209.824C181.734 209.184 181.534 208.4 181.534 207.472C181.534 206.608 181.742 205.864 182.158 205.24C182.59 204.616 183.15 204.144 183.838 203.824C184.542 203.488 185.294 203.32 186.094 203.32C187.102 203.32 188.03 203.616 188.878 204.208C189.726 204.784 190.294 205.576 190.582 206.584L187.798 207.448C187.734 207.176 187.622 206.904 187.462 206.632C187.11 206.088 186.662 205.816 186.118 205.816C185.718 205.816 185.374 205.912 185.086 206.104C184.798 206.28 184.654 206.544 184.654 206.896C184.654 207.312 185.046 207.696 185.83 208.048L188.23 209.032C189.078 209.432 189.742 209.936 190.222 210.544C190.702 211.152 190.942 211.968 190.942 212.992C190.942 213.92 190.718 214.712 190.27 215.368C189.822 216.008 189.238 216.496 188.518 216.832C187.798 217.152 187.038 217.312 186.238 217.312Z" fill="white"/>
<g clip-path="url(#clip0)">
<path d="M85.625 49.5625C75.5312 49.5625 67.8125 57.2812 67.8125 67.375V162.375C67.8125 172.469 75.5312 180.188 85.625 180.188H145C155.094 180.188 162.812 172.469 162.812 162.375V67.375C162.812 57.2812 155.094 49.5625 145 49.5625" stroke="white" stroke-width="8" stroke-miterlimit="10" stroke-linecap="round" stroke-linejoin="round"/>
<path d="M85.625 37.6875V108.938H145V37.6875C145 31.1562 139.656 25.8125 133.125 25.8125H73.75C80.2813 25.8125 85.625 31.1562 85.625 37.6875Z" stroke="white" stroke-width="8" stroke-miterlimit="10" stroke-linecap="round" stroke-linejoin="round"/>
<path d="M97.5 156.438H133.125" stroke="white" stroke-width="8" stroke-miterlimit="10" stroke-linecap="round" stroke-linejoin="round"/>
<path d="M162.812 67.375H210.312C216.844 67.375 222.188 72.7187 222.188 79.25V138.625C222.188 145.156 216.844 150.5 210.312 150.5H168.75" stroke="white" stroke-width="8" stroke-miterlimit="10" stroke-linecap="round" stroke-linejoin="round"/>
<path d="M222.188 91.125H168.75" stroke="white" stroke-width="8" stroke-miterlimit="10" stroke-linecap="round" stroke-linejoin="round"/>
<path d="M204.375 132.688V120.812H180.625V132.688H204.375Z" stroke="white" stroke-width="8" stroke-miterlimit="10" stroke-linecap="round" stroke-linejoin="round"/>
<path d="M115.312 43.625V49.5625" stroke="white" stroke-width="4" stroke-miterlimit="10" stroke-linecap="round" stroke-linejoin="round"/>
<path d="M115.312 85.1875V91.125" stroke="white" stroke-width="4" stroke-miterlimit="10" stroke-linecap="round" stroke-linejoin="round"/>
<path d="M121.25 49.5625H112.344C107.594 49.5625 103.438 53.7187 103.438 58.4688C103.438 63.2188 107.594 67.375 112.344 67.375H118.281C123.031 67.375 127.188 71.5312 127.188 76.2812C127.188 81.0313 123.031 85.1875 118.281 85.1875H109.375" stroke="white" stroke-width="6" stroke-miterlimit="10" stroke-linecap="round" stroke-linejoin="round"/>
</g>
<defs>
<clipPath id="clip0">
<rect width="190" height="190" fill="white" transform="translate(50 8)"/>
</clipPath>
</defs>
</svg>
