<svg width="260" height="260" viewBox="0 0 260 260" fill="none" xmlns="http://www.w3.org/2000/svg">
<rect width="260" height="260" rx="5" fill="#003B72"/>
<path d="M80.68 217V199H89.824L89.536 201.808H84.208V206.104H88L87.976 209.128H84.208V214.192H90.016L89.728 217H80.68ZM92.0656 203.776L95.3536 203.488V205.216C95.8496 204.64 96.4176 204.184 97.0576 203.848C97.7136 203.496 98.3616 203.32 99.0016 203.32C100.01 203.32 100.674 204.024 100.994 205.432C102.05 204.024 103.234 203.32 104.546 203.32C105.41 203.32 106.026 203.664 106.394 204.352C106.762 205.04 106.946 206.064 106.946 207.424V216.856L103.634 217.144V207.592C103.634 207.16 103.554 206.824 103.394 206.584C103.234 206.328 103.05 206.2 102.842 206.2C102.506 206.2 102.186 206.296 101.882 206.488C101.594 206.664 101.346 206.888 101.138 207.16V216.856L97.8496 217.144V207.568C97.8496 207.12 97.7776 206.784 97.6336 206.56C97.5056 206.32 97.3536 206.2 97.1776 206.2C96.8576 206.2 96.5296 206.296 96.1936 206.488C95.8576 206.68 95.5776 206.904 95.3536 207.16V216.856L92.0656 217.144V203.776ZM109.761 203.776L113.121 203.488V204.808C113.649 204.28 114.137 203.904 114.585 203.68C115.049 203.44 115.585 203.32 116.193 203.32C117.025 203.32 117.681 203.552 118.161 204.016C118.657 204.48 119.009 205.208 119.217 206.2C119.441 207.176 119.553 208.488 119.553 210.136C119.553 212.392 119.289 214.152 118.761 215.416C118.249 216.68 117.257 217.312 115.785 217.312C115.113 217.312 114.577 217.184 114.177 216.928C113.777 216.672 113.425 216.312 113.121 215.848V220.528L109.761 221.2V203.776ZM114.585 214.744C115.113 214.744 115.505 214.432 115.761 213.808C116.033 213.184 116.169 212.008 116.169 210.28C116.169 208.632 116.033 207.464 115.761 206.776C115.505 206.088 115.105 205.744 114.561 205.744C114.001 205.744 113.521 206.056 113.121 206.68V213.664C113.441 214.384 113.929 214.744 114.585 214.744ZM121.878 203.776L125.238 203.488V205.672C125.718 204.984 126.31 204.432 127.014 204.016C127.734 203.584 128.646 203.368 129.75 203.368V206.656C129.174 206.656 128.414 206.76 127.47 206.968C126.542 207.16 125.798 207.504 125.238 208V216.856L121.878 217.144V203.776ZM135.877 217.312C134.277 217.312 133.053 216.68 132.205 215.416C131.357 214.136 130.933 212.44 130.933 210.328C130.933 208.184 131.365 206.48 132.229 205.216C133.093 203.952 134.349 203.32 135.997 203.32C137.565 203.32 138.765 203.952 139.597 205.216C140.429 206.48 140.845 208.184 140.845 210.328C140.845 210.456 140.821 210.552 140.773 210.616C140.725 210.664 140.701 210.696 140.701 210.712H134.293C134.293 211.752 134.429 212.704 134.701 213.568C134.973 214.416 135.389 214.84 135.949 214.84C136.573 214.84 137.037 214.48 137.341 213.76C137.645 213.04 137.805 212.664 137.821 212.632L140.365 213.592C140.029 214.744 139.493 215.656 138.757 216.328C138.021 216.984 137.061 217.312 135.877 217.312ZM137.533 208.768C137.533 207.808 137.405 207.048 137.149 206.488C136.893 205.928 136.493 205.648 135.949 205.648C135.677 205.648 135.413 205.784 135.157 206.056C134.901 206.328 134.693 206.704 134.533 207.184C134.373 207.664 134.293 208.192 134.293 208.768H137.533ZM146.91 217.312C145.582 217.312 144.51 217.016 143.694 216.424C142.878 215.816 142.35 214.976 142.11 213.904L144.726 213.04C144.79 213.344 144.91 213.616 145.086 213.856C145.454 214.384 145.99 214.648 146.694 214.648C147.094 214.648 147.478 214.56 147.846 214.384C148.214 214.208 148.398 213.936 148.398 213.568C148.398 213.072 148.054 212.688 147.366 212.416L144.534 211.264C143.782 210.944 143.206 210.464 142.806 209.824C142.406 209.184 142.206 208.4 142.206 207.472C142.206 206.608 142.414 205.864 142.83 205.24C143.262 204.616 143.822 204.144 144.51 203.824C145.214 203.488 145.966 203.32 146.766 203.32C147.774 203.32 148.702 203.616 149.55 204.208C150.398 204.784 150.966 205.576 151.254 206.584L148.47 207.448C148.406 207.176 148.294 206.904 148.134 206.632C147.782 206.088 147.334 205.816 146.79 205.816C146.39 205.816 146.046 205.912 145.758 206.104C145.47 206.28 145.326 206.544 145.326 206.896C145.326 207.312 145.718 207.696 146.502 208.048L148.902 209.032C149.75 209.432 150.414 209.936 150.894 210.544C151.374 211.152 151.614 211.968 151.614 212.992C151.614 213.92 151.39 214.712 150.942 215.368C150.494 216.008 149.91 216.496 149.19 216.832C148.47 217.152 147.71 217.312 146.91 217.312ZM155.914 217.312C155.338 217.312 154.818 217.136 154.354 216.784C153.89 216.416 153.53 215.928 153.274 215.32C153.018 214.696 152.89 214 152.89 213.232C152.89 211.488 153.482 210.264 154.666 209.56C155.866 208.84 157.258 208.432 158.842 208.336C158.842 207.472 158.786 206.832 158.674 206.416C158.562 206 158.29 205.792 157.858 205.792C157.49 205.792 157.21 205.936 157.018 206.224C156.826 206.512 156.706 206.88 156.658 207.328L153.37 206.752C153.53 205.52 154.034 204.64 154.882 204.112C155.73 203.584 156.722 203.32 157.858 203.32C159.314 203.32 160.402 203.704 161.122 204.472C161.858 205.24 162.226 206.24 162.226 207.472V214.456C162.226 215.208 162.346 216.008 162.586 216.856L159.298 217.144L158.914 215.488C158.626 216 158.202 216.432 157.642 216.784C157.082 217.136 156.506 217.312 155.914 217.312ZM157.474 214.912C157.746 214.912 157.97 214.848 158.146 214.72C158.338 214.592 158.57 214.384 158.842 214.096V210.352C158.042 210.352 157.402 210.568 156.922 211C156.442 211.432 156.202 212.104 156.202 213.016C156.202 213.624 156.306 214.096 156.514 214.432C156.738 214.752 157.058 214.912 157.474 214.912ZM169.035 217.312C167.707 217.312 166.635 217.016 165.819 216.424C165.003 215.816 164.475 214.976 164.235 213.904L166.851 213.04C166.915 213.344 167.035 213.616 167.211 213.856C167.579 214.384 168.115 214.648 168.819 214.648C169.219 214.648 169.603 214.56 169.971 214.384C170.339 214.208 170.523 213.936 170.523 213.568C170.523 213.072 170.179 212.688 169.491 212.416L166.659 211.264C165.907 210.944 165.331 210.464 164.931 209.824C164.531 209.184 164.331 208.4 164.331 207.472C164.331 206.608 164.539 205.864 164.955 205.24C165.387 204.616 165.947 204.144 166.635 203.824C167.339 203.488 168.091 203.32 168.891 203.32C169.899 203.32 170.827 203.616 171.675 204.208C172.523 204.784 173.091 205.576 173.379 206.584L170.595 207.448C170.531 207.176 170.419 206.904 170.259 206.632C169.907 206.088 169.459 205.816 168.915 205.816C168.515 205.816 168.171 205.912 167.883 206.104C167.595 206.28 167.451 206.544 167.451 206.896C167.451 207.312 167.843 207.696 168.627 208.048L171.027 209.032C171.875 209.432 172.539 209.936 173.019 210.544C173.499 211.152 173.739 211.968 173.739 212.992C173.739 213.92 173.515 214.712 173.067 215.368C172.619 216.008 172.035 216.496 171.315 216.832C170.595 217.152 169.835 217.312 169.035 217.312Z" fill="white"/>
<path d="M87.8487 111.745H76.0282V123.086H87.8487V111.745Z" fill="white"/>
<path d="M108.736 111.745H96.9158V123.086H108.736V111.745Z" fill="white"/>
<path d="M87.8487 132.203H76.0282V143.544H87.8487V132.203Z" fill="white"/>
<path d="M108.736 132.203H96.9158V143.544H108.736V132.203Z" fill="white"/>
<path d="M178.902 132.204H167.081V143.545H178.902V132.204Z" fill="white"/>
<path d="M178.902 111.746H167.081V123.087H178.902V111.746Z" fill="white"/>
<path d="M114.473 71.9272H102.652V83.2686H114.473V71.9272Z" fill="white"/>
<path d="M135.361 71.9272H123.54V83.2686H135.361V71.9272Z" fill="white"/>
<path d="M152.35 87.1344V78.9334H152.333V35.8435L85.5759 60.1788V87.1341L58.3354 87.1331V168.155L201.664 168.157V87.1344H152.35ZM118.397 160.449L66.3677 160.448V94.8401L93.6083 94.8412V94.84L118.397 94.841L118.397 160.449ZM144.301 78.9333H144.099V160.449L123.752 160.449V89.7032L93.6083 89.7023V65.4949L144.301 47.0158L144.301 78.9333ZM193.632 160.45L152.35 160.45V94.841H193.632L193.632 160.45Z" fill="white"/>
</svg>
