<svg width="260" height="260" viewBox="0 0 260 260" fill="none" xmlns="http://www.w3.org/2000/svg">
<rect width="260" height="260" rx="5" fill="#003B72"/>
<path d="M35.288 217L39.08 199.216L44.096 199L47.984 216.856L44.144 217L43.496 213.136H39.2L38.432 217H35.288ZM39.848 210.256H42.848L41.192 201.64L39.848 210.256ZM49.7062 203.776L53.0662 203.488V204.808C53.5942 204.28 54.0822 203.904 54.5302 203.68C54.9942 203.44 55.5302 203.32 56.1382 203.32C56.9702 203.32 57.6262 203.552 58.1062 204.016C58.6022 204.48 58.9542 205.208 59.1622 206.2C59.3862 207.176 59.4982 208.488 59.4982 210.136C59.4982 212.392 59.2342 214.152 58.7062 215.416C58.1942 216.68 57.2022 217.312 55.7302 217.312C55.0582 217.312 54.5222 217.184 54.1222 216.928C53.7222 216.672 53.3702 216.312 53.0662 215.848V220.528L49.7062 221.2V203.776ZM54.5302 214.744C55.0582 214.744 55.4502 214.432 55.7062 213.808C55.9782 213.184 56.1142 212.008 56.1142 210.28C56.1142 208.632 55.9782 207.464 55.7062 206.776C55.4502 206.088 55.0502 205.744 54.5062 205.744C53.9462 205.744 53.4662 206.056 53.0662 206.68V213.664C53.3862 214.384 53.8742 214.744 54.5302 214.744ZM61.8234 203.776L65.1834 203.488V205.672C65.6634 204.984 66.2554 204.432 66.9594 204.016C67.6794 203.584 68.5914 203.368 69.6954 203.368V206.656C69.1194 206.656 68.3594 206.76 67.4154 206.968C66.4874 207.16 65.7434 207.504 65.1834 208V216.856L61.8234 217.144V203.776ZM75.9185 217.312C74.3025 217.312 73.0545 216.672 72.1745 215.392C71.3105 214.112 70.8785 212.408 70.8785 210.28C70.8785 208.168 71.3105 206.48 72.1745 205.216C73.0385 203.952 74.2865 203.32 75.9185 203.32C77.5345 203.32 78.7825 203.952 79.6625 205.216C80.5585 206.48 81.0065 208.168 81.0065 210.28C81.0065 212.392 80.5585 214.096 79.6625 215.392C78.7825 216.672 77.5345 217.312 75.9185 217.312ZM75.9185 214.816C76.6385 214.816 77.1025 214.376 77.3105 213.496C77.5185 212.616 77.6225 211.536 77.6225 210.256C77.6225 208.976 77.5185 207.896 77.3105 207.016C77.1025 206.136 76.6385 205.696 75.9185 205.696C75.1985 205.696 74.7425 206.112 74.5505 206.944C74.3585 207.776 74.2625 208.792 74.2625 209.992C74.2625 211.464 74.3585 212.64 74.5505 213.52C74.7425 214.384 75.1985 214.816 75.9185 214.816ZM89.5561 217.312C88.6601 217.312 87.9961 217.136 87.5641 216.784C87.1321 216.416 86.8281 215.928 86.6521 215.32L85.8361 217.144L83.2921 216.856V199.432L86.6521 199V205.216C87.0521 204.64 87.5561 204.184 88.1641 203.848C88.7721 203.496 89.4121 203.32 90.0841 203.32C91.1241 203.32 91.9401 203.872 92.5321 204.976C93.1241 206.064 93.4201 207.824 93.4201 210.256C93.4201 214.96 92.1321 217.312 89.5561 217.312ZM88.3081 214.912C89.0441 214.912 89.5161 214.52 89.7241 213.736C89.9481 212.952 90.0601 211.792 90.0601 210.256C90.0601 209.184 90.0121 208.368 89.9161 207.808C89.8361 207.232 89.6841 206.824 89.4601 206.584C89.2521 206.328 88.9401 206.2 88.5241 206.2C88.2361 206.2 87.9001 206.304 87.5161 206.512C87.1321 206.72 86.8441 206.92 86.6521 207.112V211.384C86.6521 212.664 86.8041 213.576 87.1081 214.12C87.4281 214.648 87.8281 214.912 88.3081 214.912ZM97.922 217.312C97.346 217.312 96.826 217.136 96.362 216.784C95.898 216.416 95.538 215.928 95.282 215.32C95.026 214.696 94.898 214 94.898 213.232C94.898 211.488 95.49 210.264 96.674 209.56C97.874 208.84 99.266 208.432 100.85 208.336C100.85 207.472 100.794 206.832 100.682 206.416C100.57 206 100.298 205.792 99.866 205.792C99.498 205.792 99.218 205.936 99.026 206.224C98.834 206.512 98.714 206.88 98.666 207.328L95.378 206.752C95.538 205.52 96.042 204.64 96.89 204.112C97.738 203.584 98.73 203.32 99.866 203.32C101.322 203.32 102.41 203.704 103.13 204.472C103.866 205.24 104.234 206.24 104.234 207.472V214.456C104.234 215.208 104.354 216.008 104.594 216.856L101.306 217.144L100.922 215.488C100.634 216 100.21 216.432 99.65 216.784C99.09 217.136 98.514 217.312 97.922 217.312ZM99.482 214.912C99.754 214.912 99.978 214.848 100.154 214.72C100.346 214.592 100.578 214.384 100.85 214.096V210.352C100.05 210.352 99.41 210.568 98.93 211C98.45 211.432 98.21 212.104 98.21 213.016C98.21 213.624 98.314 214.096 98.522 214.432C98.746 214.752 99.066 214.912 99.482 214.912ZM107.011 203.776L110.371 203.488V205.672C110.851 204.984 111.443 204.432 112.147 204.016C112.867 203.584 113.779 203.368 114.883 203.368V206.656C114.307 206.656 113.547 206.76 112.603 206.968C111.675 207.16 110.931 207.504 110.371 208V216.856L107.011 217.144V203.776ZM127.685 217.336C125.621 217.336 124.165 216.4 123.317 214.528C122.485 212.656 122.069 210.352 122.069 207.616C122.069 206.144 122.261 204.728 122.645 203.368C123.029 202.008 123.645 200.888 124.493 200.008C125.357 199.112 126.445 198.664 127.757 198.664C128.765 198.664 129.645 198.976 130.397 199.6C131.165 200.224 131.749 201.04 132.149 202.048C132.565 203.04 132.773 204.08 132.773 205.168L129.365 205.336C129.365 204.616 129.245 203.8 129.005 202.888C128.765 201.96 128.285 201.496 127.565 201.496C126.813 201.496 126.293 202.096 126.005 203.296C125.717 204.496 125.573 205.936 125.573 207.616C125.573 209.696 125.733 211.368 126.053 212.632C126.373 213.88 126.989 214.504 127.901 214.504C128.541 214.504 128.997 214.128 129.269 213.376C129.541 212.608 129.717 211.68 129.797 210.592L132.797 210.88C132.797 212.032 132.605 213.104 132.221 214.096C131.837 215.072 131.261 215.856 130.493 216.448C129.725 217.04 128.789 217.336 127.685 217.336ZM139.504 217.312C137.888 217.312 136.64 216.672 135.76 215.392C134.896 214.112 134.464 212.408 134.464 210.28C134.464 208.168 134.896 206.48 135.76 205.216C136.624 203.952 137.872 203.32 139.504 203.32C141.12 203.32 142.368 203.952 143.248 205.216C144.144 206.48 144.592 208.168 144.592 210.28C144.592 212.392 144.144 214.096 143.248 215.392C142.368 216.672 141.12 217.312 139.504 217.312ZM139.504 214.816C140.224 214.816 140.688 214.376 140.896 213.496C141.104 212.616 141.208 211.536 141.208 210.256C141.208 208.976 141.104 207.896 140.896 207.016C140.688 206.136 140.224 205.696 139.504 205.696C138.784 205.696 138.328 206.112 138.136 206.944C137.944 207.776 137.848 208.792 137.848 209.992C137.848 211.464 137.944 212.64 138.136 213.52C138.328 214.384 138.784 214.816 139.504 214.816ZM151.486 217.264C150.398 217.264 149.478 216.992 148.726 216.448C147.974 215.888 147.598 214.904 147.598 213.496V206.032H145.726L145.87 203.488H147.694L148.03 200.56L150.958 200.152V203.488H153.742L153.598 206.032H150.982V213.472C150.982 213.952 151.102 214.296 151.342 214.504C151.582 214.712 151.934 214.816 152.398 214.816C152.654 214.816 153.086 214.768 153.694 214.672V217C153.63 217.016 153.374 217.064 152.926 217.144C152.494 217.224 152.014 217.264 151.486 217.264ZM155.551 201.76V198.28L158.911 198.04V201.616L155.551 201.76ZM155.527 217.144V203.776L158.887 203.488V216.856L155.527 217.144ZM161.423 217V214.888L165.959 206.128H161.615L161.903 203.488H169.703V205.504L165.239 214.336H170.063L169.775 217H161.423ZM174.235 217.312C173.659 217.312 173.139 217.136 172.675 216.784C172.211 216.416 171.851 215.928 171.595 215.32C171.339 214.696 171.211 214 171.211 213.232C171.211 211.488 171.803 210.264 172.987 209.56C174.187 208.84 175.579 208.432 177.163 208.336C177.163 207.472 177.107 206.832 176.995 206.416C176.883 206 176.611 205.792 176.179 205.792C175.811 205.792 175.531 205.936 175.339 206.224C175.147 206.512 175.027 206.88 174.979 207.328L171.691 206.752C171.851 205.52 172.355 204.64 173.203 204.112C174.051 203.584 175.043 203.32 176.179 203.32C177.635 203.32 178.723 203.704 179.443 204.472C180.179 205.24 180.547 206.24 180.547 207.472V214.456C180.547 215.208 180.667 216.008 180.907 216.856L177.618 217.144L177.235 215.488C176.947 216 176.523 216.432 175.963 216.784C175.403 217.136 174.827 217.312 174.235 217.312ZM175.795 214.912C176.067 214.912 176.291 214.848 176.467 214.72C176.659 214.592 176.891 214.384 177.163 214.096V210.352C176.363 210.352 175.723 210.568 175.243 211C174.763 211.432 174.523 212.104 174.523 213.016C174.523 213.624 174.627 214.096 174.835 214.432C175.059 214.752 175.379 214.912 175.795 214.912ZM187.499 217.312C186.475 217.312 185.595 216.992 184.859 216.352C184.139 215.712 183.595 214.864 183.227 213.808C182.859 212.752 182.675 211.608 182.675 210.376C182.675 209.16 182.851 208.016 183.203 206.944C183.571 205.872 184.123 205 184.859 204.328C185.595 203.656 186.499 203.32 187.571 203.32C188.387 203.32 189.115 203.528 189.755 203.944C190.411 204.344 190.923 204.912 191.291 205.648C191.659 206.384 191.859 207.224 191.891 208.168L188.699 208.312C188.699 208.248 188.667 207.992 188.603 207.544C188.555 207.096 188.435 206.728 188.243 206.44C188.067 206.152 187.835 206.008 187.547 206.008C186.907 206.008 186.499 206.448 186.323 207.328C186.147 208.192 186.059 209.168 186.059 210.256C186.059 211.328 186.147 212.304 186.323 213.184C186.515 214.048 186.955 214.48 187.643 214.48C188.507 214.48 188.955 213.632 188.987 211.936L191.819 212.248C191.611 213.912 191.195 215.176 190.571 216.04C189.947 216.888 188.923 217.312 187.499 217.312ZM194.035 201.76V198.28L197.395 198.04V201.616L194.035 201.76ZM194.011 217.144V203.776L197.371 203.488V216.856L194.011 217.144ZM204.708 217.312C203.092 217.312 201.844 216.672 200.964 215.392C200.1 214.112 199.668 212.408 199.668 210.28C199.668 208.168 200.1 206.48 200.964 205.216C201.828 203.952 203.076 203.32 204.708 203.32C206.324 203.32 207.572 203.952 208.452 205.216C209.348 206.48 209.796 208.168 209.796 210.28C209.796 212.392 209.348 214.096 208.452 215.392C207.572 216.672 206.324 217.312 204.708 217.312ZM204.708 214.816C205.428 214.816 205.892 214.376 206.1 213.496C206.308 212.616 206.412 211.536 206.412 210.256C206.412 208.976 206.308 207.896 206.1 207.016C205.892 206.136 205.428 205.696 204.708 205.696C203.988 205.696 203.532 206.112 203.34 206.944C203.148 207.776 203.052 208.792 203.052 209.992C203.052 211.464 203.148 212.64 203.34 213.52C203.532 214.384 203.988 214.816 204.708 214.816ZM205.116 202.48L203.868 201.28L206.988 196.552L209.46 198.832L205.116 202.48ZM212.081 203.776L215.441 203.488V205.216C216.129 204.608 216.801 204.144 217.457 203.824C218.129 203.488 218.745 203.32 219.305 203.32C220.153 203.32 220.841 203.632 221.369 204.256C221.913 204.864 222.185 205.688 222.185 206.728V216.856L218.825 217.144V208C218.825 206.8 218.417 206.2 217.601 206.2C217.329 206.2 217.025 206.28 216.689 206.44C216.369 206.6 215.953 206.832 215.441 207.136V216.856L212.081 217.144V203.776Z" fill="white"/>
<path d="M192.5 92.6666C171.792 92.6666 155 109.458 155 130.167C155 150.875 171.792 167.667 192.5 167.667C213.208 167.667 230 150.875 230 130.167C230 109.458 213.208 92.6666 192.5 92.6666ZM188.592 146.7L174.525 133.058L180.325 127.25L188.583 135.083L206.217 117.008L212.017 122.808L188.592 146.7V146.7ZM63.3333 126H105V134.333H63.3333V126V126ZM130 117.667H63.3333V109.333H130V117.667ZM142.517 151H50.8333C48.5333 151 46.6667 149.133 46.6667 146.833V92.6666H153.5C163.367 82.4166 177.183 75.9999 192.5 75.9999C199.883 75.9999 206.908 77.4916 213.333 80.1749V50.9999C213.333 41.7999 205.867 34.3333 196.667 34.3333H46.6667C37.4667 34.3333 30 41.7999 30 50.9999V151C30 160.2 37.4667 167.667 46.6667 167.667H153.5C148.892 162.867 145.117 157.242 142.517 151V151ZM46.6667 55.1666C46.6667 52.8666 48.5333 50.9999 50.8333 50.9999H192.5C194.8 50.9999 196.667 52.8666 196.667 55.1666V67.6666H46.6667V55.1666V55.1666Z" fill="white"/>
</svg>
