<svg width="260" height="260" viewBox="0 0 260 260" fill="none" xmlns="http://www.w3.org/2000/svg">
<rect width="260" height="260" rx="5" fill="#003B72"/>
<path d="M94.68 198H98.712C100.888 198 102.472 198.424 103.464 199.272C104.456 200.12 104.952 201.24 104.952 202.632C104.952 203.512 104.776 204.288 104.424 204.96C104.088 205.632 103.616 206.12 103.008 206.424C103.776 206.824 104.384 207.36 104.832 208.032C105.28 208.688 105.504 209.664 105.504 210.96C105.504 214.32 102.856 216 97.56 216H94.68V198ZM98.928 205.32C99.856 205.32 100.544 205.168 100.992 204.864C101.456 204.56 101.688 203.936 101.688 202.992C101.688 202.16 101.424 201.592 100.896 201.288C100.384 200.968 99.68 200.808 98.784 200.808H98.088V205.32H98.928ZM98.856 213.192C100.008 213.192 100.84 212.912 101.352 212.352C101.864 211.776 102.12 211.152 102.12 210.48C102.12 209.44 101.84 208.752 101.28 208.416C100.736 208.064 99.968 207.888 98.976 207.888H98.208V213.192H98.856ZM109.891 216.312C109.315 216.312 108.795 216.136 108.331 215.784C107.867 215.416 107.507 214.928 107.251 214.32C106.995 213.696 106.867 213 106.867 212.232C106.867 210.488 107.459 209.264 108.643 208.56C109.843 207.84 111.235 207.432 112.819 207.336C112.819 206.472 112.763 205.832 112.651 205.416C112.539 205 112.267 204.792 111.835 204.792C111.467 204.792 111.187 204.936 110.995 205.224C110.803 205.512 110.683 205.88 110.635 206.328L107.347 205.752C107.507 204.52 108.011 203.64 108.859 203.112C109.707 202.584 110.699 202.32 111.835 202.32C113.291 202.32 114.379 202.704 115.099 203.472C115.835 204.24 116.203 205.24 116.203 206.472V213.456C116.203 214.208 116.323 215.008 116.563 215.856L113.275 216.144L112.891 214.488C112.603 215 112.179 215.432 111.619 215.784C111.059 216.136 110.483 216.312 109.891 216.312ZM111.451 213.912C111.723 213.912 111.947 213.848 112.123 213.72C112.315 213.592 112.547 213.384 112.819 213.096V209.352C112.019 209.352 111.379 209.568 110.899 210C110.419 210.432 110.179 211.104 110.179 212.016C110.179 212.624 110.283 213.096 110.491 213.432C110.715 213.752 111.035 213.912 111.451 213.912ZM123.156 216.312C122.132 216.312 121.252 215.992 120.516 215.352C119.796 214.712 119.252 213.864 118.884 212.808C118.516 211.752 118.332 210.608 118.332 209.376C118.332 208.16 118.508 207.016 118.86 205.944C119.228 204.872 119.78 204 120.516 203.328C121.252 202.656 122.156 202.32 123.228 202.32C124.044 202.32 124.772 202.528 125.412 202.944C126.068 203.344 126.58 203.912 126.948 204.648C127.316 205.384 127.516 206.224 127.548 207.168L124.356 207.312C124.356 207.248 124.324 206.992 124.26 206.544C124.212 206.096 124.092 205.728 123.9 205.44C123.724 205.152 123.492 205.008 123.204 205.008C122.564 205.008 122.156 205.448 121.98 206.328C121.804 207.192 121.716 208.168 121.716 209.256C121.716 210.328 121.804 211.304 121.98 212.184C122.172 213.048 122.612 213.48 123.3 213.48C124.164 213.48 124.612 212.632 124.644 210.936L127.476 211.248C127.268 212.912 126.852 214.176 126.228 215.04C125.604 215.888 124.58 216.312 123.156 216.312ZM136.867 216.312L134.131 209.592L133.027 211.056V216H129.667V198.432L133.027 198V206.928L136.459 202.488H140.107L136.315 207.36L139.843 215.304L136.867 216.312ZM144.571 216.312C143.691 216.312 142.971 216.008 142.411 215.4C141.851 214.776 141.571 213.944 141.571 212.904V202.776L144.931 202.488V211.536C144.931 212.176 145.035 212.64 145.243 212.928C145.451 213.2 145.771 213.336 146.203 213.336C146.539 213.336 146.899 213.256 147.283 213.096C147.667 212.92 148.011 212.648 148.315 212.28V202.776L151.699 202.488V215.856L148.315 216.144V214.416C147.755 215.056 147.139 215.536 146.467 215.856C145.811 216.16 145.179 216.312 144.571 216.312ZM154.605 202.776L157.965 202.488V203.808C158.493 203.28 158.981 202.904 159.429 202.68C159.893 202.44 160.429 202.32 161.037 202.32C161.869 202.32 162.525 202.552 163.005 203.016C163.501 203.48 163.853 204.208 164.061 205.2C164.285 206.176 164.397 207.488 164.397 209.136C164.397 211.392 164.133 213.152 163.605 214.416C163.093 215.68 162.101 216.312 160.629 216.312C159.957 216.312 159.421 216.184 159.021 215.928C158.621 215.672 158.269 215.312 157.965 214.848V219.528L154.605 220.2V202.776ZM159.429 213.744C159.957 213.744 160.349 213.432 160.605 212.808C160.877 212.184 161.013 211.008 161.013 209.28C161.013 207.632 160.877 206.464 160.605 205.776C160.349 205.088 159.949 204.744 159.405 204.744C158.845 204.744 158.365 205.056 157.965 205.68V212.664C158.285 213.384 158.773 213.744 159.429 213.744Z" fill="white"/>
<g clip-path="url(#clip0)">
<path d="M126.625 85.9375C152.513 85.9375 173.5 75.4442 173.5 62.5C173.5 49.5558 152.513 39.0625 126.625 39.0625C100.737 39.0625 79.75 49.5558 79.75 62.5C79.75 75.4442 100.737 85.9375 126.625 85.9375Z" stroke="white" stroke-width="2" stroke-miterlimit="10" stroke-linecap="round" stroke-linejoin="round"/>
<path d="M126.625 90.625C155.102 90.625 178.188 78.033 178.188 62.5C178.188 46.967 155.102 34.375 126.625 34.375C98.1478 34.375 75.0625 46.967 75.0625 62.5C75.0625 78.033 98.1478 90.625 126.625 90.625Z" fill="white"/>
<path d="M126.625 137.5C104.125 137.5 85.375 130.937 75.0625 120.625V137.5C75.0625 153.437 97.5625 165.625 126.625 165.625C130.844 165.625 135.062 165.156 139.281 164.687C132.25 157.656 128.031 147.812 126.625 137.5Z" fill="white"/>
<path d="M75.0625 83.1248V99.9998C75.0625 115.937 97.5625 128.125 126.625 128.125C126.625 128.125 126.625 128.125 127.094 128.125C128.031 116.875 133.656 106.562 141.156 99.0623C136.469 99.531 131.781 99.9998 126.625 99.9998C104.125 99.9998 85.375 93.4373 75.0625 83.1248Z" fill="white"/>
<path d="M209.594 122.969C209.125 120.625 206.313 119.219 203.969 119.688C200.688 120.625 198.344 119.688 197.875 118.75C197.406 117.813 197.875 115.469 200.219 112.656C202.094 110.781 202.094 107.969 200.219 106.094C195.531 101.406 189.906 98.1252 183.344 96.2502C181 95.7815 178.188 97.1877 177.719 99.5315C176.781 102.813 174.906 104.219 173.5 104.219C172.094 104.219 170.688 102.344 169.281 99.5315C168.344 97.1877 166 95.7815 163.656 96.2502C157.094 98.1252 151.469 101.406 146.781 106.094C144.906 107.969 144.906 110.781 146.781 112.656C149.125 115 149.594 117.344 149.125 118.75C148.656 119.688 146.313 120.625 143.031 119.688C140.688 119.219 137.875 120.625 137.406 122.969C136.469 126.25 136 129.531 136 132.813C136 136.094 136.469 139.375 137.406 142.656C137.875 145 140.688 146.406 143.031 145.938C146.313 145 148.656 145.938 149.125 146.875C149.594 147.813 149.125 150.156 146.781 152.969C144.906 154.844 144.906 157.656 146.781 159.531C151.469 164.219 157.094 167.5 163.656 169.375C166 169.844 168.813 168.438 169.281 166.094C170.219 162.813 172.094 161.406 173.5 161.406C174.906 161.406 176.313 163.281 177.719 166.094C178.188 167.969 180.063 169.375 182.406 169.375C182.875 169.375 183.344 169.375 183.813 169.375C190.375 167.5 196 164.219 200.688 159.531C202.563 157.656 202.563 154.844 200.688 152.969C198.344 150.625 197.875 148.281 198.344 146.875C198.813 145.938 201.156 145 204.438 145.938C206.781 146.406 209.594 145 210.063 142.656C211 139.375 211.469 136.094 211.469 132.813C211.469 129.531 210.531 126.25 209.594 122.969ZM173.5 146.875C165.531 146.875 159.438 140.781 159.438 132.813C159.438 124.844 165.531 118.75 173.5 118.75C181.469 118.75 187.563 124.844 187.563 132.813C187.563 140.781 181.469 146.875 173.5 146.875Z" fill="white"/>
</g>
<defs>
<clipPath id="clip0">
<rect width="150" height="150" fill="white" transform="translate(61 25)"/>
</clipPath>
</defs>
</svg>
