<svg width="260" height="260" viewBox="0 0 260 260" fill="none" xmlns="http://www.w3.org/2000/svg">
<rect width="260" height="260" rx="5" fill="#003B72"/>
<path d="M130 94.75C138.288 94.75 146.237 98.0424 152.097 103.903C157.958 109.763 161.25 117.712 161.25 126V163.5H148.75V126C148.75 121.217 146.923 116.616 143.642 113.136C140.361 109.656 135.874 107.562 131.1 107.281L130 107.25C125.217 107.25 120.616 109.077 117.136 112.358C113.656 115.639 111.562 120.126 111.281 124.9L111.25 126V163.5H98.75V126C98.75 117.712 102.042 109.763 107.903 103.903C113.763 98.0424 121.712 94.75 130 94.75ZM89.375 113.5C91.1187 113.5 92.8125 113.706 94.4375 114.088C93.3689 117.269 92.7361 120.58 92.5562 123.931L92.5 126V126.538C91.7816 126.28 91.0343 126.113 90.275 126.038L89.375 126C87.0445 126 84.7976 126.868 83.0724 128.435C81.3472 130.002 80.2675 132.155 80.0437 134.475L80 135.375V163.5H67.5V135.375C67.5 129.573 69.8047 124.009 73.907 119.907C78.0094 115.805 83.5734 113.5 89.375 113.5ZM170.625 113.5C176.427 113.5 181.991 115.805 186.093 119.907C190.195 124.009 192.5 129.573 192.5 135.375V163.5H180V135.375C180 133.044 179.132 130.798 177.565 129.072C175.998 127.347 173.845 126.267 171.525 126.044L170.625 126C169.531 126 168.481 126.187 167.5 126.531V126C167.5 121.838 166.825 117.838 165.569 114.1C167.188 113.706 168.881 113.5 170.625 113.5ZM89.375 76C93.519 76 97.4933 77.6462 100.424 80.5765C103.354 83.5067 105 87.481 105 91.625C105 95.769 103.354 99.7433 100.424 102.674C97.4933 105.604 93.519 107.25 89.375 107.25C85.231 107.25 81.2567 105.604 78.3265 102.674C75.3962 99.7433 73.75 95.769 73.75 91.625C73.75 87.481 75.3962 83.5067 78.3265 80.5765C81.2567 77.6462 85.231 76 89.375 76ZM170.625 76C174.769 76 178.743 77.6462 181.674 80.5765C184.604 83.5067 186.25 87.481 186.25 91.625C186.25 95.769 184.604 99.7433 181.674 102.674C178.743 105.604 174.769 107.25 170.625 107.25C166.481 107.25 162.507 105.604 159.576 102.674C156.646 99.7433 155 95.769 155 91.625C155 87.481 156.646 83.5067 159.576 80.5765C162.507 77.6462 166.481 76 170.625 76ZM89.375 88.5C88.5462 88.5 87.7513 88.8292 87.1653 89.4153C86.5792 90.0013 86.25 90.7962 86.25 91.625C86.25 92.4538 86.5792 93.2487 87.1653 93.8347C87.7513 94.4208 88.5462 94.75 89.375 94.75C90.2038 94.75 90.9987 94.4208 91.5847 93.8347C92.1708 93.2487 92.5 92.4538 92.5 91.625C92.5 90.7962 92.1708 90.0013 91.5847 89.4153C90.9987 88.8292 90.2038 88.5 89.375 88.5ZM170.625 88.5C169.796 88.5 169.001 88.8292 168.415 89.4153C167.829 90.0013 167.5 90.7962 167.5 91.625C167.5 92.4538 167.829 93.2487 168.415 93.8347C169.001 94.4208 169.796 94.75 170.625 94.75C171.454 94.75 172.249 94.4208 172.835 93.8347C173.421 93.2487 173.75 92.4538 173.75 91.625C173.75 90.7962 173.421 90.0013 172.835 89.4153C172.249 88.8292 171.454 88.5 170.625 88.5ZM130 38.5C136.63 38.5 142.989 41.1339 147.678 45.8223C152.366 50.5107 155 56.8696 155 63.5C155 70.1304 152.366 76.4893 147.678 81.1777C142.989 85.8661 136.63 88.5 130 88.5C123.37 88.5 117.011 85.8661 112.322 81.1777C107.634 76.4893 105 70.1304 105 63.5C105 56.8696 107.634 50.5107 112.322 45.8223C117.011 41.1339 123.37 38.5 130 38.5ZM130 51C126.685 51 123.505 52.317 121.161 54.6612C118.817 57.0054 117.5 60.1848 117.5 63.5C117.5 66.8152 118.817 69.9946 121.161 72.3388C123.505 74.683 126.685 76 130 76C133.315 76 136.495 74.683 138.839 72.3388C141.183 69.9946 142.5 66.8152 142.5 63.5C142.5 60.1848 141.183 57.0054 138.839 54.6612C136.495 52.317 133.315 51 130 51Z" fill="white"/>
<path d="M24.288 217L28.08 199.216L33.096 199L36.984 216.856L33.144 217L32.496 213.136H28.2L27.432 217H24.288ZM28.848 210.256H31.848L30.192 201.64L28.848 210.256ZM41.9942 217.312C39.4022 217.312 38.1062 214.96 38.1062 210.256C38.1062 207.808 38.4262 206.04 39.0662 204.952C39.7062 203.864 40.7062 203.32 42.0662 203.32C42.6422 203.32 43.1942 203.512 43.7222 203.896C44.2502 204.264 44.6342 204.728 44.8742 205.288V199.432L48.2582 199V216.856L45.7142 217.144L44.8742 215.32C44.7142 215.912 44.4182 216.392 43.9862 216.76C43.5542 217.128 42.8902 217.312 41.9942 217.312ZM43.2422 214.912C43.7222 214.912 44.1142 214.648 44.4182 214.12C44.7222 213.576 44.8742 212.664 44.8742 211.384V206.872C44.4102 206.152 43.8662 205.792 43.2422 205.792C42.7142 205.792 42.3222 205.984 42.0662 206.368C41.8262 206.736 41.6662 207.224 41.5862 207.832C41.5222 208.44 41.4902 209.248 41.4902 210.256C41.4902 211.28 41.5222 212.112 41.5862 212.752C41.6662 213.392 41.8342 213.912 42.0902 214.312C42.3462 214.712 42.7302 214.912 43.2422 214.912ZM51.1281 203.776L54.4161 203.488V205.216C54.9121 204.64 55.4801 204.184 56.1201 203.848C56.7761 203.496 57.4241 203.32 58.0641 203.32C59.0721 203.32 59.7361 204.024 60.0561 205.432C61.1121 204.024 62.2961 203.32 63.6081 203.32C64.4721 203.32 65.0881 203.664 65.4561 204.352C65.8241 205.04 66.0081 206.064 66.0081 207.424V216.856L62.6961 217.144V207.592C62.6961 207.16 62.6161 206.824 62.4561 206.584C62.2961 206.328 62.1121 206.2 61.9041 206.2C61.5681 206.2 61.2481 206.296 60.9441 206.488C60.6561 206.664 60.4081 206.888 60.2001 207.16V216.856L56.9121 217.144V207.568C56.9121 207.12 56.8401 206.784 56.6961 206.56C56.5681 206.32 56.4161 206.2 56.2401 206.2C55.9201 206.2 55.5921 206.296 55.2561 206.488C54.9201 206.68 54.6401 206.904 54.4161 207.16V216.856L51.1281 217.144V203.776ZM68.8474 201.76V198.28L72.2074 198.04V201.616L68.8474 201.76ZM68.8234 217.144V203.776L72.1834 203.488V216.856L68.8234 217.144ZM75.1281 203.776L78.4881 203.488V205.216C79.1761 204.608 79.8481 204.144 80.5041 203.824C81.1761 203.488 81.7921 203.32 82.3521 203.32C83.2001 203.32 83.8881 203.632 84.4161 204.256C84.9601 204.864 85.2321 205.688 85.2321 206.728V216.856L81.8721 217.144V208C81.8721 206.8 81.4641 206.2 80.6481 206.2C80.3761 206.2 80.0721 206.28 79.7361 206.44C79.4161 206.6 79.0001 206.832 78.4881 207.136V216.856L75.1281 217.144V203.776ZM88.0896 201.76V198.28L91.4496 198.04V201.616L88.0896 201.76ZM88.0656 217.144V203.776L91.4256 203.488V216.856L88.0656 217.144ZM98.4023 217.312C97.0743 217.312 96.0023 217.016 95.1863 216.424C94.3703 215.816 93.8423 214.976 93.6023 213.904L96.2183 213.04C96.2823 213.344 96.4023 213.616 96.5783 213.856C96.9463 214.384 97.4823 214.648 98.1863 214.648C98.5863 214.648 98.9703 214.56 99.3383 214.384C99.7063 214.208 99.8903 213.936 99.8903 213.568C99.8903 213.072 99.5463 212.688 98.8583 212.416L96.0263 211.264C95.2743 210.944 94.6983 210.464 94.2983 209.824C93.8983 209.184 93.6982 208.4 93.6982 207.472C93.6982 206.608 93.9063 205.864 94.3223 205.24C94.7543 204.616 95.3143 204.144 96.0023 203.824C96.7063 203.488 97.4583 203.32 98.2583 203.32C99.2663 203.32 100.194 203.616 101.042 204.208C101.89 204.784 102.458 205.576 102.746 206.584L99.9622 207.448C99.8983 207.176 99.7863 206.904 99.6263 206.632C99.2743 206.088 98.8263 205.816 98.2823 205.816C97.8823 205.816 97.5383 205.912 97.2503 206.104C96.9623 206.28 96.8183 206.544 96.8183 206.896C96.8183 207.312 97.2103 207.696 97.9943 208.048L100.394 209.032C101.242 209.432 101.906 209.936 102.386 210.544C102.866 211.152 103.106 211.968 103.106 212.992C103.106 213.92 102.882 214.712 102.434 215.368C101.986 216.008 101.402 216.496 100.682 216.832C99.9623 217.152 99.2023 217.312 98.4023 217.312ZM109.806 217.264C108.718 217.264 107.798 216.992 107.046 216.448C106.294 215.888 105.918 214.904 105.918 213.496V206.032H104.046L104.19 203.488H106.014L106.35 200.56L109.278 200.152V203.488H112.062L111.918 206.032H109.302V213.472C109.302 213.952 109.422 214.296 109.662 214.504C109.902 214.712 110.254 214.816 110.718 214.816C110.974 214.816 111.406 214.768 112.014 214.672V217C111.95 217.016 111.694 217.064 111.246 217.144C110.814 217.224 110.334 217.264 109.806 217.264ZM113.847 203.776L117.207 203.488V205.672C117.687 204.984 118.279 204.432 118.983 204.016C119.703 203.584 120.615 203.368 121.719 203.368V206.656C121.143 206.656 120.383 206.76 119.439 206.968C118.511 207.16 117.767 207.504 117.207 208V216.856L113.847 217.144V203.776ZM125.758 217.312C125.182 217.312 124.662 217.136 124.198 216.784C123.734 216.416 123.374 215.928 123.118 215.32C122.862 214.696 122.734 214 122.734 213.232C122.734 211.488 123.326 210.264 124.51 209.56C125.71 208.84 127.102 208.432 128.686 208.336C128.686 207.472 128.63 206.832 128.518 206.416C128.406 206 128.134 205.792 127.702 205.792C127.334 205.792 127.054 205.936 126.862 206.224C126.67 206.512 126.55 206.88 126.502 207.328L123.214 206.752C123.374 205.52 123.878 204.64 124.726 204.112C125.574 203.584 126.566 203.32 127.702 203.32C129.158 203.32 130.246 203.704 130.966 204.472C131.702 205.24 132.07 206.24 132.07 207.472V214.456C132.07 215.208 132.19 216.008 132.43 216.856L129.142 217.144L128.758 215.488C128.47 216 128.046 216.432 127.486 216.784C126.926 217.136 126.35 217.312 125.758 217.312ZM127.318 214.912C127.59 214.912 127.814 214.848 127.99 214.72C128.182 214.592 128.414 214.384 128.686 214.096V210.352C127.886 210.352 127.246 210.568 126.766 211C126.286 211.432 126.046 212.104 126.046 213.016C126.046 213.624 126.15 214.096 126.358 214.432C126.582 214.752 126.902 214.912 127.318 214.912ZM134.847 203.776L138.207 203.488V205.672C138.687 204.984 139.279 204.432 139.983 204.016C140.703 203.584 141.615 203.368 142.719 203.368V206.656C142.143 206.656 141.383 206.76 140.439 206.968C139.511 207.16 138.767 207.504 138.207 208V216.856L134.847 217.144V203.776ZM150.625 199H152.881C154.689 199 156.129 199.08 157.201 199.24C158.273 199.384 159.217 199.848 160.033 200.632C160.865 201.416 161.281 202.672 161.281 204.4C161.281 205.968 160.929 207.16 160.225 207.976C159.537 208.776 158.681 209.304 157.657 209.56C156.649 209.8 155.481 209.92 154.153 209.92V216.856L150.625 217.144V199ZM154.777 207.064C155.705 207.064 156.433 206.872 156.961 206.488C157.505 206.104 157.777 205.4 157.777 204.376C157.777 203.368 157.529 202.688 157.033 202.336C156.537 201.984 155.753 201.808 154.681 201.808H154.177V207.064H154.777ZM167.502 217.312C165.902 217.312 164.678 216.68 163.83 215.416C162.982 214.136 162.558 212.44 162.558 210.328C162.558 208.184 162.99 206.48 163.854 205.216C164.718 203.952 165.974 203.32 167.622 203.32C169.19 203.32 170.39 203.952 171.222 205.216C172.054 206.48 172.47 208.184 172.47 210.328C172.47 210.456 172.446 210.552 172.398 210.616C172.35 210.664 172.326 210.696 172.326 210.712H165.918C165.918 211.752 166.054 212.704 166.326 213.568C166.598 214.416 167.014 214.84 167.574 214.84C168.198 214.84 168.662 214.48 168.966 213.76C169.27 213.04 169.43 212.664 169.446 212.632L171.99 213.592C171.654 214.744 171.118 215.656 170.382 216.328C169.646 216.984 168.686 217.312 167.502 217.312ZM169.158 208.768C169.158 207.808 169.03 207.048 168.774 206.488C168.518 205.928 168.118 205.648 167.574 205.648C167.302 205.648 167.038 205.784 166.782 206.056C166.526 206.328 166.318 206.704 166.158 207.184C165.998 207.664 165.918 208.192 165.918 208.768H169.158ZM174.503 203.776L177.863 203.488V205.672C178.343 204.984 178.935 204.432 179.639 204.016C180.359 203.584 181.271 203.368 182.375 203.368V206.656C181.799 206.656 181.039 206.76 180.095 206.968C179.167 207.16 178.423 207.504 177.863 208V216.856L174.503 217.144V203.776ZM188.238 217.312C186.91 217.312 185.838 217.016 185.022 216.424C184.206 215.816 183.678 214.976 183.438 213.904L186.054 213.04C186.118 213.344 186.238 213.616 186.414 213.856C186.782 214.384 187.318 214.648 188.022 214.648C188.422 214.648 188.806 214.56 189.174 214.384C189.542 214.208 189.726 213.936 189.726 213.568C189.726 213.072 189.382 212.688 188.694 212.416L185.862 211.264C185.11 210.944 184.534 210.464 184.134 209.824C183.734 209.184 183.534 208.4 183.534 207.472C183.534 206.608 183.742 205.864 184.158 205.24C184.59 204.616 185.15 204.144 185.838 203.824C186.542 203.488 187.294 203.32 188.094 203.32C189.102 203.32 190.03 203.616 190.878 204.208C191.726 204.784 192.294 205.576 192.582 206.584L189.798 207.448C189.734 207.176 189.622 206.904 189.462 206.632C189.11 206.088 188.662 205.816 188.118 205.816C187.718 205.816 187.374 205.912 187.086 206.104C186.798 206.28 186.654 206.544 186.654 206.896C186.654 207.312 187.046 207.696 187.83 208.048L190.23 209.032C191.078 209.432 191.742 209.936 192.222 210.544C192.702 211.152 192.942 211.968 192.942 212.992C192.942 213.92 192.718 214.712 192.27 215.368C191.822 216.008 191.238 216.496 190.518 216.832C189.798 217.152 189.038 217.312 188.238 217.312ZM199.426 217.312C197.81 217.312 196.562 216.672 195.682 215.392C194.818 214.112 194.386 212.408 194.386 210.28C194.386 208.168 194.818 206.48 195.682 205.216C196.546 203.952 197.794 203.32 199.426 203.32C201.042 203.32 202.29 203.952 203.17 205.216C204.066 206.48 204.514 208.168 204.514 210.28C204.514 212.392 204.066 214.096 203.17 215.392C202.29 216.672 201.042 217.312 199.426 217.312ZM199.426 214.816C200.146 214.816 200.61 214.376 200.818 213.496C201.026 212.616 201.13 211.536 201.13 210.256C201.13 208.976 201.026 207.896 200.818 207.016C200.61 206.136 200.146 205.696 199.426 205.696C198.706 205.696 198.25 206.112 198.058 206.944C197.866 207.776 197.77 208.792 197.77 209.992C197.77 211.464 197.866 212.64 198.058 213.52C198.25 214.384 198.706 214.816 199.426 214.816ZM206.8 203.776L210.16 203.488V205.216C210.848 204.608 211.52 204.144 212.176 203.824C212.848 203.488 213.464 203.32 214.024 203.32C214.872 203.32 215.56 203.632 216.088 204.256C216.632 204.864 216.904 205.688 216.904 206.728V216.856L213.544 217.144V208C213.544 206.8 213.136 206.2 212.32 206.2C212.048 206.2 211.744 206.28 211.408 206.44C211.088 206.6 210.672 206.832 210.16 207.136V216.856L206.8 217.144V203.776ZM221.945 217.312C221.369 217.312 220.849 217.136 220.385 216.784C219.921 216.416 219.561 215.928 219.305 215.32C219.049 214.696 218.921 214 218.921 213.232C218.921 211.488 219.513 210.264 220.697 209.56C221.897 208.84 223.289 208.432 224.873 208.336C224.873 207.472 224.817 206.832 224.705 206.416C224.593 206 224.321 205.792 223.889 205.792C223.521 205.792 223.241 205.936 223.049 206.224C222.857 206.512 222.737 206.88 222.689 207.328L219.401 206.752C219.561 205.52 220.065 204.64 220.913 204.112C221.761 203.584 222.753 203.32 223.889 203.32C225.345 203.32 226.433 203.704 227.153 204.472C227.889 205.24 228.257 206.24 228.257 207.472V214.456C228.257 215.208 228.377 216.008 228.617 216.856L225.329 217.144L224.945 215.488C224.657 216 224.233 216.432 223.673 216.784C223.113 217.136 222.537 217.312 221.945 217.312ZM223.505 214.912C223.777 214.912 224.001 214.848 224.177 214.72C224.369 214.592 224.601 214.384 224.873 214.096V210.352C224.073 210.352 223.433 210.568 222.953 211C222.473 211.432 222.233 212.104 222.233 213.016C222.233 213.624 222.337 214.096 222.545 214.432C222.769 214.752 223.089 214.912 223.505 214.912ZM231.058 217.144V199.432L234.418 199V216.856L231.058 217.144Z" fill="white"/>
</svg>
