<svg width="260" height="260" viewBox="0 0 260 260" fill="none" xmlns="http://www.w3.org/2000/svg">
<rect width="260" height="260" rx="5" fill="#003B72"/>
<path d="M84.68 199H88.712C90.888 199 92.472 199.424 93.464 200.272C94.456 201.12 94.952 202.24 94.952 203.632C94.952 204.512 94.776 205.288 94.424 205.96C94.088 206.632 93.616 207.12 93.008 207.424C93.776 207.824 94.384 208.36 94.832 209.032C95.28 209.688 95.504 210.664 95.504 211.96C95.504 215.32 92.856 217 87.56 217H84.68V199ZM88.928 206.32C89.856 206.32 90.544 206.168 90.992 205.864C91.456 205.56 91.688 204.936 91.688 203.992C91.688 203.16 91.424 202.592 90.896 202.288C90.384 201.968 89.68 201.808 88.784 201.808H88.088V206.32H88.928ZM88.856 214.192C90.008 214.192 90.84 213.912 91.352 213.352C91.864 212.776 92.12 212.152 92.12 211.48C92.12 210.44 91.84 209.752 91.28 209.416C90.736 209.064 89.968 208.888 88.976 208.888H88.208V214.192H88.856ZM97.7068 201.76V198.28L101.067 198.04V201.616L97.7068 201.76ZM97.6828 217.144V203.776L101.043 203.488V216.856L97.6828 217.144ZM108.595 217.264C107.507 217.264 106.587 216.992 105.835 216.448C105.083 215.888 104.707 214.904 104.707 213.496V206.032H102.835L102.979 203.488H104.803L105.139 200.56L108.067 200.152V203.488H110.851L110.707 206.032H108.091V213.472C108.091 213.952 108.211 214.296 108.451 214.504C108.691 214.712 109.043 214.816 109.507 214.816C109.763 214.816 110.195 214.768 110.803 214.672V217C110.739 217.016 110.483 217.064 110.035 217.144C109.603 217.224 109.123 217.264 108.595 217.264ZM114.844 217.312C114.268 217.312 113.748 217.136 113.284 216.784C112.82 216.416 112.46 215.928 112.204 215.32C111.948 214.696 111.82 214 111.82 213.232C111.82 211.488 112.412 210.264 113.596 209.56C114.796 208.84 116.188 208.432 117.772 208.336C117.772 207.472 117.716 206.832 117.604 206.416C117.492 206 117.22 205.792 116.788 205.792C116.42 205.792 116.14 205.936 115.948 206.224C115.756 206.512 115.636 206.88 115.588 207.328L112.3 206.752C112.46 205.52 112.964 204.64 113.812 204.112C114.66 203.584 115.652 203.32 116.788 203.32C118.244 203.32 119.332 203.704 120.052 204.472C120.788 205.24 121.156 206.24 121.156 207.472V214.456C121.156 215.208 121.276 216.008 121.516 216.856L118.228 217.144L117.844 215.488C117.556 216 117.132 216.432 116.572 216.784C116.012 217.136 115.436 217.312 114.844 217.312ZM116.404 214.912C116.676 214.912 116.9 214.848 117.076 214.72C117.268 214.592 117.5 214.384 117.772 214.096V210.352C116.972 210.352 116.332 210.568 115.852 211C115.372 211.432 115.132 212.104 115.132 213.016C115.132 213.624 115.236 214.096 115.444 214.432C115.668 214.752 115.988 214.912 116.404 214.912ZM128.109 217.312C127.085 217.312 126.205 216.992 125.469 216.352C124.749 215.712 124.205 214.864 123.837 213.808C123.469 212.752 123.285 211.608 123.285 210.376C123.285 209.16 123.461 208.016 123.813 206.944C124.181 205.872 124.733 205 125.469 204.328C126.205 203.656 127.109 203.32 128.181 203.32C128.997 203.32 129.725 203.528 130.365 203.944C131.021 204.344 131.533 204.912 131.901 205.648C132.269 206.384 132.469 207.224 132.501 208.168L129.309 208.312C129.309 208.248 129.277 207.992 129.213 207.544C129.165 207.096 129.045 206.728 128.853 206.44C128.677 206.152 128.445 206.008 128.157 206.008C127.517 206.008 127.109 206.448 126.933 207.328C126.757 208.192 126.669 209.168 126.669 210.256C126.669 211.328 126.757 212.304 126.933 213.184C127.125 214.048 127.565 214.48 128.253 214.48C129.117 214.48 129.565 213.632 129.597 211.936L132.429 212.248C132.221 213.912 131.805 215.176 131.181 216.04C130.557 216.888 129.533 217.312 128.109 217.312ZM139.012 217.312C137.396 217.312 136.148 216.672 135.268 215.392C134.404 214.112 133.972 212.408 133.972 210.28C133.972 208.168 134.404 206.48 135.268 205.216C136.132 203.952 137.38 203.32 139.012 203.32C140.628 203.32 141.876 203.952 142.756 205.216C143.652 206.48 144.1 208.168 144.1 210.28C144.1 212.392 143.652 214.096 142.756 215.392C141.876 216.672 140.628 217.312 139.012 217.312ZM139.012 214.816C139.732 214.816 140.196 214.376 140.404 213.496C140.612 212.616 140.716 211.536 140.716 210.256C140.716 208.976 140.612 207.896 140.404 207.016C140.196 206.136 139.732 205.696 139.012 205.696C138.292 205.696 137.836 206.112 137.644 206.944C137.452 207.776 137.356 208.792 137.356 209.992C137.356 211.464 137.452 212.64 137.644 213.52C137.836 214.384 138.292 214.816 139.012 214.816ZM146.386 203.776L149.746 203.488V205.672C150.226 204.984 150.818 204.432 151.522 204.016C152.242 203.584 153.154 203.368 154.258 203.368V206.656C153.682 206.656 152.922 206.76 151.978 206.968C151.05 207.16 150.306 207.504 149.746 208V216.856L146.386 217.144V203.776ZM158.297 217.312C157.721 217.312 157.201 217.136 156.737 216.784C156.273 216.416 155.913 215.928 155.657 215.32C155.401 214.696 155.273 214 155.273 213.232C155.273 211.488 155.865 210.264 157.049 209.56C158.249 208.84 159.641 208.432 161.225 208.336C161.225 207.472 161.169 206.832 161.057 206.416C160.945 206 160.673 205.792 160.241 205.792C159.873 205.792 159.593 205.936 159.401 206.224C159.209 206.512 159.089 206.88 159.041 207.328L155.753 206.752C155.913 205.52 156.417 204.64 157.265 204.112C158.113 203.584 159.105 203.32 160.241 203.32C161.697 203.32 162.785 203.704 163.505 204.472C164.241 205.24 164.609 206.24 164.609 207.472V214.456C164.609 215.208 164.729 216.008 164.969 216.856L161.681 217.144L161.297 215.488C161.009 216 160.585 216.432 160.025 216.784C159.465 217.136 158.889 217.312 158.297 217.312ZM159.857 214.912C160.129 214.912 160.353 214.848 160.529 214.72C160.721 214.592 160.953 214.384 161.225 214.096V210.352C160.425 210.352 159.785 210.568 159.305 211C158.825 211.432 158.585 212.104 158.585 213.016C158.585 213.624 158.689 214.096 158.897 214.432C159.121 214.752 159.441 214.912 159.857 214.912ZM171.418 217.312C170.09 217.312 169.018 217.016 168.202 216.424C167.386 215.816 166.858 214.976 166.618 213.904L169.234 213.04C169.298 213.344 169.418 213.616 169.594 213.856C169.962 214.384 170.498 214.648 171.202 214.648C171.602 214.648 171.986 214.56 172.354 214.384C172.722 214.208 172.906 213.936 172.906 213.568C172.906 213.072 172.562 212.688 171.874 212.416L169.042 211.264C168.29 210.944 167.714 210.464 167.314 209.824C166.914 209.184 166.714 208.4 166.714 207.472C166.714 206.608 166.922 205.864 167.338 205.24C167.77 204.616 168.33 204.144 169.018 203.824C169.722 203.488 170.474 203.32 171.274 203.32C172.282 203.32 173.21 203.616 174.058 204.208C174.906 204.784 175.474 205.576 175.762 206.584L172.978 207.448C172.914 207.176 172.802 206.904 172.642 206.632C172.29 206.088 171.842 205.816 171.298 205.816C170.898 205.816 170.554 205.912 170.266 206.104C169.978 206.28 169.834 206.544 169.834 206.896C169.834 207.312 170.226 207.696 171.01 208.048L173.41 209.032C174.258 209.432 174.922 209.936 175.402 210.544C175.882 211.152 176.122 211.968 176.122 212.992C176.122 213.92 175.898 214.712 175.45 215.368C175.002 216.008 174.418 216.496 173.698 216.832C172.978 217.152 172.218 217.312 171.418 217.312Z" fill="white"/>
<path d="M180 38.25H80C69.6447 38.25 61.25 46.6447 61.25 57V157C61.25 167.355 69.6447 175.75 80 175.75H180C190.355 175.75 198.75 167.355 198.75 157V57C198.75 46.6447 190.355 38.25 180 38.25Z" stroke="white" stroke-width="10" stroke-linecap="round" stroke-linejoin="round"/>
<path d="M92.5 75.75H98.75" stroke="white" stroke-width="6" stroke-linecap="round" stroke-linejoin="round"/>
<path d="M123.75 75.75H167.5" stroke="white" stroke-width="6" stroke-linecap="round" stroke-linejoin="round"/>
<path d="M92.5 107H98.75" stroke="white" stroke-width="6" stroke-linecap="round" stroke-linejoin="round"/>
<path d="M123.75 107H167.5" stroke="white" stroke-width="6" stroke-linecap="round" stroke-linejoin="round"/>
<path d="M92.5 138.25H98.75" stroke="white" stroke-width="6" stroke-linecap="round" stroke-linejoin="round"/>
<path d="M123.75 138.25H167.5" stroke="white" stroke-width="6" stroke-linecap="round" stroke-linejoin="round"/>
</svg>
