<svg width="260" height="260" viewBox="0 0 260 260" fill="none" xmlns="http://www.w3.org/2000/svg">
<rect width="260" height="260" rx="5" fill="#003B72"/>
<g clip-path="url(#clip0)">
<path d="M130 40.0625L69.0625 72.875V86.9375H190.938V72.875L130 40.0625Z" stroke="white" stroke-width="10" stroke-miterlimit="10" stroke-linecap="round" stroke-linejoin="round"/>
<path d="M139.75 87H121V133.875H139.75V87Z" stroke="white" stroke-width="10" stroke-miterlimit="10" stroke-linecap="round" stroke-linejoin="round"/>
<path d="M181.562 86.9375H162.812V133.812H181.562V86.9375Z" stroke="white" stroke-width="10" stroke-miterlimit="10" stroke-linecap="round" stroke-linejoin="round"/>
<path d="M97.1875 86.9375H78.4375V133.812H97.1875V86.9375Z" stroke="white" stroke-width="10" stroke-miterlimit="10" stroke-linecap="round" stroke-linejoin="round"/>
<path d="M190.938 133.812H69.0625V147.875H190.938V133.812Z" stroke="white" stroke-width="10" stroke-miterlimit="10" stroke-linecap="round" stroke-linejoin="round"/>
<path d="M200.312 147.875H59.6875V161.938H200.312V147.875Z" stroke="white" stroke-width="10" stroke-miterlimit="10" stroke-linecap="round" stroke-linejoin="round"/>
</g>
<path d="M14.288 217L18.08 199.216L23.096 199L26.984 216.856L23.144 217L22.496 213.136H18.2L17.432 217H14.288ZM18.848 210.256H21.848L20.192 201.64L18.848 210.256ZM31.9942 217.312C29.4022 217.312 28.1062 214.96 28.1062 210.256C28.1062 207.808 28.4262 206.04 29.0662 204.952C29.7062 203.864 30.7062 203.32 32.0662 203.32C32.6422 203.32 33.1942 203.512 33.7222 203.896C34.2502 204.264 34.6342 204.728 34.8742 205.288V199.432L38.2582 199V216.856L35.7142 217.144L34.8742 215.32C34.7142 215.912 34.4182 216.392 33.9862 216.76C33.5542 217.128 32.8902 217.312 31.9942 217.312ZM33.2422 214.912C33.7222 214.912 34.1142 214.648 34.4182 214.12C34.7222 213.576 34.8742 212.664 34.8742 211.384V206.872C34.4102 206.152 33.8662 205.792 33.2422 205.792C32.7142 205.792 32.3222 205.984 32.0662 206.368C31.8262 206.736 31.6662 207.224 31.5862 207.832C31.5222 208.44 31.4902 209.248 31.4902 210.256C31.4902 211.28 31.5222 212.112 31.5862 212.752C31.6662 213.392 31.8342 213.912 32.0902 214.312C32.3462 214.712 32.7302 214.912 33.2422 214.912ZM41.1281 203.776L44.4161 203.488V205.216C44.9121 204.64 45.4801 204.184 46.1201 203.848C46.7761 203.496 47.4241 203.32 48.0641 203.32C49.0721 203.32 49.7361 204.024 50.0561 205.432C51.1121 204.024 52.2961 203.32 53.6081 203.32C54.4721 203.32 55.0881 203.664 55.4561 204.352C55.8241 205.04 56.0081 206.064 56.0081 207.424V216.856L52.6961 217.144V207.592C52.6961 207.16 52.6161 206.824 52.4561 206.584C52.2961 206.328 52.1121 206.2 51.9041 206.2C51.5681 206.2 51.2481 206.296 50.9441 206.488C50.6561 206.664 50.4081 206.888 50.2001 207.16V216.856L46.9121 217.144V207.568C46.9121 207.12 46.8401 206.784 46.6961 206.56C46.5681 206.32 46.4161 206.2 46.2401 206.2C45.9201 206.2 45.5921 206.296 45.2561 206.488C44.9201 206.68 44.6401 206.904 44.4161 207.16V216.856L41.1281 217.144V203.776ZM58.8474 201.76V198.28L62.2074 198.04V201.616L58.8474 201.76ZM58.8234 217.144V203.776L62.1834 203.488V216.856L58.8234 217.144ZM65.1281 203.776L68.4881 203.488V205.216C69.1761 204.608 69.8481 204.144 70.5041 203.824C71.1761 203.488 71.7921 203.32 72.3521 203.32C73.2001 203.32 73.8881 203.632 74.4161 204.256C74.9601 204.864 75.2321 205.688 75.2321 206.728V216.856L71.8721 217.144V208C71.8721 206.8 71.4641 206.2 70.6481 206.2C70.3761 206.2 70.0721 206.28 69.7361 206.44C69.4161 206.6 69.0001 206.832 68.4881 207.136V216.856L65.1281 217.144V203.776ZM78.0896 201.76V198.28L81.4496 198.04V201.616L78.0896 201.76ZM78.0656 217.144V203.776L81.4256 203.488V216.856L78.0656 217.144ZM88.4023 217.312C87.0743 217.312 86.0023 217.016 85.1863 216.424C84.3703 215.816 83.8423 214.976 83.6023 213.904L86.2183 213.04C86.2823 213.344 86.4023 213.616 86.5783 213.856C86.9463 214.384 87.4823 214.648 88.1863 214.648C88.5863 214.648 88.9703 214.56 89.3383 214.384C89.7063 214.208 89.8903 213.936 89.8903 213.568C89.8903 213.072 89.5463 212.688 88.8583 212.416L86.0263 211.264C85.2743 210.944 84.6983 210.464 84.2983 209.824C83.8983 209.184 83.6982 208.4 83.6982 207.472C83.6982 206.608 83.9063 205.864 84.3223 205.24C84.7543 204.616 85.3143 204.144 86.0023 203.824C86.7063 203.488 87.4583 203.32 88.2583 203.32C89.2663 203.32 90.1943 203.616 91.0423 204.208C91.8903 204.784 92.4583 205.576 92.7463 206.584L89.9622 207.448C89.8983 207.176 89.7863 206.904 89.6263 206.632C89.2743 206.088 88.8263 205.816 88.2823 205.816C87.8823 205.816 87.5383 205.912 87.2503 206.104C86.9623 206.28 86.8183 206.544 86.8183 206.896C86.8183 207.312 87.2103 207.696 87.9943 208.048L90.3943 209.032C91.2423 209.432 91.9063 209.936 92.3863 210.544C92.8663 211.152 93.1063 211.968 93.1063 212.992C93.1063 213.92 92.8823 214.712 92.4343 215.368C91.9863 216.008 91.4023 216.496 90.6823 216.832C89.9623 217.152 89.2023 217.312 88.4023 217.312ZM99.8064 217.264C98.7184 217.264 97.7984 216.992 97.0464 216.448C96.2944 215.888 95.9184 214.904 95.9184 213.496V206.032H94.0464L94.1904 203.488H96.0144L96.3504 200.56L99.2784 200.152V203.488H102.062L101.918 206.032H99.3024V213.472C99.3024 213.952 99.4224 214.296 99.6624 214.504C99.9024 214.712 100.254 214.816 100.718 214.816C100.974 214.816 101.406 214.768 102.014 214.672V217C101.95 217.016 101.694 217.064 101.246 217.144C100.814 217.224 100.334 217.264 99.8064 217.264ZM103.847 203.776L107.207 203.488V205.672C107.687 204.984 108.279 204.432 108.983 204.016C109.703 203.584 110.615 203.368 111.719 203.368V206.656C111.143 206.656 110.383 206.76 109.439 206.968C108.511 207.16 107.767 207.504 107.207 208V216.856L103.847 217.144V203.776ZM115.758 217.312C115.182 217.312 114.662 217.136 114.198 216.784C113.734 216.416 113.374 215.928 113.118 215.32C112.862 214.696 112.734 214 112.734 213.232C112.734 211.488 113.326 210.264 114.51 209.56C115.71 208.84 117.102 208.432 118.686 208.336C118.686 207.472 118.63 206.832 118.518 206.416C118.406 206 118.134 205.792 117.702 205.792C117.334 205.792 117.054 205.936 116.862 206.224C116.67 206.512 116.55 206.88 116.502 207.328L113.214 206.752C113.374 205.52 113.878 204.64 114.726 204.112C115.574 203.584 116.566 203.32 117.702 203.32C119.158 203.32 120.246 203.704 120.966 204.472C121.702 205.24 122.07 206.24 122.07 207.472V214.456C122.07 215.208 122.19 216.008 122.43 216.856L119.142 217.144L118.758 215.488C118.47 216 118.046 216.432 117.486 216.784C116.926 217.136 116.35 217.312 115.758 217.312ZM117.318 214.912C117.59 214.912 117.814 214.848 117.99 214.72C118.182 214.592 118.414 214.384 118.686 214.096V210.352C117.886 210.352 117.246 210.568 116.766 211C116.286 211.432 116.046 212.104 116.046 213.016C116.046 213.624 116.15 214.096 116.358 214.432C116.582 214.752 116.902 214.912 117.318 214.912ZM124.847 203.776L128.207 203.488V205.672C128.687 204.984 129.279 204.432 129.983 204.016C130.703 203.584 131.615 203.368 132.719 203.368V206.656C132.143 206.656 131.383 206.76 130.439 206.968C129.511 207.16 128.767 207.504 128.207 208V216.856L124.847 217.144V203.776ZM140.625 217.144V199H149.769L149.481 201.832H144.153V206.536H147.921V209.512H144.153V216.856L140.625 217.144ZM153.656 217.312C153.08 217.312 152.56 217.136 152.096 216.784C151.632 216.416 151.272 215.928 151.016 215.32C150.76 214.696 150.632 214 150.632 213.232C150.632 211.488 151.224 210.264 152.408 209.56C153.608 208.84 155 208.432 156.584 208.336C156.584 207.472 156.528 206.832 156.416 206.416C156.304 206 156.032 205.792 155.6 205.792C155.232 205.792 154.952 205.936 154.76 206.224C154.568 206.512 154.448 206.88 154.4 207.328L151.112 206.752C151.272 205.52 151.776 204.64 152.624 204.112C153.472 203.584 154.464 203.32 155.6 203.32C157.056 203.32 158.144 203.704 158.864 204.472C159.6 205.24 159.968 206.24 159.968 207.472V214.456C159.968 215.208 160.088 216.008 160.328 216.856L157.04 217.144L156.656 215.488C156.368 216 155.944 216.432 155.384 216.784C154.824 217.136 154.248 217.312 153.656 217.312ZM155.216 214.912C155.488 214.912 155.712 214.848 155.888 214.72C156.08 214.592 156.312 214.384 156.584 214.096V210.352C155.784 210.352 155.144 210.568 154.664 211C154.184 211.432 153.944 212.104 153.944 213.016C153.944 213.624 154.048 214.096 154.256 214.432C154.48 214.752 154.8 214.912 155.216 214.912ZM166.921 217.312C165.897 217.312 165.017 216.992 164.281 216.352C163.561 215.712 163.017 214.864 162.649 213.808C162.281 212.752 162.097 211.608 162.097 210.376C162.097 209.16 162.273 208.016 162.625 206.944C162.993 205.872 163.545 205 164.281 204.328C165.017 203.656 165.921 203.32 166.993 203.32C167.809 203.32 168.537 203.528 169.177 203.944C169.833 204.344 170.345 204.912 170.713 205.648C171.081 206.384 171.281 207.224 171.313 208.168L168.121 208.312C168.121 208.248 168.089 207.992 168.025 207.544C167.977 207.096 167.857 206.728 167.665 206.44C167.489 206.152 167.257 206.008 166.969 206.008C166.329 206.008 165.921 206.448 165.745 207.328C165.569 208.192 165.481 209.168 165.481 210.256C165.481 211.328 165.569 212.304 165.745 213.184C165.937 214.048 166.377 214.48 167.065 214.48C167.929 214.48 168.377 213.632 168.409 211.936L171.241 212.248C171.033 213.912 170.617 215.176 169.993 216.04C169.369 216.888 168.345 217.312 166.921 217.312ZM176.337 217.312C175.457 217.312 174.737 217.008 174.177 216.4C173.617 215.776 173.337 214.944 173.337 213.904V203.776L176.697 203.488V212.536C176.697 213.176 176.801 213.64 177.009 213.928C177.217 214.2 177.537 214.336 177.969 214.336C178.305 214.336 178.665 214.256 179.049 214.096C179.433 213.92 179.777 213.648 180.081 213.28V203.776L183.465 203.488V216.856L180.081 217.144V215.416C179.521 216.056 178.905 216.536 178.233 216.856C177.577 217.16 176.945 217.312 176.337 217.312ZM186.394 217.144V199.432L189.754 199V216.856L186.394 217.144ZM197.283 217.264C196.195 217.264 195.275 216.992 194.523 216.448C193.771 215.888 193.395 214.904 193.395 213.496V206.032H191.523L191.667 203.488H193.491L193.827 200.56L196.755 200.152V203.488H199.539L199.395 206.032H196.779V213.472C196.779 213.952 196.899 214.296 197.139 214.504C197.379 214.712 197.731 214.816 198.195 214.816C198.451 214.816 198.883 214.768 199.491 214.672V217C199.427 217.016 199.171 217.064 198.723 217.144C198.291 217.224 197.811 217.264 197.283 217.264ZM203.531 217.312C202.955 217.312 202.435 217.136 201.971 216.784C201.507 216.416 201.147 215.928 200.891 215.32C200.635 214.696 200.507 214 200.507 213.232C200.507 211.488 201.099 210.264 202.283 209.56C203.483 208.84 204.875 208.432 206.459 208.336C206.459 207.472 206.403 206.832 206.291 206.416C206.179 206 205.907 205.792 205.475 205.792C205.107 205.792 204.827 205.936 204.635 206.224C204.443 206.512 204.323 206.88 204.275 207.328L200.987 206.752C201.147 205.52 201.651 204.64 202.499 204.112C203.347 203.584 204.339 203.32 205.475 203.32C206.931 203.32 208.019 203.704 208.739 204.472C209.475 205.24 209.843 206.24 209.843 207.472V214.456C209.843 215.208 209.963 216.008 210.203 216.856L206.915 217.144L206.531 215.488C206.243 216 205.819 216.432 205.259 216.784C204.699 217.136 204.123 217.312 203.531 217.312ZM205.091 214.912C205.363 214.912 205.587 214.848 205.763 214.72C205.955 214.592 206.187 214.384 206.459 214.096V210.352C205.659 210.352 205.019 210.568 204.539 211C204.059 211.432 203.819 212.104 203.819 213.016C203.819 213.624 203.923 214.096 204.131 214.432C204.355 214.752 204.675 214.912 205.091 214.912ZM215.908 217.312C213.316 217.312 212.02 214.96 212.02 210.256C212.02 207.808 212.34 206.04 212.98 204.952C213.62 203.864 214.62 203.32 215.98 203.32C216.556 203.32 217.108 203.512 217.636 203.896C218.164 204.264 218.548 204.728 218.788 205.288V199.432L222.172 199V216.856L219.628 217.144L218.788 215.32C218.628 215.912 218.332 216.392 217.9 216.76C217.468 217.128 216.804 217.312 215.908 217.312ZM217.156 214.912C217.636 214.912 218.028 214.648 218.332 214.12C218.636 213.576 218.788 212.664 218.788 211.384V206.872C218.324 206.152 217.78 205.792 217.156 205.792C216.628 205.792 216.236 205.984 215.98 206.368C215.74 206.736 215.58 207.224 215.5 207.832C215.436 208.44 215.404 209.248 215.404 210.256C215.404 211.28 215.436 212.112 215.5 212.752C215.58 213.392 215.748 213.912 216.004 214.312C216.26 214.712 216.644 214.912 217.156 214.912ZM229.338 217.312C227.738 217.312 226.514 216.68 225.666 215.416C224.818 214.136 224.394 212.44 224.394 210.328C224.394 208.184 224.826 206.48 225.69 205.216C226.554 203.952 227.81 203.32 229.458 203.32C231.026 203.32 232.226 203.952 233.058 205.216C233.89 206.48 234.306 208.184 234.306 210.328C234.306 210.456 234.282 210.552 234.234 210.616C234.186 210.664 234.162 210.696 234.162 210.712H227.754C227.754 211.752 227.89 212.704 228.162 213.568C228.434 214.416 228.85 214.84 229.41 214.84C230.034 214.84 230.498 214.48 230.802 213.76C231.106 213.04 231.266 212.664 231.282 212.632L233.826 213.592C233.49 214.744 232.954 215.656 232.218 216.328C231.482 216.984 230.522 217.312 229.338 217.312ZM230.994 208.768C230.994 207.808 230.866 207.048 230.61 206.488C230.354 205.928 229.954 205.648 229.41 205.648C229.138 205.648 228.874 205.784 228.618 206.056C228.362 206.328 228.154 206.704 227.994 207.184C227.834 207.664 227.754 208.192 227.754 208.768H230.994ZM240.371 217.312C239.043 217.312 237.971 217.016 237.155 216.424C236.339 215.816 235.811 214.976 235.571 213.904L238.187 213.04C238.251 213.344 238.371 213.616 238.547 213.856C238.915 214.384 239.451 214.648 240.155 214.648C240.555 214.648 240.939 214.56 241.307 214.384C241.675 214.208 241.859 213.936 241.859 213.568C241.859 213.072 241.515 212.688 240.827 212.416L237.995 211.264C237.243 210.944 236.667 210.464 236.267 209.824C235.867 209.184 235.667 208.4 235.667 207.472C235.667 206.608 235.875 205.864 236.291 205.24C236.723 204.616 237.283 204.144 237.971 203.824C238.675 203.488 239.427 203.32 240.227 203.32C241.235 203.32 242.163 203.616 243.011 204.208C243.859 204.784 244.427 205.576 244.715 206.584L241.931 207.448C241.867 207.176 241.755 206.904 241.595 206.632C241.243 206.088 240.795 205.816 240.251 205.816C239.851 205.816 239.507 205.912 239.219 206.104C238.931 206.28 238.787 206.544 238.787 206.896C238.787 207.312 239.179 207.696 239.963 208.048L242.363 209.032C243.211 209.432 243.875 209.936 244.355 210.544C244.835 211.152 245.075 211.968 245.075 212.992C245.075 213.92 244.851 214.712 244.403 215.368C243.955 216.008 243.371 216.496 242.651 216.832C241.931 217.152 241.171 217.312 240.371 217.312Z" fill="white"/>
<defs>
<clipPath id="clip0">
<rect width="150" height="150" fill="white" transform="translate(55 26)"/>
</clipPath>
</defs>
</svg>
