<svg width="260" height="260" viewBox="0 0 260 260" fill="none" xmlns="http://www.w3.org/2000/svg">
<rect width="260" height="260" rx="5" fill="#003B72"/>
<path d="M193.734 43.5781H168.743C167.087 40.0648 163.535 37.7188 159.474 37.7188H155.418L156.982 31.4604C157.31 30.1479 157.015 28.7565 156.183 27.6901C155.35 26.6234 154.072 26 152.719 26H129.281C127.928 26 126.65 26.6234 125.817 27.6901C124.985 28.7568 124.69 30.1479 125.018 31.4604L126.583 37.7188H122.526C118.466 37.7188 114.914 40.0648 113.258 43.5781H88.2656C85.8387 43.5781 83.8711 45.5457 83.8711 47.9727V171.605C83.8711 174.032 85.8387 176 88.2656 176H193.734C196.161 176 198.129 174.032 198.129 171.605V47.9727C198.129 45.5457 196.161 43.5781 193.734 43.5781ZM122.526 46.5078H132.211C133.564 46.5078 134.842 45.8844 135.675 44.8177C136.507 43.751 136.802 42.36 136.474 41.0475L134.909 34.7891H147.09L145.525 41.0475C145.197 42.36 145.492 43.7513 146.325 44.8177C147.158 45.8844 148.436 46.5078 149.789 46.5078H159.474C160.193 46.5078 160.801 47.0226 160.919 47.7318L162.18 55.2969H119.82L121.081 47.7318C121.199 47.0226 121.807 46.5078 122.526 46.5078ZM189.34 167.211H92.6602V52.3672H111.398L110.298 58.9689C110.086 60.2431 110.445 61.5462 111.28 62.5317C112.115 63.5173 113.341 64.0859 114.633 64.0859H167.367C168.659 64.0859 169.885 63.5176 170.72 62.5317C171.555 61.5459 171.914 60.2428 171.702 58.9689L170.602 52.3672H189.34V167.211Z" fill="white"/>
<path d="M141 79.3203C119.192 79.3203 101.449 97.0628 101.449 118.871C101.449 140.679 119.192 158.422 141 158.422C162.808 158.422 180.551 140.679 180.551 118.871C180.551 97.0628 162.808 79.3203 141 79.3203ZM125.084 145.187C126.122 139.395 131.193 134.984 137.279 134.984H144.721C150.804 134.984 155.874 139.392 156.914 145.188C152.268 148.008 146.82 149.633 141 149.633C135.179 149.633 129.731 148.007 125.084 145.187ZM148.324 118.871C148.324 122.91 145.039 126.195 141 126.195C136.961 126.195 133.676 122.91 133.676 118.871V113.012C133.676 108.973 136.961 105.688 141 105.688C145.039 105.688 148.324 108.973 148.324 113.012V118.871ZM164.196 139.053C162.194 134.386 158.561 130.579 154.019 128.35C155.962 125.688 157.113 122.412 157.113 118.871V113.012C157.113 104.127 149.885 96.8984 141 96.8984C132.115 96.8984 124.887 104.127 124.887 113.012V118.871C124.887 122.412 126.038 125.688 127.981 128.35C123.439 130.579 119.806 134.386 117.804 139.054C113.094 133.648 110.238 126.587 110.238 118.871C110.238 101.909 124.038 88.1094 141 88.1094C157.962 88.1094 171.762 101.909 171.762 118.871C171.762 126.587 168.906 133.648 164.196 139.053Z" fill="white"/>
<path d="M40.288 217L44.08 199.216L49.096 199L52.984 216.856L49.144 217L48.496 213.136H44.2L43.432 217H40.288ZM44.848 210.256H47.848L46.192 201.64L44.848 210.256ZM57.9942 217.312C55.4022 217.312 54.1062 214.96 54.1062 210.256C54.1062 207.808 54.4262 206.04 55.0662 204.952C55.7062 203.864 56.7062 203.32 58.0662 203.32C58.6422 203.32 59.1942 203.512 59.7222 203.896C60.2502 204.264 60.6342 204.728 60.8742 205.288V199.432L64.2582 199V216.856L61.7142 217.144L60.8742 215.32C60.7142 215.912 60.4182 216.392 59.9862 216.76C59.5542 217.128 58.8902 217.312 57.9942 217.312ZM59.2422 214.912C59.7222 214.912 60.1142 214.648 60.4182 214.12C60.7222 213.576 60.8742 212.664 60.8742 211.384V206.872C60.4102 206.152 59.8662 205.792 59.2422 205.792C58.7142 205.792 58.3222 205.984 58.0662 206.368C57.8262 206.736 57.6662 207.224 57.5862 207.832C57.5222 208.44 57.4902 209.248 57.4902 210.256C57.4902 211.28 57.5222 212.112 57.5862 212.752C57.6662 213.392 57.8342 213.912 58.0902 214.312C58.3462 214.712 58.7302 214.912 59.2422 214.912ZM67.1281 203.776L70.4161 203.488V205.216C70.9121 204.64 71.4801 204.184 72.1201 203.848C72.7761 203.496 73.4241 203.32 74.0641 203.32C75.0721 203.32 75.7361 204.024 76.0561 205.432C77.1121 204.024 78.2961 203.32 79.6081 203.32C80.4721 203.32 81.0881 203.664 81.4561 204.352C81.8241 205.04 82.0081 206.064 82.0081 207.424V216.856L78.6961 217.144V207.592C78.6961 207.16 78.6161 206.824 78.4561 206.584C78.2961 206.328 78.1121 206.2 77.9041 206.2C77.5681 206.2 77.2481 206.296 76.9441 206.488C76.6561 206.664 76.4081 206.888 76.2001 207.16V216.856L72.9121 217.144V207.568C72.9121 207.12 72.8401 206.784 72.6961 206.56C72.5681 206.32 72.4161 206.2 72.2401 206.2C71.9201 206.2 71.5921 206.296 71.2561 206.488C70.9201 206.68 70.6401 206.904 70.4161 207.16V216.856L67.1281 217.144V203.776ZM84.8474 201.76V198.28L88.2074 198.04V201.616L84.8474 201.76ZM84.8234 217.144V203.776L88.1834 203.488V216.856L84.8234 217.144ZM91.1281 203.776L94.4881 203.488V205.216C95.1761 204.608 95.8481 204.144 96.5041 203.824C97.1761 203.488 97.7921 203.32 98.3521 203.32C99.2001 203.32 99.8881 203.632 100.416 204.256C100.96 204.864 101.232 205.688 101.232 206.728V216.856L97.8721 217.144V208C97.8721 206.8 97.4641 206.2 96.6481 206.2C96.3761 206.2 96.0721 206.28 95.7361 206.44C95.4161 206.6 95.0001 206.832 94.4881 207.136V216.856L91.1281 217.144V203.776ZM104.09 201.76V198.28L107.45 198.04V201.616L104.09 201.76ZM104.066 217.144V203.776L107.426 203.488V216.856L104.066 217.144ZM114.402 217.312C113.074 217.312 112.002 217.016 111.186 216.424C110.37 215.816 109.842 214.976 109.602 213.904L112.218 213.04C112.282 213.344 112.402 213.616 112.578 213.856C112.946 214.384 113.482 214.648 114.186 214.648C114.586 214.648 114.97 214.56 115.338 214.384C115.706 214.208 115.89 213.936 115.89 213.568C115.89 213.072 115.546 212.688 114.858 212.416L112.026 211.264C111.274 210.944 110.698 210.464 110.298 209.824C109.898 209.184 109.698 208.4 109.698 207.472C109.698 206.608 109.906 205.864 110.322 205.24C110.754 204.616 111.314 204.144 112.002 203.824C112.706 203.488 113.458 203.32 114.258 203.32C115.266 203.32 116.194 203.616 117.042 204.208C117.89 204.784 118.458 205.576 118.746 206.584L115.962 207.448C115.898 207.176 115.786 206.904 115.626 206.632C115.274 206.088 114.826 205.816 114.282 205.816C113.882 205.816 113.538 205.912 113.25 206.104C112.962 206.28 112.818 206.544 112.818 206.896C112.818 207.312 113.21 207.696 113.994 208.048L116.394 209.032C117.242 209.432 117.906 209.936 118.386 210.544C118.866 211.152 119.106 211.968 119.106 212.992C119.106 213.92 118.882 214.712 118.434 215.368C117.986 216.008 117.402 216.496 116.682 216.832C115.962 217.152 115.202 217.312 114.402 217.312ZM125.806 217.264C124.718 217.264 123.798 216.992 123.046 216.448C122.294 215.888 121.918 214.904 121.918 213.496V206.032H120.046L120.19 203.488H122.014L122.35 200.56L125.278 200.152V203.488H128.062L127.918 206.032H125.302V213.472C125.302 213.952 125.422 214.296 125.662 214.504C125.902 214.712 126.254 214.816 126.718 214.816C126.974 214.816 127.406 214.768 128.014 214.672V217C127.95 217.016 127.694 217.064 127.246 217.144C126.814 217.224 126.334 217.264 125.806 217.264ZM129.847 203.776L133.207 203.488V205.672C133.687 204.984 134.279 204.432 134.983 204.016C135.703 203.584 136.615 203.368 137.719 203.368V206.656C137.143 206.656 136.383 206.76 135.439 206.968C134.511 207.16 133.767 207.504 133.207 208V216.856L129.847 217.144V203.776ZM141.758 217.312C141.182 217.312 140.662 217.136 140.198 216.784C139.734 216.416 139.374 215.928 139.118 215.32C138.862 214.696 138.734 214 138.734 213.232C138.734 211.488 139.326 210.264 140.51 209.56C141.71 208.84 143.102 208.432 144.686 208.336C144.686 207.472 144.63 206.832 144.518 206.416C144.406 206 144.134 205.792 143.702 205.792C143.334 205.792 143.054 205.936 142.862 206.224C142.67 206.512 142.55 206.88 142.502 207.328L139.214 206.752C139.374 205.52 139.878 204.64 140.726 204.112C141.574 203.584 142.566 203.32 143.702 203.32C145.158 203.32 146.246 203.704 146.966 204.472C147.702 205.24 148.07 206.24 148.07 207.472V214.456C148.07 215.208 148.19 216.008 148.43 216.856L145.142 217.144L144.758 215.488C144.47 216 144.046 216.432 143.486 216.784C142.926 217.136 142.35 217.312 141.758 217.312ZM143.318 214.912C143.59 214.912 143.814 214.848 143.99 214.72C144.182 214.592 144.414 214.384 144.686 214.096V210.352C143.886 210.352 143.246 210.568 142.766 211C142.286 211.432 142.046 212.104 142.046 213.016C142.046 213.624 142.15 214.096 142.358 214.432C142.582 214.752 142.902 214.912 143.318 214.912ZM150.847 203.776L154.207 203.488V205.672C154.687 204.984 155.279 204.432 155.983 204.016C156.703 203.584 157.615 203.368 158.719 203.368V206.656C158.143 206.656 157.383 206.76 156.439 206.968C155.511 207.16 154.767 207.504 154.207 208V216.856L150.847 217.144V203.776ZM171.497 209.104H170.129V216.856L166.625 217.144V199.144L170.897 199C172.961 199 174.577 199.416 175.745 200.248C176.913 201.064 177.497 202.32 177.497 204.016C177.497 205.136 177.273 206.056 176.825 206.776C176.393 207.496 175.761 208.096 174.929 208.576L176.537 212.488L178.169 216.376L174.713 217.312L171.497 209.104ZM171.329 206.512C172.161 206.512 172.809 206.344 173.273 206.008C173.753 205.656 173.993 205 173.993 204.04C173.993 202.552 173.257 201.808 171.785 201.808H170.129V206.512H171.329ZM184.372 217.312C182.756 217.312 181.508 216.672 180.628 215.392C179.764 214.112 179.332 212.408 179.332 210.28C179.332 208.168 179.764 206.48 180.628 205.216C181.492 203.952 182.74 203.32 184.372 203.32C185.988 203.32 187.236 203.952 188.116 205.216C189.012 206.48 189.46 208.168 189.46 210.28C189.46 212.392 189.012 214.096 188.116 215.392C187.236 216.672 185.988 217.312 184.372 217.312ZM184.372 214.816C185.092 214.816 185.556 214.376 185.764 213.496C185.972 212.616 186.076 211.536 186.076 210.256C186.076 208.976 185.972 207.896 185.764 207.016C185.556 206.136 185.092 205.696 184.372 205.696C183.652 205.696 183.196 206.112 183.004 206.944C182.812 207.776 182.716 208.792 182.716 209.992C182.716 211.464 182.812 212.64 183.004 213.52C183.196 214.384 183.652 214.816 184.372 214.816ZM191.769 217.144V199.432L195.129 199V216.856L191.769 217.144ZM202.346 217.312C200.746 217.312 199.522 216.68 198.674 215.416C197.826 214.136 197.402 212.44 197.402 210.328C197.402 208.184 197.834 206.48 198.698 205.216C199.562 203.952 200.818 203.32 202.466 203.32C204.034 203.32 205.234 203.952 206.066 205.216C206.898 206.48 207.314 208.184 207.314 210.328C207.314 210.456 207.29 210.552 207.242 210.616C207.194 210.664 207.17 210.696 207.17 210.712H200.762C200.762 211.752 200.898 212.704 201.17 213.568C201.442 214.416 201.858 214.84 202.418 214.84C203.042 214.84 203.506 214.48 203.81 213.76C204.114 213.04 204.274 212.664 204.29 212.632L206.834 213.592C206.498 214.744 205.962 215.656 205.226 216.328C204.49 216.984 203.53 217.312 202.346 217.312ZM204.002 208.768C204.002 207.808 203.874 207.048 203.618 206.488C203.362 205.928 202.962 205.648 202.418 205.648C202.146 205.648 201.882 205.784 201.626 206.056C201.37 206.328 201.162 206.704 201.002 207.184C200.842 207.664 200.762 208.192 200.762 208.768H204.002ZM213.379 217.312C212.051 217.312 210.979 217.016 210.163 216.424C209.347 215.816 208.819 214.976 208.579 213.904L211.195 213.04C211.259 213.344 211.379 213.616 211.555 213.856C211.923 214.384 212.459 214.648 213.163 214.648C213.563 214.648 213.947 214.56 214.315 214.384C214.683 214.208 214.867 213.936 214.867 213.568C214.867 213.072 214.523 212.688 213.835 212.416L211.003 211.264C210.251 210.944 209.675 210.464 209.275 209.824C208.875 209.184 208.675 208.4 208.675 207.472C208.675 206.608 208.883 205.864 209.299 205.24C209.731 204.616 210.291 204.144 210.979 203.824C211.683 203.488 212.435 203.32 213.235 203.32C214.243 203.32 215.171 203.616 216.019 204.208C216.867 204.784 217.435 205.576 217.723 206.584L214.939 207.448C214.875 207.176 214.763 206.904 214.603 206.632C214.251 206.088 213.803 205.816 213.259 205.816C212.859 205.816 212.515 205.912 212.227 206.104C211.939 206.28 211.795 206.544 211.795 206.896C211.795 207.312 212.187 207.696 212.971 208.048L215.371 209.032C216.219 209.432 216.883 209.936 217.363 210.544C217.843 211.152 218.083 211.968 218.083 212.992C218.083 213.92 217.859 214.712 217.411 215.368C216.963 216.008 216.379 216.496 215.659 216.832C214.939 217.152 214.179 217.312 213.379 217.312Z" fill="white"/>
</svg>
