<svg width="260" height="260" viewBox="0 0 260 260" fill="none" xmlns="http://www.w3.org/2000/svg">
<rect width="260" height="260" rx="5" fill="#003B72"/>
<path d="M41.68 217V199.288L45.184 199V214.192H51.088L50.728 217H41.68ZM52.738 201.76V198.28L56.098 198.04V201.616L52.738 201.76ZM52.714 217.144V203.776L56.074 203.488V216.856L52.714 217.144ZM63.0507 217.312C61.7227 217.312 60.6507 217.016 59.8347 216.424C59.0187 215.816 58.4907 214.976 58.2507 213.904L60.8667 213.04C60.9307 213.344 61.0507 213.616 61.2267 213.856C61.5947 214.384 62.1307 214.648 62.8347 214.648C63.2347 214.648 63.6187 214.56 63.9867 214.384C64.3547 214.208 64.5387 213.936 64.5387 213.568C64.5387 213.072 64.1947 212.688 63.5067 212.416L60.6747 211.264C59.9227 210.944 59.3467 210.464 58.9467 209.824C58.5467 209.184 58.3467 208.4 58.3467 207.472C58.3467 206.608 58.5547 205.864 58.9707 205.24C59.4027 204.616 59.9627 204.144 60.6507 203.824C61.3547 203.488 62.1067 203.32 62.9067 203.32C63.9147 203.32 64.8427 203.616 65.6907 204.208C66.5387 204.784 67.1067 205.576 67.3947 206.584L64.6107 207.448C64.5467 207.176 64.4347 206.904 64.2747 206.632C63.9227 206.088 63.4747 205.816 62.9307 205.816C62.5307 205.816 62.1867 205.912 61.8987 206.104C61.6107 206.28 61.4667 206.544 61.4667 206.896C61.4667 207.312 61.8587 207.696 62.6427 208.048L65.0427 209.032C65.8907 209.432 66.5547 209.936 67.0347 210.544C67.5147 211.152 67.7547 211.968 67.7547 212.992C67.7547 213.92 67.5307 214.712 67.0827 215.368C66.6347 216.008 66.0507 216.496 65.3307 216.832C64.6107 217.152 63.8507 217.312 63.0507 217.312ZM74.4548 217.264C73.3668 217.264 72.4468 216.992 71.6948 216.448C70.9428 215.888 70.5668 214.904 70.5668 213.496V206.032H68.6948L68.8388 203.488H70.6628L70.9988 200.56L73.9268 200.152V203.488H76.7108L76.5668 206.032H73.9508V213.472C73.9508 213.952 74.0708 214.296 74.3108 214.504C74.5508 214.712 74.9028 214.816 75.3668 214.816C75.6228 214.816 76.0548 214.768 76.6628 214.672V217C76.5988 217.016 76.3428 217.064 75.8948 217.144C75.4628 217.224 74.9828 217.264 74.4548 217.264ZM80.7033 217.312C80.1273 217.312 79.6073 217.136 79.1433 216.784C78.6793 216.416 78.3193 215.928 78.0633 215.32C77.8073 214.696 77.6793 214 77.6793 213.232C77.6793 211.488 78.2713 210.264 79.4553 209.56C80.6553 208.84 82.0473 208.432 83.6313 208.336C83.6313 207.472 83.5753 206.832 83.4633 206.416C83.3513 206 83.0793 205.792 82.6473 205.792C82.2793 205.792 81.9993 205.936 81.8073 206.224C81.6153 206.512 81.4953 206.88 81.4473 207.328L78.1593 206.752C78.3193 205.52 78.8233 204.64 79.6713 204.112C80.5193 203.584 81.5113 203.32 82.6473 203.32C84.1033 203.32 85.1913 203.704 85.9113 204.472C86.6473 205.24 87.0153 206.24 87.0153 207.472V214.456C87.0153 215.208 87.1353 216.008 87.3753 216.856L84.0872 217.144L83.7033 215.488C83.4153 216 82.9913 216.432 82.4313 216.784C81.8713 217.136 81.2953 217.312 80.7033 217.312ZM82.2633 214.912C82.5353 214.912 82.7593 214.848 82.9353 214.72C83.1273 214.592 83.3593 214.384 83.6313 214.096V210.352C82.8313 210.352 82.1913 210.568 81.7113 211C81.2313 211.432 80.9913 212.104 80.9913 213.016C80.9913 213.624 81.0953 214.096 81.3033 214.432C81.5273 214.752 81.8473 214.912 82.2633 214.912ZM95.8675 199H98.1235C99.9315 199 101.372 199.08 102.444 199.24C103.516 199.384 104.46 199.848 105.276 200.632C106.108 201.416 106.523 202.672 106.523 204.4C106.523 205.968 106.172 207.16 105.468 207.976C104.78 208.776 103.924 209.304 102.9 209.56C101.892 209.8 100.724 209.92 99.3955 209.92V216.856L95.8675 217.144V199ZM100.02 207.064C100.948 207.064 101.676 206.872 102.204 206.488C102.748 206.104 103.02 205.4 103.02 204.376C103.02 203.368 102.772 202.688 102.276 202.336C101.78 201.984 100.996 201.808 99.9235 201.808H99.4195V207.064H100.02ZM108.448 203.776L111.808 203.488V205.672C112.288 204.984 112.88 204.432 113.584 204.016C114.304 203.584 115.216 203.368 116.32 203.368V206.656C115.744 206.656 114.984 206.76 114.04 206.968C113.112 207.16 112.368 207.504 111.808 208V216.856L108.448 217.144V203.776ZM122.448 217.312C120.848 217.312 119.624 216.68 118.776 215.416C117.928 214.136 117.504 212.44 117.504 210.328C117.504 208.184 117.936 206.48 118.8 205.216C119.664 203.952 120.92 203.32 122.568 203.32C124.136 203.32 125.336 203.952 126.168 205.216C127 206.48 127.416 208.184 127.416 210.328C127.416 210.456 127.392 210.552 127.344 210.616C127.296 210.664 127.272 210.696 127.272 210.712H120.864C120.864 211.752 121 212.704 121.272 213.568C121.544 214.416 121.96 214.84 122.52 214.84C123.144 214.84 123.608 214.48 123.912 213.76C124.216 213.04 124.376 212.664 124.392 212.632L126.936 213.592C126.6 214.744 126.064 215.656 125.328 216.328C124.592 216.984 123.632 217.312 122.448 217.312ZM124.104 208.768C124.104 207.808 123.976 207.048 123.72 206.488C123.464 205.928 123.064 205.648 122.52 205.648C122.248 205.648 121.984 205.784 121.728 206.056C121.472 206.328 121.264 206.704 121.104 207.184C120.944 207.664 120.864 208.192 120.864 208.768H124.104ZM133.48 217.312C132.152 217.312 131.08 217.016 130.264 216.424C129.448 215.816 128.92 214.976 128.68 213.904L131.296 213.04C131.36 213.344 131.48 213.616 131.656 213.856C132.024 214.384 132.56 214.648 133.264 214.648C133.664 214.648 134.048 214.56 134.416 214.384C134.784 214.208 134.968 213.936 134.968 213.568C134.968 213.072 134.624 212.688 133.936 212.416L131.104 211.264C130.352 210.944 129.776 210.464 129.376 209.824C128.976 209.184 128.776 208.4 128.776 207.472C128.776 206.608 128.984 205.864 129.4 205.24C129.832 204.616 130.392 204.144 131.08 203.824C131.784 203.488 132.536 203.32 133.336 203.32C134.344 203.32 135.272 203.616 136.12 204.208C136.968 204.784 137.536 205.576 137.824 206.584L135.04 207.448C134.976 207.176 134.864 206.904 134.704 206.632C134.352 206.088 133.904 205.816 133.36 205.816C132.96 205.816 132.616 205.912 132.328 206.104C132.04 206.28 131.896 206.544 131.896 206.896C131.896 207.312 132.288 207.696 133.072 208.048L135.472 209.032C136.32 209.432 136.984 209.936 137.464 210.544C137.944 211.152 138.184 211.968 138.184 212.992C138.184 213.92 137.96 214.712 137.512 215.368C137.064 216.008 136.48 216.496 135.76 216.832C135.04 217.152 134.28 217.312 133.48 217.312ZM143.181 217.312C142.301 217.312 141.581 217.008 141.021 216.4C140.461 215.776 140.181 214.944 140.181 213.904V203.776L143.541 203.488V212.536C143.541 213.176 143.645 213.64 143.853 213.928C144.061 214.2 144.381 214.336 144.812 214.336C145.149 214.336 145.509 214.256 145.893 214.096C146.277 213.92 146.621 213.648 146.925 213.28V203.776L150.309 203.488V216.856L146.925 217.144V215.416C146.365 216.056 145.749 216.536 145.077 216.856C144.421 217.16 143.789 217.312 143.181 217.312ZM153.214 203.776L156.574 203.488V204.808C157.102 204.28 157.59 203.904 158.038 203.68C158.502 203.44 159.038 203.32 159.646 203.32C160.478 203.32 161.134 203.552 161.614 204.016C162.11 204.48 162.462 205.208 162.67 206.2C162.894 207.176 163.006 208.488 163.006 210.136C163.006 212.392 162.742 214.152 162.214 215.416C161.702 216.68 160.71 217.312 159.238 217.312C158.566 217.312 158.03 217.184 157.63 216.928C157.23 216.672 156.878 216.312 156.574 215.848V220.528L153.214 221.2V203.776ZM158.038 214.744C158.566 214.744 158.958 214.432 159.214 213.808C159.486 213.184 159.622 212.008 159.622 210.28C159.622 208.632 159.486 207.464 159.214 206.776C158.958 206.088 158.558 205.744 158.014 205.744C157.454 205.744 156.974 206.056 156.574 206.68V213.664C156.894 214.384 157.382 214.744 158.038 214.744ZM168.235 217.312C167.355 217.312 166.635 217.008 166.075 216.4C165.515 215.776 165.235 214.944 165.235 213.904V203.776L168.595 203.488V212.536C168.595 213.176 168.699 213.64 168.907 213.928C169.115 214.2 169.435 214.336 169.867 214.336C170.203 214.336 170.563 214.256 170.947 214.096C171.331 213.92 171.675 213.648 171.979 213.28V203.776L175.363 203.488V216.856L171.979 217.144V215.416C171.419 216.056 170.803 216.536 170.131 216.856C169.475 217.16 168.843 217.312 168.235 217.312ZM182.565 217.312C180.965 217.312 179.741 216.68 178.893 215.416C178.045 214.136 177.621 212.44 177.621 210.328C177.621 208.184 178.053 206.48 178.917 205.216C179.781 203.952 181.037 203.32 182.685 203.32C184.253 203.32 185.453 203.952 186.285 205.216C187.117 206.48 187.533 208.184 187.533 210.328C187.533 210.456 187.509 210.552 187.461 210.616C187.413 210.664 187.389 210.696 187.389 210.712H180.981C180.981 211.752 181.117 212.704 181.389 213.568C181.661 214.416 182.077 214.84 182.637 214.84C183.261 214.84 183.725 214.48 184.029 213.76C184.333 213.04 184.493 212.664 184.509 212.632L187.053 213.592C186.717 214.744 186.181 215.656 185.445 216.328C184.709 216.984 183.749 217.312 182.565 217.312ZM184.221 208.768C184.221 207.808 184.093 207.048 183.837 206.488C183.581 205.928 183.181 205.648 182.637 205.648C182.365 205.648 182.101 205.784 181.845 206.056C181.589 206.328 181.381 206.704 181.221 207.184C181.061 207.664 180.981 208.192 180.981 208.768H184.221ZM193.598 217.312C192.27 217.312 191.198 217.016 190.382 216.424C189.566 215.816 189.038 214.976 188.798 213.904L191.414 213.04C191.478 213.344 191.598 213.616 191.774 213.856C192.142 214.384 192.678 214.648 193.382 214.648C193.782 214.648 194.166 214.56 194.534 214.384C194.902 214.208 195.086 213.936 195.086 213.568C195.086 213.072 194.742 212.688 194.054 212.416L191.222 211.264C190.47 210.944 189.894 210.464 189.494 209.824C189.094 209.184 188.894 208.4 188.894 207.472C188.894 206.608 189.102 205.864 189.518 205.24C189.95 204.616 190.51 204.144 191.198 203.824C191.902 203.488 192.654 203.32 193.454 203.32C194.462 203.32 195.39 203.616 196.238 204.208C197.086 204.784 197.654 205.576 197.942 206.584L195.158 207.448C195.094 207.176 194.982 206.904 194.822 206.632C194.47 206.088 194.022 205.816 193.478 205.816C193.078 205.816 192.734 205.912 192.446 206.104C192.158 206.28 192.014 206.544 192.014 206.896C192.014 207.312 192.406 207.696 193.19 208.048L195.59 209.032C196.438 209.432 197.102 209.936 197.582 210.544C198.062 211.152 198.302 211.968 198.302 212.992C198.302 213.92 198.078 214.712 197.63 215.368C197.182 216.008 196.598 216.496 195.878 216.832C195.158 217.152 194.398 217.312 193.598 217.312ZM205.002 217.264C203.914 217.264 202.994 216.992 202.242 216.448C201.49 215.888 201.114 214.904 201.114 213.496V206.032H199.242L199.386 203.488H201.21L201.546 200.56L204.474 200.152V203.488H207.258L207.114 206.032H204.498V213.472C204.498 213.952 204.618 214.296 204.858 214.504C205.098 214.712 205.45 214.816 205.914 214.816C206.17 214.816 206.602 214.768 207.21 214.672V217C207.146 217.016 206.89 217.064 206.442 217.144C206.01 217.224 205.53 217.264 205.002 217.264ZM213.434 217.312C211.818 217.312 210.57 216.672 209.69 215.392C208.826 214.112 208.394 212.408 208.394 210.28C208.394 208.168 208.826 206.48 209.69 205.216C210.554 203.952 211.802 203.32 213.434 203.32C215.05 203.32 216.298 203.952 217.178 205.216C218.074 206.48 218.522 208.168 218.522 210.28C218.522 212.392 218.074 214.096 217.178 215.392C216.298 216.672 215.05 217.312 213.434 217.312ZM213.434 214.816C214.154 214.816 214.618 214.376 214.826 213.496C215.034 212.616 215.138 211.536 215.138 210.256C215.138 208.976 215.034 207.896 214.826 207.016C214.618 206.136 214.154 205.696 213.434 205.696C212.714 205.696 212.258 206.112 212.066 206.944C211.874 207.776 211.778 208.792 211.778 209.992C211.778 211.464 211.874 212.64 212.066 213.52C212.258 214.384 212.714 214.816 213.434 214.816Z" fill="white"/>
<path d="M154.688 173.125H85.5625C84.253 173.125 82.9971 172.605 82.0712 171.679C81.1452 170.753 80.625 169.497 80.625 168.188V39.8125C80.625 38.503 81.1452 37.2471 82.0712 36.3212C82.9971 35.3952 84.253 34.875 85.5625 34.875H162.094C163.403 34.875 164.659 35.3952 165.585 36.3212C166.511 37.2471 167.031 38.503 167.031 39.8125C167.031 41.122 166.511 42.3779 165.585 43.3038C164.659 44.2298 163.403 44.75 162.094 44.75H90.5V163.25H154.688C155.997 163.25 157.253 163.77 158.179 164.696C159.105 165.622 159.625 166.878 159.625 168.188C159.625 169.497 159.105 170.753 158.179 171.679C157.253 172.605 155.997 173.125 154.688 173.125Z" fill="white"/>
<path d="M174.438 153.375C173.128 153.375 171.872 152.855 170.946 151.929C170.02 151.003 169.5 149.747 169.5 148.438V101.531C169.5 100.222 170.02 98.9659 170.946 98.0399C171.872 97.114 173.128 96.5938 174.438 96.5938C175.747 96.5938 177.003 97.114 177.929 98.0399C178.855 98.9659 179.375 100.222 179.375 101.531V148.438C179.375 149.747 178.855 151.003 177.929 151.929C177.003 152.855 175.747 153.375 174.438 153.375Z" fill="white"/>
<path d="M162.094 108.938C154.77 108.938 147.61 106.766 141.52 102.697C135.431 98.6276 130.684 92.8441 127.881 86.0775C125.079 79.3109 124.345 71.8652 125.774 64.6818C127.203 57.4985 130.73 50.9001 135.909 45.7212C141.088 40.5423 147.686 37.0154 154.869 35.5866C162.053 34.1577 169.498 34.891 176.265 37.6939C183.032 40.4967 188.815 45.243 192.884 51.3328C196.953 57.4226 199.125 64.5822 199.125 71.9063C199.115 81.7244 195.21 91.1373 188.267 98.0798C181.325 105.022 171.912 108.927 162.094 108.938V108.938ZM162.094 44.75C156.723 44.75 151.472 46.3427 147.007 49.3267C142.541 52.3106 139.06 56.5519 137.005 61.514C134.949 66.4762 134.411 71.9364 135.459 77.2042C136.507 82.472 139.094 87.3108 142.891 91.1086C146.689 94.9065 151.528 97.4929 156.796 98.5407C162.064 99.5885 167.524 99.0508 172.486 96.9954C177.448 94.94 181.689 91.4593 184.673 86.9935C187.657 82.5276 189.25 77.2773 189.25 71.9063C189.242 64.7064 186.379 57.8036 181.287 52.7126C176.196 47.6215 169.294 44.7579 162.094 44.75V44.75Z" fill="white"/>
<path d="M154.688 173.125C153.378 173.125 152.122 172.605 151.196 171.679C150.27 170.753 149.75 169.497 149.75 168.188V148.438C149.75 147.128 150.27 145.872 151.196 144.946C152.122 144.02 153.378 143.5 154.688 143.5H174.438C175.414 143.5 176.368 143.79 177.18 144.332C177.992 144.875 178.625 145.646 178.998 146.548C179.372 147.45 179.47 148.443 179.279 149.4C179.089 150.358 178.619 151.238 177.928 151.928L158.178 171.678C157.253 172.604 155.997 173.125 154.688 173.125ZM159.625 153.375V156.268L162.518 153.375H159.625Z" fill="white"/>
<path d="M162.043 90.4125V86.2255C159.437 86.1546 156.879 85.5089 154.552 84.3344L155.871 79.1748C158.113 80.413 160.627 81.0795 163.188 81.1152C165.696 81.1152 167.42 80.1277 167.42 78.3848C167.42 76.706 166.007 75.6494 162.749 74.5483C158.033 72.9584 154.814 70.7563 154.814 66.4804C154.88 64.4884 155.674 62.5897 157.046 61.1445C158.419 59.6992 160.274 58.8079 162.26 58.6397V54.4478H166.58V58.3286C168.798 58.3591 170.984 58.8536 172.999 59.7803L171.715 64.7622C169.739 63.7968 167.57 63.2905 165.371 63.2809C162.507 63.2809 161.583 64.5153 161.583 65.7497C161.583 67.2013 163.124 68.1246 166.872 69.5368C172.115 71.3883 174.228 73.8126 174.228 77.7824C174.161 79.8712 173.322 81.861 171.873 83.3668C170.424 84.8726 168.467 85.7874 166.383 85.9342V90.4273L162.043 90.4125Z" fill="white" stroke="white" stroke-width="0.5" stroke-miterlimit="10"/>
<path d="M115.188 74.375H100.375C99.0655 74.375 97.8096 73.8548 96.8837 72.9288C95.9577 72.0029 95.4375 70.747 95.4375 69.4375C95.4375 68.128 95.9577 66.8721 96.8837 65.9462C97.8096 65.0202 99.0655 64.5 100.375 64.5H115.188C116.497 64.5 117.753 65.0202 118.679 65.9462C119.605 66.8721 120.125 68.128 120.125 69.4375C120.125 70.747 119.605 72.0029 118.679 72.9288C117.753 73.8548 116.497 74.375 115.188 74.375Z" fill="white"/>
<path d="M115.188 89.1875H100.375C99.0655 89.1875 97.8096 88.6673 96.8837 87.7413C95.9577 86.8154 95.4375 85.5595 95.4375 84.25C95.4375 82.9405 95.9577 81.6846 96.8837 80.7587C97.8096 79.8327 99.0655 79.3125 100.375 79.3125H115.188C116.497 79.3125 117.753 79.8327 118.679 80.7587C119.605 81.6846 120.125 82.9405 120.125 84.25C120.125 85.5595 119.605 86.8154 118.679 87.7413C117.753 88.6673 116.497 89.1875 115.188 89.1875Z" fill="white"/>
<path d="M130 118.812H100.375C99.0655 118.812 97.8096 118.292 96.8837 117.366C95.9577 116.44 95.4375 115.185 95.4375 113.875C95.4375 112.565 95.9577 111.31 96.8837 110.384C97.8096 109.458 99.0655 108.938 100.375 108.938H130C131.31 108.938 132.565 109.458 133.491 110.384C134.417 111.31 134.938 112.565 134.938 113.875C134.938 115.185 134.417 116.44 133.491 117.366C132.565 118.292 131.31 118.812 130 118.812Z" fill="white"/>
<path d="M149.75 133.625H100.375C99.0655 133.625 97.8096 133.105 96.8837 132.179C95.9577 131.253 95.4375 129.997 95.4375 128.688C95.4375 127.378 95.9577 126.122 96.8837 125.196C97.8096 124.27 99.0655 123.75 100.375 123.75H149.75C151.06 123.75 152.315 124.27 153.241 125.196C154.167 126.122 154.688 127.378 154.688 128.688C154.688 129.997 154.167 131.253 153.241 132.179C152.315 133.105 151.06 133.625 149.75 133.625Z" fill="white"/>
</svg>
