<svg width="260" height="260" viewBox="0 0 260 260" fill="none" xmlns="http://www.w3.org/2000/svg">
<rect width="260" height="260" rx="5" fill="#003B72"/>
<path d="M84.4817 110.751H73.1362V122.096H84.4817V110.751Z" fill="white"/>
<path d="M104.53 110.751H93.1846V122.096H104.53V110.751Z" fill="white"/>
<path d="M84.4817 131.216H73.1362V142.562H84.4817V131.216Z" fill="white"/>
<path d="M104.53 131.216H93.1846V142.562H104.53V131.216Z" fill="white"/>
<path d="M110.036 70.9183H98.6907V82.2639H110.036V70.9183Z" fill="white"/>
<path d="M130.085 70.9183H118.739V82.2639H130.085V70.9183Z" fill="white"/>
<path d="M118.939 88.7038H90.016V64.4845L138.663 45.9961V77.9264H138.47V141.489C138.999 141.098 139.562 140.755 140.152 140.462C141.864 139.614 144.067 138.661 146.389 137.723V77.9264L146.374 34.8169L82.3051 59.1702V86.1285H56.1506V167.182H132.322V167.093C132.322 166.84 132.381 163.52 132.634 159.471H118.939V88.7038ZM113.804 159.471H63.8615V93.8394H113.804V159.471Z" fill="white"/>
<path d="M202.563 150.058C202.382 149.006 201.956 148.01 201.32 147.153C200.683 146.295 199.854 145.599 198.898 145.122C192.525 141.944 178.536 137.249 178.536 137.249H177.353L173.526 142.356L177.114 167.183H203.849C203.752 161.455 203.323 155.737 202.563 150.058Z" fill="white"/>
<path d="M183.074 122.476L185 112.547C185.256 110.668 185.106 108.756 184.561 106.939C184.017 105.123 183.09 103.444 181.842 102.015C180.595 100.586 179.056 99.4413 177.33 98.6565C175.603 97.8718 173.729 97.4656 171.832 97.4653H169.544C167.648 97.4656 165.773 97.8718 164.047 98.6566C162.32 99.4413 160.782 100.586 159.535 102.015C158.287 103.444 157.36 105.123 156.815 106.939C156.271 108.756 156.121 110.668 156.377 112.547L158.303 122.476C158.862 125.35 160.404 127.94 162.663 129.803C164.923 131.665 167.76 132.684 170.688 132.684C173.617 132.684 176.454 131.665 178.713 129.803C180.973 127.94 182.515 125.35 183.074 122.476H183.074Z" fill="white"/>
<path d="M162.84 137.249C162.84 137.249 148.852 141.944 142.479 145.122C141.523 145.599 140.694 146.295 140.057 147.153C139.42 148.01 138.994 149.006 138.814 150.058C138.054 155.737 137.624 161.455 137.527 167.183H164.263L167.851 142.356L164.024 137.249H162.84Z" fill="white"/>
<path d="M21.288 217L25.08 199.216L30.096 199L33.984 216.856L30.144 217L29.496 213.136H25.2L24.432 217H21.288ZM25.848 210.256H28.848L27.192 201.64L25.848 210.256ZM38.9942 217.312C36.4022 217.312 35.1062 214.96 35.1062 210.256C35.1062 207.808 35.4262 206.04 36.0662 204.952C36.7062 203.864 37.7062 203.32 39.0662 203.32C39.6422 203.32 40.1942 203.512 40.7222 203.896C41.2502 204.264 41.6342 204.728 41.8742 205.288V199.432L45.2582 199V216.856L42.7142 217.144L41.8742 215.32C41.7142 215.912 41.4182 216.392 40.9862 216.76C40.5542 217.128 39.8902 217.312 38.9942 217.312ZM40.2422 214.912C40.7222 214.912 41.1142 214.648 41.4182 214.12C41.7222 213.576 41.8742 212.664 41.8742 211.384V206.872C41.4102 206.152 40.8662 205.792 40.2422 205.792C39.7142 205.792 39.3222 205.984 39.0662 206.368C38.8262 206.736 38.6662 207.224 38.5862 207.832C38.5222 208.44 38.4902 209.248 38.4902 210.256C38.4902 211.28 38.5222 212.112 38.5862 212.752C38.6662 213.392 38.8342 213.912 39.0902 214.312C39.3462 214.712 39.7302 214.912 40.2422 214.912ZM48.1281 203.776L51.4161 203.488V205.216C51.9121 204.64 52.4801 204.184 53.1201 203.848C53.7761 203.496 54.4241 203.32 55.0641 203.32C56.0721 203.32 56.7361 204.024 57.0561 205.432C58.1121 204.024 59.2961 203.32 60.6081 203.32C61.4721 203.32 62.0881 203.664 62.4561 204.352C62.8241 205.04 63.0081 206.064 63.0081 207.424V216.856L59.6961 217.144V207.592C59.6961 207.16 59.6161 206.824 59.4561 206.584C59.2961 206.328 59.1121 206.2 58.9041 206.2C58.5681 206.2 58.2481 206.296 57.9441 206.488C57.6561 206.664 57.4081 206.888 57.2001 207.16V216.856L53.9121 217.144V207.568C53.9121 207.12 53.8401 206.784 53.6961 206.56C53.5681 206.32 53.4161 206.2 53.2401 206.2C52.9201 206.2 52.5921 206.296 52.2561 206.488C51.9201 206.68 51.6401 206.904 51.4161 207.16V216.856L48.1281 217.144V203.776ZM65.8474 201.76V198.28L69.2074 198.04V201.616L65.8474 201.76ZM65.8234 217.144V203.776L69.1834 203.488V216.856L65.8234 217.144ZM72.1281 203.776L75.4881 203.488V205.216C76.1761 204.608 76.8481 204.144 77.5041 203.824C78.1761 203.488 78.7921 203.32 79.3521 203.32C80.2001 203.32 80.8881 203.632 81.4161 204.256C81.9601 204.864 82.2321 205.688 82.2321 206.728V216.856L78.8721 217.144V208C78.8721 206.8 78.4641 206.2 77.6481 206.2C77.3761 206.2 77.0721 206.28 76.7361 206.44C76.4161 206.6 76.0001 206.832 75.4881 207.136V216.856L72.1281 217.144V203.776ZM85.0896 201.76V198.28L88.4496 198.04V201.616L85.0896 201.76ZM85.0656 217.144V203.776L88.4256 203.488V216.856L85.0656 217.144ZM95.4023 217.312C94.0743 217.312 93.0023 217.016 92.1863 216.424C91.3703 215.816 90.8423 214.976 90.6023 213.904L93.2183 213.04C93.2823 213.344 93.4023 213.616 93.5783 213.856C93.9463 214.384 94.4823 214.648 95.1863 214.648C95.5863 214.648 95.9703 214.56 96.3383 214.384C96.7063 214.208 96.8903 213.936 96.8903 213.568C96.8903 213.072 96.5463 212.688 95.8583 212.416L93.0263 211.264C92.2743 210.944 91.6983 210.464 91.2983 209.824C90.8983 209.184 90.6982 208.4 90.6982 207.472C90.6982 206.608 90.9063 205.864 91.3223 205.24C91.7543 204.616 92.3143 204.144 93.0023 203.824C93.7063 203.488 94.4583 203.32 95.2583 203.32C96.2663 203.32 97.1943 203.616 98.0423 204.208C98.8903 204.784 99.4583 205.576 99.7463 206.584L96.9622 207.448C96.8983 207.176 96.7863 206.904 96.6263 206.632C96.2743 206.088 95.8263 205.816 95.2823 205.816C94.8823 205.816 94.5383 205.912 94.2503 206.104C93.9623 206.28 93.8183 206.544 93.8183 206.896C93.8183 207.312 94.2103 207.696 94.9943 208.048L97.3943 209.032C98.2423 209.432 98.9063 209.936 99.3863 210.544C99.8663 211.152 100.106 211.968 100.106 212.992C100.106 213.92 99.8823 214.712 99.4343 215.368C98.9863 216.008 98.4023 216.496 97.6823 216.832C96.9623 217.152 96.2023 217.312 95.4023 217.312ZM106.806 217.264C105.718 217.264 104.798 216.992 104.046 216.448C103.294 215.888 102.918 214.904 102.918 213.496V206.032H101.046L101.19 203.488H103.014L103.35 200.56L106.278 200.152V203.488H109.062L108.918 206.032H106.302V213.472C106.302 213.952 106.422 214.296 106.662 214.504C106.902 214.712 107.254 214.816 107.718 214.816C107.974 214.816 108.406 214.768 109.014 214.672V217C108.95 217.016 108.694 217.064 108.246 217.144C107.814 217.224 107.334 217.264 106.806 217.264ZM110.847 203.776L114.207 203.488V205.672C114.687 204.984 115.279 204.432 115.983 204.016C116.703 203.584 117.615 203.368 118.719 203.368V206.656C118.143 206.656 117.383 206.76 116.439 206.968C115.511 207.16 114.767 207.504 114.207 208V216.856L110.847 217.144V203.776ZM122.758 217.312C122.182 217.312 121.662 217.136 121.198 216.784C120.734 216.416 120.374 215.928 120.118 215.32C119.862 214.696 119.734 214 119.734 213.232C119.734 211.488 120.326 210.264 121.51 209.56C122.71 208.84 124.102 208.432 125.686 208.336C125.686 207.472 125.63 206.832 125.518 206.416C125.406 206 125.134 205.792 124.702 205.792C124.334 205.792 124.054 205.936 123.862 206.224C123.67 206.512 123.55 206.88 123.502 207.328L120.214 206.752C120.374 205.52 120.878 204.64 121.726 204.112C122.574 203.584 123.566 203.32 124.702 203.32C126.158 203.32 127.246 203.704 127.966 204.472C128.702 205.24 129.07 206.24 129.07 207.472V214.456C129.07 215.208 129.19 216.008 129.43 216.856L126.142 217.144L125.758 215.488C125.47 216 125.046 216.432 124.486 216.784C123.926 217.136 123.35 217.312 122.758 217.312ZM124.318 214.912C124.59 214.912 124.814 214.848 124.99 214.72C125.182 214.592 125.414 214.384 125.686 214.096V210.352C124.886 210.352 124.246 210.568 123.766 211C123.286 211.432 123.046 212.104 123.046 213.016C123.046 213.624 123.15 214.096 123.358 214.432C123.582 214.752 123.902 214.912 124.318 214.912ZM131.847 203.776L135.207 203.488V205.672C135.687 204.984 136.279 204.432 136.983 204.016C137.703 203.584 138.615 203.368 139.719 203.368V206.656C139.143 206.656 138.383 206.76 137.439 206.968C136.511 207.16 135.767 207.504 135.207 208V216.856L131.847 217.144V203.776ZM152.857 217.336C151.065 217.336 149.721 216.76 148.825 215.608C147.929 214.456 147.481 212.944 147.481 211.072V199.144L151.009 199V211.36C151.009 211.984 151.041 212.512 151.105 212.944C151.185 213.376 151.369 213.744 151.657 214.048C151.945 214.352 152.385 214.504 152.977 214.504C153.537 214.504 153.945 214.352 154.201 214.048C154.473 213.728 154.641 213.36 154.705 212.944C154.769 212.512 154.801 211.968 154.801 211.312V199.288L158.017 199V210.664C158.017 212.36 157.681 213.896 157.009 215.272C156.353 216.648 154.969 217.336 152.857 217.336ZM161.05 203.776L164.41 203.488V205.216C165.098 204.608 165.77 204.144 166.426 203.824C167.098 203.488 167.714 203.32 168.274 203.32C169.122 203.32 169.81 203.632 170.338 204.256C170.882 204.864 171.154 205.688 171.154 206.728V216.856L167.794 217.144V208C167.794 206.8 167.386 206.2 166.57 206.2C166.298 206.2 165.994 206.28 165.658 206.44C165.338 206.6 164.922 206.832 164.41 207.136V216.856L161.05 217.144V203.776ZM174.011 201.76V198.28L177.371 198.04V201.616L174.011 201.76ZM173.987 217.144V203.776L177.347 203.488V216.856L173.987 217.144ZM183.58 217.312C180.988 217.312 179.692 214.96 179.692 210.256C179.692 207.808 180.012 206.04 180.652 204.952C181.292 203.864 182.292 203.32 183.652 203.32C184.228 203.32 184.78 203.512 185.308 203.896C185.836 204.264 186.22 204.728 186.46 205.288V199.432L189.844 199V216.856L187.3 217.144L186.46 215.32C186.3 215.912 186.004 216.392 185.572 216.76C185.14 217.128 184.476 217.312 183.58 217.312ZM184.828 214.912C185.308 214.912 185.7 214.648 186.004 214.12C186.308 213.576 186.46 212.664 186.46 211.384V206.872C185.996 206.152 185.452 205.792 184.828 205.792C184.3 205.792 183.908 205.984 183.652 206.368C183.412 206.736 183.252 207.224 183.172 207.832C183.108 208.44 183.076 209.248 183.076 210.256C183.076 211.28 183.108 212.112 183.172 212.752C183.252 213.392 183.42 213.912 183.676 214.312C183.932 214.712 184.316 214.912 184.828 214.912ZM194.922 217.312C194.346 217.312 193.826 217.136 193.362 216.784C192.898 216.416 192.538 215.928 192.282 215.32C192.026 214.696 191.898 214 191.898 213.232C191.898 211.488 192.49 210.264 193.674 209.56C194.874 208.84 196.266 208.432 197.85 208.336C197.85 207.472 197.794 206.832 197.682 206.416C197.57 206 197.298 205.792 196.866 205.792C196.498 205.792 196.218 205.936 196.026 206.224C195.834 206.512 195.714 206.88 195.666 207.328L192.378 206.752C192.538 205.52 193.042 204.64 193.89 204.112C194.738 203.584 195.73 203.32 196.866 203.32C198.322 203.32 199.41 203.704 200.13 204.472C200.866 205.24 201.234 206.24 201.234 207.472V214.456C201.234 215.208 201.354 216.008 201.594 216.856L198.306 217.144L197.922 215.488C197.634 216 197.21 216.432 196.65 216.784C196.09 217.136 195.514 217.312 194.922 217.312ZM196.482 214.912C196.754 214.912 196.978 214.848 197.154 214.72C197.346 214.592 197.578 214.384 197.85 214.096V210.352C197.05 210.352 196.41 210.568 195.93 211C195.45 211.432 195.21 212.104 195.21 213.016C195.21 213.624 195.314 214.096 195.522 214.432C195.746 214.752 196.066 214.912 196.482 214.912ZM207.299 217.312C204.707 217.312 203.411 214.96 203.411 210.256C203.411 207.808 203.731 206.04 204.371 204.952C205.011 203.864 206.011 203.32 207.371 203.32C207.947 203.32 208.499 203.512 209.027 203.896C209.555 204.264 209.939 204.728 210.179 205.288V199.432L213.563 199V216.856L211.019 217.144L210.179 215.32C210.019 215.912 209.723 216.392 209.291 216.76C208.859 217.128 208.195 217.312 207.299 217.312ZM208.547 214.912C209.027 214.912 209.419 214.648 209.723 214.12C210.027 213.576 210.179 212.664 210.179 211.384V206.872C209.715 206.152 209.171 205.792 208.547 205.792C208.019 205.792 207.627 205.984 207.371 206.368C207.131 206.736 206.971 207.224 206.891 207.832C206.827 208.44 206.795 209.248 206.795 210.256C206.795 211.28 206.827 212.112 206.891 212.752C206.971 213.392 207.139 213.912 207.395 214.312C207.651 214.712 208.035 214.912 208.547 214.912ZM220.729 217.312C219.129 217.312 217.905 216.68 217.057 215.416C216.209 214.136 215.785 212.44 215.785 210.328C215.785 208.184 216.217 206.48 217.081 205.216C217.945 203.952 219.201 203.32 220.849 203.32C222.417 203.32 223.617 203.952 224.449 205.216C225.281 206.48 225.697 208.184 225.697 210.328C225.697 210.456 225.673 210.552 225.625 210.616C225.577 210.664 225.553 210.696 225.553 210.712H219.145C219.145 211.752 219.281 212.704 219.553 213.568C219.825 214.416 220.241 214.84 220.801 214.84C221.425 214.84 221.889 214.48 222.193 213.76C222.497 213.04 222.657 212.664 222.673 212.632L225.217 213.592C224.881 214.744 224.345 215.656 223.609 216.328C222.873 216.984 221.913 217.312 220.729 217.312ZM222.385 208.768C222.385 207.808 222.257 207.048 222.001 206.488C221.745 205.928 221.345 205.648 220.801 205.648C220.529 205.648 220.265 205.784 220.009 206.056C219.753 206.328 219.545 206.704 219.385 207.184C219.225 207.664 219.145 208.192 219.145 208.768H222.385ZM231.762 217.312C230.434 217.312 229.362 217.016 228.546 216.424C227.73 215.816 227.202 214.976 226.962 213.904L229.578 213.04C229.642 213.344 229.762 213.616 229.938 213.856C230.306 214.384 230.842 214.648 231.546 214.648C231.946 214.648 232.33 214.56 232.698 214.384C233.066 214.208 233.25 213.936 233.25 213.568C233.25 213.072 232.906 212.688 232.218 212.416L229.386 211.264C228.634 210.944 228.058 210.464 227.658 209.824C227.258 209.184 227.058 208.4 227.058 207.472C227.058 206.608 227.266 205.864 227.682 205.24C228.114 204.616 228.674 204.144 229.362 203.824C230.066 203.488 230.818 203.32 231.618 203.32C232.626 203.32 233.554 203.616 234.402 204.208C235.25 204.784 235.818 205.576 236.106 206.584L233.322 207.448C233.258 207.176 233.146 206.904 232.986 206.632C232.634 206.088 232.186 205.816 231.642 205.816C231.242 205.816 230.898 205.912 230.61 206.104C230.322 206.28 230.178 206.544 230.178 206.896C230.178 207.312 230.57 207.696 231.354 208.048L233.754 209.032C234.602 209.432 235.266 209.936 235.746 210.544C236.226 211.152 236.466 211.968 236.466 212.992C236.466 213.92 236.242 214.712 235.794 215.368C235.346 216.008 234.762 216.496 234.042 216.832C233.322 217.152 232.562 217.312 231.762 217.312Z" fill="white"/>
</svg>
