<svg width="489" height="285" viewBox="0 0 489 285" fill="none" xmlns="http://www.w3.org/2000/svg">
<g opacity="0.7">
<path opacity="0.7" d="M371.698 0H116.798C114.614 0.00901918 112.522 0.996059 110.982 2.74413C109.443 4.49221 108.582 6.85824 108.588 9.32211V207.187C108.582 209.651 109.443 212.017 110.982 213.765C112.522 215.513 114.614 216.5 116.798 216.509H204.466V250.664H200.47C199.921 250.666 199.378 250.79 198.872 251.029C198.366 251.268 197.906 251.617 197.52 252.056C197.133 252.495 196.827 253.016 196.619 253.588C196.411 254.161 196.305 254.774 196.307 255.393V262.245H204.466V266.299H284.03V262.245H292.19V255.393C292.192 254.774 292.086 254.161 291.878 253.588C291.669 253.016 291.363 252.495 290.977 252.056C290.59 251.617 290.131 251.268 289.625 251.029C289.119 250.79 288.576 250.666 288.027 250.664H284.267V250.368H284.01V216.509H371.698C373.883 216.5 375.975 215.513 377.514 213.765C379.054 212.017 379.915 209.651 379.908 207.187V9.32211C379.915 6.85824 379.054 4.49221 377.514 2.74413C375.975 0.996059 373.883 0.00901918 371.698 0Z" fill="url(#paint0_linear)"/>
</g>
<path d="M283.763 210.628H205.237V262.859H283.763V210.628Z" fill="#BDBDBD"/>
<g opacity="0.1">
<path opacity="0.1" d="M206.782 215.737H282.374C283.285 211.269 284.015 208.357 284.015 208.357H204.985C204.985 208.357 205.795 211.258 206.782 215.737Z" fill="#003B72"/>
</g>
<path d="M118.706 1.70319H370.294C372.443 1.70319 374.505 2.66619 376.024 4.38036C377.544 6.09452 378.398 8.41943 378.398 10.8436V185.647H110.602V10.8436C110.602 8.41943 111.456 6.09452 112.976 4.38036C114.495 2.66619 116.557 1.70319 118.706 1.70319Z" fill="#003B72"/>
<path d="M370.294 214.034H118.706C116.557 214.034 114.495 213.071 112.976 211.357C111.456 209.642 110.602 207.318 110.602 204.893V185.647H378.398V204.893C378.398 207.318 377.544 209.642 376.024 211.357C374.505 213.071 372.443 214.034 370.294 214.034Z" fill="#BDBDBD"/>
<path d="M244.5 204.95C247.002 204.95 249.03 202.663 249.03 199.841C249.03 197.019 247.002 194.731 244.5 194.731C241.998 194.731 239.97 197.019 239.97 199.841C239.97 202.663 241.998 204.95 244.5 204.95Z" fill="#003B72"/>
<path d="M201.295 247.53H287.705C288.796 247.53 289.842 248.019 290.613 248.888C291.384 249.758 291.817 250.938 291.817 252.168V258.884H197.183V252.168C197.183 251.559 197.289 250.956 197.496 250.393C197.702 249.83 198.005 249.319 198.387 248.888C198.769 248.458 199.222 248.116 199.721 247.883C200.22 247.65 200.755 247.53 201.295 247.53Z" fill="#BDBDBD"/>
<g opacity="0.5">
<path opacity="0.5" d="M325.292 40.3769H163.708C162.457 40.3769 161.443 41.5207 161.443 42.9317V144.419C161.443 145.83 162.457 146.974 163.708 146.974H325.292C326.543 146.974 327.557 145.83 327.557 144.419V42.9317C327.557 41.5207 326.543 40.3769 325.292 40.3769Z" fill="url(#paint1_linear)"/>
</g>
<path d="M323.163 41.1603H165.837C164.586 41.1603 163.572 42.3042 163.572 43.7151V143.045C163.572 144.456 164.586 145.6 165.837 145.6H323.163C324.414 145.6 325.428 144.456 325.428 143.045V43.7151C325.428 42.3042 324.414 41.1603 323.163 41.1603Z" fill="white"/>
<g opacity="0.5">
<path opacity="0.5" d="M224.234 56.1541H210.925C209.674 56.1541 208.66 57.2979 208.66 58.7088V71.7098C208.66 73.1208 209.674 74.2646 210.925 74.2646H224.234C225.485 74.2646 226.499 73.1208 226.499 71.7098V58.7088C226.499 57.2979 225.485 56.1541 224.234 56.1541Z" fill="#DD3333"/>
</g>
<path d="M279.127 56.1541H232.741C232.249 56.1541 231.85 56.604 231.85 57.1589C231.85 57.7139 232.249 58.1638 232.741 58.1638H279.127C279.619 58.1638 280.018 57.7139 280.018 57.1589C280.018 56.604 279.619 56.1541 279.127 56.1541Z" fill="#E0E0E0"/>
<path d="M270.998 62.1947H232.741C232.249 62.1947 231.85 62.6446 231.85 63.1996C231.85 63.7546 232.249 64.2044 232.741 64.2044H270.998C271.49 64.2044 271.889 63.7546 271.889 63.1996C271.889 62.6446 271.49 62.1947 270.998 62.1947Z" fill="#E0E0E0"/>
<g opacity="0.5">
<path opacity="0.5" d="M224.234 84.3248H210.925C209.674 84.3248 208.66 85.4686 208.66 86.8796V99.8806C208.66 101.292 209.674 102.435 210.925 102.435H224.234C225.485 102.435 226.499 101.292 226.499 99.8806V86.8796C226.499 85.4686 225.485 84.3248 224.234 84.3248Z" fill="#DD3333"/>
</g>
<path d="M279.127 84.3248H232.741C232.249 84.3248 231.85 84.7747 231.85 85.3297C231.85 85.8847 232.249 86.3346 232.741 86.3346H279.127C279.619 86.3346 280.018 85.8847 280.018 85.3297C280.018 84.7747 279.619 84.3248 279.127 84.3248Z" fill="#E0E0E0"/>
<path d="M279.127 90.3597H232.741C232.249 90.3597 231.85 90.8096 231.85 91.3646C231.85 91.9196 232.249 92.3695 232.741 92.3695H279.127C279.619 92.3695 280.018 91.9196 280.018 91.3646C280.018 90.8096 279.619 90.3597 279.127 90.3597Z" fill="#E0E0E0"/>
<g opacity="0.5">
<path opacity="0.5" d="M224.234 112.495H210.925C209.674 112.495 208.66 113.639 208.66 115.05V128.051C208.66 129.462 209.674 130.606 210.925 130.606H224.234C225.485 130.606 226.499 129.462 226.499 128.051V115.05C226.499 113.639 225.485 112.495 224.234 112.495Z" fill="#DD3333"/>
</g>
<path d="M279.127 112.495H232.741C232.249 112.495 231.85 112.945 231.85 113.5C231.85 114.055 232.249 114.505 232.741 114.505H279.127C279.619 114.505 280.018 114.055 280.018 113.5C280.018 112.945 279.619 112.495 279.127 112.495Z" fill="#E0E0E0"/>
<path d="M279.54 118.53H232.651C232.208 118.53 231.85 118.935 231.85 119.433V119.638C231.85 120.136 232.208 120.54 232.651 120.54H279.54C279.982 120.54 280.34 120.136 280.34 119.638V119.433C280.34 118.935 279.982 118.53 279.54 118.53Z" fill="#E0E0E0"/>
<path d="M244.5 23.8446V11.3546" stroke="#DD3333" stroke-width="2" stroke-miterlimit="10"/>
<path d="M244.5 44.8506V28.4603" stroke="#DD3333" stroke-width="2" stroke-miterlimit="10"/>
<path d="M244.5 47.1216C245.612 47.1216 246.514 46.1048 246.514 44.8506C246.514 43.5964 245.612 42.5797 244.5 42.5797C243.388 42.5797 242.487 43.5964 242.487 44.8506C242.487 46.1048 243.388 47.1216 244.5 47.1216Z" fill="#DD3333"/>
<path d="M244.5 28.3864C245.612 28.3864 246.514 27.3697 246.514 26.1155C246.514 24.8613 245.612 23.8446 244.5 23.8446C243.388 23.8446 242.487 24.8613 242.487 26.1155C242.487 27.3697 243.388 28.3864 244.5 28.3864Z" stroke="white" stroke-miterlimit="10"/>
<path d="M244.5 23.8446V11.3546" stroke="#DD3333" stroke-width="2" stroke-miterlimit="10"/>
<path d="M244.5 44.8506V28.4603" stroke="#DD3333" stroke-width="2" stroke-miterlimit="10"/>
<path d="M244.5 47.1216C245.612 47.1216 246.514 46.1048 246.514 44.8506C246.514 43.5964 245.612 42.5797 244.5 42.5797C243.388 42.5797 242.487 43.5964 242.487 44.8506C242.487 46.1048 243.388 47.1216 244.5 47.1216Z" fill="#DD3333"/>
<path d="M244.5 28.3864C245.612 28.3864 246.514 27.3697 246.514 26.1155C246.514 24.8613 245.612 23.8446 244.5 23.8446C243.388 23.8446 242.487 24.8613 242.487 26.1155C242.487 27.3697 243.388 28.3864 244.5 28.3864Z" stroke="white" stroke-miterlimit="10"/>
<path d="M244.5 158.396V175.996" stroke="#DD3333" stroke-width="2" stroke-miterlimit="10"/>
<path d="M244.5 142.5V158.89" stroke="#DD3333" stroke-width="2" stroke-miterlimit="10"/>
<path d="M244.5 144.771C245.612 144.771 246.514 143.754 246.514 142.5C246.514 141.246 245.612 140.229 244.5 140.229C243.388 140.229 242.487 141.246 242.487 142.5C242.487 143.754 243.388 144.771 244.5 144.771Z" fill="#DD3333"/>
<path d="M153.892 95.6624H138.036" stroke="#DD3333" stroke-width="2" stroke-miterlimit="10"/>
<path d="M167.735 95.6624H153.203" stroke="#DD3333" stroke-width="2" stroke-miterlimit="10"/>
<path d="M167.735 97.9333C168.847 97.9333 169.749 96.9165 169.749 95.6623C169.749 94.4081 168.847 93.3914 167.735 93.3914C166.623 93.3914 165.722 94.4081 165.722 95.6623C165.722 96.9165 166.623 97.9333 167.735 97.9333Z" fill="#DD3333"/>
<g opacity="0.1">
<path opacity="0.1" d="M284.015 247.246H205.488V248.949H284.015V247.246Z" fill="#003B72"/>
</g>
<g opacity="0.7">
<path opacity="0.7" d="M90.2051 208.391H53.7606L54.264 203.769C64.5631 193.34 71.2227 165.555 71.2227 165.555C71.0749 165.579 70.9286 165.613 70.7848 165.658C64.7443 167.032 60.4454 169.83 57.4403 173.197L58.7188 160.9C77.7465 156.279 85.2921 127.892 85.2921 127.892C73.1507 130.93 65.5799 135.63 60.8783 140.093L62.7509 122.028C75.6172 127.007 88.9265 100.556 88.9265 100.556L88.4231 100.437L88.6748 100.255L88.2922 100.409C74.0718 96.9511 66.4708 106.12 64.0043 109.929L64.1906 108.158C63.8147 109.294 63.4489 110.406 63.0932 111.496V111.542C62.0864 114.619 61.1653 117.658 60.3297 120.659C59.6014 123.222 58.9202 125.758 58.286 128.267V128.233C58.286 128.233 57.697 112.075 42.5907 107.823C42.5907 107.823 44.1763 143.062 56.1466 137.294C55.0392 142.403 54.1331 147.32 53.3478 152.095C52.8478 155.202 52.4115 158.23 52.0391 161.178L51.9686 161.269L52.0391 161.201L52.0089 161.434C51.6733 164.11 51.388 166.717 51.1531 169.257C51.3847 164.363 50.5944 150.227 35.8253 136.942C35.8253 136.942 16.1936 175.854 49.6681 183.496C49.7436 183.57 49.8192 183.643 49.8896 183.711L49.8393 183.535L50.1413 183.609L50.2772 181.611C49.8737 189.952 49.9123 198.312 50.393 206.648C50.4282 207.215 50.4635 207.783 50.4987 208.323H13.6365C-0.427879 241.132 21.4489 259.112 21.4489 259.112H81.854C105.311 225.763 90.2051 208.391 90.2051 208.391Z" fill="url(#paint2_linear)"/>
</g>
<path opacity="0.6" d="M51.7068 220.847C51.7068 220.847 42.1427 173.725 63.2845 112.978" stroke="#003B72" stroke-width="3" stroke-miterlimit="10"/>
<path d="M14.457 206.653H88.4533C88.4533 206.653 103.051 227.659 80.3993 258.884H22.0076C22.0076 258.884 0.865799 237.311 14.457 206.653Z" fill="#DD3333"/>
<path d="M62.2224 116.101C62.2224 116.101 69.5767 101.34 87.1949 105.881C87.1949 105.881 72.6322 133.848 59.5092 124.69L62.2224 116.101Z" fill="#4DB6AC"/>
<path d="M57.5611 131.764C57.5611 131.764 56.9923 116.668 42.3944 112.694C42.3944 112.694 43.9045 145.622 55.4822 140.229L57.5611 131.764Z" fill="#4DB6AC"/>
<path d="M52.7891 154.059C52.7891 154.059 55.4821 138.242 83.6712 131.429C83.6712 131.429 74.6809 164.142 51.4904 162.83L52.7891 154.059Z" fill="#4DB6AC"/>
<path d="M50.5038 171.812C50.5038 171.812 53.4686 155.274 35.8505 139.945C35.8505 139.945 16.7222 176.66 49.6832 183.564L50.5038 171.812Z" fill="#4DB6AC"/>
<path d="M49.9752 194.544C49.9752 194.544 47.9315 171.17 70.0801 166.628C70.0801 166.628 61.9908 199.267 49.945 205.086L49.9752 194.544Z" fill="#4DB6AC"/>
<path opacity="0.3" d="M59.7609 124.9C59.7609 124.9 78.8892 108.436 86.9432 105.598" stroke="#003B72" stroke-miterlimit="10"/>
<path opacity="0.3" d="M51.4552 162.654C51.4552 162.654 74.6105 134.836 83.6712 131.429" stroke="#003B72" stroke-miterlimit="10"/>
<path opacity="0.3" d="M42.3944 112.694C42.3944 112.694 56.4889 134.268 55.4822 139.945" stroke="#003B72" stroke-miterlimit="10"/>
<path opacity="0.3" d="M35.8505 139.945C35.8505 139.945 43.4011 178.551 49.4416 183.66" stroke="#003B72" stroke-miterlimit="10"/>
<path opacity="0.3" d="M49.945 205.234C49.945 205.234 62.0261 167.764 70.0801 166.628" stroke="#003B72" stroke-miterlimit="10"/>
<g opacity="0.1">
<path opacity="0.1" d="M88.4533 206.653H14.457C14.2909 207.034 14.1298 207.414 13.9536 207.789H85.9364C85.9364 207.789 100.177 228.29 78.6878 258.884H80.3993C103.051 227.659 88.4533 206.653 88.4533 206.653Z" fill="#003B72"/>
</g>
<path d="M489 258.657H0V277.353H489V258.657Z" fill="#E0E0E0"/>
<path d="M468.276 277.353H20.719V285H468.276V277.353Z" fill="#E0E0E0"/>
<path opacity="0.1" d="M468.276 277.353H20.719V279.902H468.276V277.353Z" fill="#003B72"/>
<path d="M347.44 95.6624H350.461" stroke="#DD3333" stroke-width="2" stroke-miterlimit="10"/>
<path d="M320.761 95.6624H343.353" stroke="#DD3333" stroke-width="2" stroke-miterlimit="10"/>
<path d="M320.762 97.9333C321.874 97.9333 322.775 96.9165 322.775 95.6623C322.775 94.4081 321.874 93.3914 320.762 93.3914C319.649 93.3914 318.748 94.4081 318.748 95.6623C318.748 96.9165 319.649 97.9333 320.762 97.9333Z" fill="#DD3333"/>
<path d="M345.427 97.9333C346.539 97.9333 347.44 96.9165 347.44 95.6623C347.44 94.4081 346.539 93.3914 345.427 93.3914C344.315 93.3914 343.413 94.4081 343.413 95.6623C343.413 96.9165 344.315 97.9333 345.427 97.9333Z" stroke="white" stroke-miterlimit="10"/>
<g opacity="0.7">
<path opacity="0.7" d="M459.442 252.571L459.492 252.486C459.596 252.305 459.698 252.115 459.799 251.918L459.854 251.811C459.952 251.625 460.044 251.436 460.131 251.243L460.177 251.146C460.277 250.925 460.373 250.704 460.459 250.471C460.64 250.006 460.798 249.53 460.932 249.046L460.982 248.858C461.027 248.682 461.073 248.506 461.113 248.33L461.163 248.081C461.197 247.922 461.227 247.761 461.254 247.598C461.254 247.507 461.284 247.416 461.299 247.326C461.314 247.235 461.344 247.008 461.365 246.843C461.385 246.678 461.365 246.656 461.395 246.565C461.425 246.474 461.425 246.218 461.435 246.042C461.435 245.963 461.435 245.878 461.435 245.798C461.435 245.543 461.435 245.282 461.435 245.026V198.137H454.463V175.156H445.906V198.137H440.006V165.13H431.449V198.137H428.232V160.412H419.675V198.137H412.124V245.032C412.124 252.685 417.767 258.884 424.709 258.884H448.871C450.846 258.893 452.796 258.382 454.565 257.39C456.334 256.398 457.873 254.954 459.059 253.173C459.183 252.973 459.311 252.772 459.442 252.571Z" fill="url(#paint3_linear)"/>
</g>
<path d="M428.736 182.241H420.682V239.014H428.736V182.241Z" fill="#003B72"/>
<path d="M428.736 163.506H420.682V182.241H428.736V163.506Z" fill="#3AD29F"/>
<path d="M439.81 186.783H431.756V243.556H439.81V186.783Z" fill="#003B72"/>
<path d="M439.81 168.048H431.756V186.783H439.81V168.048Z" fill="#4D8AF0"/>
<path d="M453.401 196.434H445.347V253.207H453.401V196.434Z" fill="#003B72"/>
<path d="M453.401 177.699H445.347V196.434H453.401V177.699Z" fill="#F55F44"/>
<path d="M413.635 199.841H459.945V244.975C459.945 248.514 458.699 251.907 456.48 254.409C454.262 256.911 451.253 258.317 448.116 258.317H425.464C422.327 258.317 419.318 256.911 417.099 254.409C414.881 251.907 413.635 248.514 413.635 244.975V199.841Z" fill="#DD3333"/>
<g opacity="0.1">
<path opacity="0.1" d="M413.635 199.841V202.112H457.932V247.246C457.936 250.229 457.049 253.127 455.415 255.472C456.827 254.226 457.97 252.633 458.755 250.814C459.54 248.995 459.947 246.998 459.945 244.975V199.841H413.635Z" fill="#003B72"/>
</g>
<defs>
<linearGradient id="paint0_linear" x1="244.248" y1="266.293" x2="244.248" y2="0" gradientUnits="userSpaceOnUse">
<stop stop-color="#808080" stop-opacity="0.25"/>
<stop offset="0.54" stop-color="#808080" stop-opacity="0.12"/>
<stop offset="1" stop-color="#808080" stop-opacity="0.1"/>
</linearGradient>
<linearGradient id="paint1_linear" x1="80846.4" y1="27636.2" x2="80846.4" y2="7621.54" gradientUnits="userSpaceOnUse">
<stop stop-color="#808080" stop-opacity="0.25"/>
<stop offset="0.54" stop-color="#808080" stop-opacity="0.12"/>
<stop offset="1" stop-color="#808080" stop-opacity="0.1"/>
</linearGradient>
<linearGradient id="paint2_linear" x1="11370.3" y1="82225.5" x2="26088.6" y2="82225.5" gradientUnits="userSpaceOnUse">
<stop stop-color="#808080" stop-opacity="0.25"/>
<stop offset="0.54" stop-color="#808080" stop-opacity="0.12"/>
<stop offset="1" stop-color="#808080" stop-opacity="0.1"/>
</linearGradient>
<linearGradient id="paint3_linear" x1="46419" y1="56120.5" x2="51251.5" y2="56120.5" gradientUnits="userSpaceOnUse">
<stop stop-color="#808080" stop-opacity="0.25"/>
<stop offset="0.54" stop-color="#808080" stop-opacity="0.12"/>
<stop offset="1" stop-color="#808080" stop-opacity="0.1"/>
</linearGradient>
</defs>
</svg>
