<svg width="419" height="382" viewBox="0 0 419 382" fill="none" xmlns="http://www.w3.org/2000/svg">
<path d="M233.626 382C317.514 382 385.519 369.506 385.519 354.094C385.519 338.683 317.514 326.189 233.626 326.189C149.737 326.189 81.7321 338.683 81.7321 354.094C81.7321 369.506 149.737 382 233.626 382Z" fill="#DD3333"/>
<path d="M132.54 173.413C142.195 158.489 146.387 140.46 144.356 122.597C142.326 104.734 134.206 88.2191 121.471 76.0475C108.736 63.8758 92.2281 56.8532 74.941 56.2532C57.654 55.6532 40.7326 61.5156 27.2454 72.7772C13.7581 84.0387 4.59819 99.9538 1.42664 117.636C-1.74491 135.319 1.28194 153.598 9.95829 169.159C18.6346 184.719 32.386 196.532 48.7185 202.453C65.0511 208.374 82.8834 208.013 98.9817 201.434C100.025 205.308 101.977 208.852 104.66 211.75C107.344 214.647 110.677 216.807 114.361 218.037C118.044 219.266 121.963 219.527 125.768 218.795C129.572 218.063 133.142 216.361 136.158 213.842C139.175 211.323 141.544 208.066 143.053 204.362C144.562 200.657 145.164 196.622 144.806 192.616C144.447 188.61 143.139 184.759 140.999 181.408C138.858 178.057 135.952 175.31 132.54 173.413Z" fill="#003B72"/>
<path d="M115.472 116.386H29.4341V123.45H115.472V116.386Z" fill="white"/>
<path d="M115.472 128.159H29.4341V135.222H115.472V128.159Z" fill="white"/>
<path d="M115.472 139.932H29.4341V146.996H115.472V139.932Z" fill="white"/>
<path d="M286.46 117.462C276.805 102.538 272.613 84.5091 274.644 66.646C276.674 48.7829 284.794 32.2681 297.529 20.0964C310.264 7.92471 326.772 0.902123 344.059 0.302139C361.346 -0.297845 378.267 5.56451 391.755 16.8261C405.242 28.0877 414.402 44.0028 417.573 61.6853C420.745 79.3678 417.718 97.6469 409.042 113.208C400.365 128.768 386.614 140.58 370.281 146.502C353.949 152.423 336.117 152.062 320.018 145.483C318.975 149.357 317.023 152.901 314.34 155.799C311.656 158.696 308.323 160.856 304.639 162.086C300.956 163.315 297.037 163.576 293.232 162.844C289.428 162.111 285.858 160.41 282.842 157.891C279.825 155.372 277.456 152.115 275.947 148.411C274.438 144.706 273.836 140.67 274.194 136.665C274.553 132.659 275.861 128.808 278.001 125.457C280.142 122.106 283.048 119.359 286.46 117.462Z" fill="#003B72"/>
<path d="M303.528 67.4984L389.566 67.4984V60.4346L303.528 60.4346V67.4984Z" fill="white"/>
<path d="M303.528 79.2714L389.566 79.2714V72.2076L303.528 72.2076V79.2714Z" fill="white"/>
<path d="M303.528 91.0444L389.566 91.0444V83.9806L303.528 83.9806V91.0444Z" fill="white"/>
<path d="M160.861 323.341C155.471 315.008 153.131 304.943 154.264 294.971C155.398 284.998 159.931 275.778 167.041 268.983C174.151 262.187 183.367 258.267 193.018 257.932C202.669 257.597 212.116 260.87 219.646 267.157C227.176 273.444 232.289 282.329 234.06 292.201C235.831 302.073 234.141 312.278 229.297 320.965C224.453 329.653 216.776 336.247 207.658 339.553C198.539 342.859 188.584 342.657 179.596 338.984C179.014 341.147 177.924 343.126 176.426 344.743C174.928 346.361 173.067 347.567 171.01 348.253C168.954 348.94 166.766 349.085 164.642 348.676C162.518 348.268 160.525 347.318 158.841 345.912C157.157 344.505 155.835 342.687 154.992 340.619C154.149 338.551 153.813 336.297 154.013 334.061C154.213 331.825 154.944 329.675 156.139 327.804C157.334 325.933 158.956 324.399 160.861 323.341Z" fill="#003B72"/>
<path d="M178.506 303.802C181.087 303.802 183.179 301.626 183.179 298.942C183.179 296.258 181.087 294.083 178.506 294.083C175.926 294.083 173.833 296.258 173.833 298.942C173.833 301.626 175.926 303.802 178.506 303.802Z" fill="white"/>
<path d="M194.449 303.802C197.03 303.802 199.122 301.626 199.122 298.942C199.122 296.258 197.03 294.083 194.449 294.083C191.869 294.083 189.776 296.258 189.776 298.942C189.776 301.626 191.869 303.802 194.449 303.802Z" fill="white"/>
<path d="M210.392 303.802C212.973 303.802 215.065 301.626 215.065 298.942C215.065 296.258 212.973 294.083 210.392 294.083C207.812 294.083 205.719 296.258 205.719 298.942C205.719 301.626 207.812 303.802 210.392 303.802Z" fill="white"/>
<path d="M199.129 148.185C199.129 148.185 219.979 148.774 223.422 150.077C226.866 151.38 228.405 160.696 228.405 160.696L212.217 165.988L200.109 165.274L190.996 165.944L196.084 152.086L199.129 148.185Z" fill="#003B72"/>
<path d="M200.028 141.07C200.028 141.07 201.4 146.58 198.356 150.481C195.311 154.382 211.444 168.284 211.444 168.284L219.954 166.763C219.954 166.763 218.079 149.833 220.598 145.546C223.118 141.259 200.028 141.07 200.028 141.07Z" fill="#F6F3F5"/>
<path opacity="0.1" d="M200.028 141.07C200.028 141.07 201.4 146.58 198.356 150.481C195.311 154.382 211.444 168.284 211.444 168.284L219.954 166.763C219.954 166.763 218.079 149.833 220.598 145.546C223.118 141.259 200.028 141.07 200.028 141.07Z" fill="#DD3333"/>
<path d="M256.629 302.164L237.851 328.06L250.666 335.841L268.303 305.832L256.629 302.164Z" fill="#F6F3F5"/>
<path d="M243.457 328.497C243.457 328.497 236.542 320.142 236.85 322.005C237.158 323.868 231.93 339.67 236.794 341.198C241.658 342.727 283.372 346.781 283.946 341.882C284.52 336.984 271.502 333.556 271.502 333.556C271.502 333.556 263.768 325.826 262.053 326.612C260.338 327.398 243.457 328.497 243.457 328.497Z" fill="#003B72"/>
<path d="M252.416 326.896L267.415 353.469L278.738 346.65L263.614 324.894L252.416 326.896Z" fill="#F6F3F5"/>
<path d="M276.093 263.675L271.641 270.226C271.641 270.226 250.421 300.875 252.675 303.35C254.928 305.825 264.314 315.178 269.087 313.365C273.86 311.553 290.818 280.226 290.818 280.226L286.395 261.834L276.093 263.675Z" fill="#003B72"/>
<path d="M184.68 257.474C184.68 257.474 189.432 266.696 201.477 269.818C213.523 272.941 226.107 279.324 226.555 279.244C227.002 279.164 228.269 278.458 228.577 280.321C228.885 282.184 232.189 285.431 232.189 285.431C232.189 285.431 245.494 332.449 250.575 332.5C255.656 332.551 266.099 328.766 266.316 327.289C266.532 325.811 250.757 277.795 250.603 276.864L248.755 265.684C248.755 265.684 269.619 269.149 271.564 269.76C273.51 270.371 290.818 280.226 290.818 280.226C290.818 280.226 308.463 267.001 291.959 253.645C275.456 240.29 247.089 230.493 247.089 230.493L236.913 227.516L228.044 226.965L226.738 221.758L205.733 223.018L183.812 232.691L184.68 257.474Z" fill="#003B72"/>
<path d="M212.402 152.037C221.439 152.037 228.764 144.419 228.764 135.022C228.764 125.624 221.439 118.006 212.402 118.006C203.366 118.006 196.04 125.624 196.04 135.022C196.04 144.419 203.366 152.037 212.402 152.037Z" fill="#F6F3F5"/>
<path d="M197.6 148.698L199.568 148.346C199.568 148.346 203.122 162.578 214.117 164.929C214.117 164.929 219.543 158.17 219.311 157.029C219.079 155.889 223.608 149.804 226.015 153.21C228.423 156.617 225.428 216.62 227.45 217.697C229.473 218.775 233.812 219.917 230.32 223.899C226.827 227.88 212.955 233.237 209.883 231.388C206.81 229.54 200.532 213.876 197.817 208.607C195.101 203.337 190.755 185.41 190.755 185.41C190.755 185.41 185.205 165.78 188.62 161.333C192.036 156.886 197.6 148.698 197.6 148.698Z" fill="#DD3333"/>
<path d="M213.259 222.568C212.893 226.748 212.267 230.899 211.385 234.994C210.582 238.326 209.648 240.338 208.582 240.253C205.861 240.041 204.624 244.191 203.987 248.975C203.305 254.05 203.305 259.84 202.932 261.887C202.437 264.59 199.271 266.653 192.945 266.048C189.178 265.602 185.48 264.659 181.942 263.241C173.401 260.012 173.654 233.823 175.083 214.389C175.956 202.478 177.27 193.098 177.27 193.098C177.27 193.098 174.676 185.05 173.846 179.535C173.681 178.528 173.598 177.509 173.599 176.488C173.725 171.67 182.184 158.65 187.295 150.539C192.412 142.428 199.392 148.379 199.392 148.379L196.963 156.003C196.963 156.003 200.728 162.045 200.755 167.795C200.783 173.545 209.769 177.694 212.995 180.478C215.023 182.227 214.974 205.576 213.259 222.568Z" fill="#003B72"/>
<path d="M220.364 151.103C220.364 151.103 220.953 151.828 223.653 151.474C226.891 151.05 231.343 152.215 232.377 155.43C234.274 161.326 239.621 185.308 239.621 185.308C239.621 185.308 241.847 212.726 242.848 218.782C243.849 224.838 243.352 230.202 244.339 233.382C245.325 236.563 234.596 227.451 230.642 228.637C226.687 229.823 224.147 214.451 224.644 209.087C225.141 203.723 225.56 197.893 224.189 192.383C222.817 186.873 225.249 172.291 225.158 168.95C225.067 165.609 216.438 157.189 220.364 151.103Z" fill="#003B72"/>
<path d="M231.941 236.318C231.941 236.318 249.265 246.147 250.923 260.136C252.581 274.126 227.751 246.591 227.751 246.591L231.941 236.318Z" fill="#F6F3F5"/>
<path d="M241.83 226.397C241.83 226.397 247.139 254.223 255.408 252.745C263.678 251.267 250.789 224.796 250.789 224.796L241.83 226.397Z" fill="#F6F3F5"/>
<path d="M270.151 347.705C270.151 347.705 265.917 352.778 264.867 352.006C263.817 351.235 261.402 361.738 263.579 363.747C265.756 365.756 274.14 369.053 274.231 372.393C274.322 375.734 296.81 375.072 297.615 371.571C298.42 368.07 294.794 360.085 292.246 358.623C289.699 357.16 280.279 343.695 280.279 343.695C280.279 343.695 272.901 344.815 270.151 347.705Z" fill="#003B72"/>
<path opacity="0.1" d="M229.181 253.336C225.164 250.387 213.946 249.655 203.987 248.975C199.617 248.683 195.49 248.398 192.319 247.935C189.263 247.495 186.515 244.591 184.074 240.264C180.375 233.708 177.385 223.877 175.083 214.389C175.956 202.478 177.27 193.098 177.27 193.098C177.27 193.098 174.676 185.051 173.846 179.535C174.431 178.688 175.185 177.982 176.055 177.466C186.619 172.75 196.704 219.156 197.985 226.438C198.007 226.558 198.024 226.672 198.04 226.769C198.661 230.519 205.372 233.725 211.385 234.994C215.089 235.777 218.535 235.829 220.124 234.811C224.295 232.148 237.123 242.808 238.096 243.111C239.069 243.419 234.952 257.583 229.181 253.336Z" fill="#DD3333"/>
<path d="M176.057 174.609C176.057 174.609 168.379 178.379 171.753 196.001C175.126 213.622 181.922 243.58 192.316 245.079C202.709 246.578 223.405 246.236 229.179 250.48C234.953 254.723 239.068 240.559 238.096 240.253C237.123 239.948 224.294 229.292 220.122 231.956C215.951 234.62 199.042 229.969 198.041 223.913C197.04 217.858 186.793 169.813 176.057 174.609Z" fill="#003B72"/>
<path d="M231.383 166.159L239.822 186.52C239.822 186.52 240.671 186.08 241.658 189.26C242.645 192.441 243.107 195.236 244.835 197.325C246.564 199.414 254.256 229.212 254.487 230.609C254.718 232.007 243.863 236.824 241.438 232.942C239.012 229.059 231.383 166.159 231.383 166.159Z" fill="#003B72"/>
<path d="M203.093 134.785C203.721 134.611 203.813 133.745 203.834 133.07C203.946 129.458 206.038 125.751 209.363 124.699C210.639 124.335 211.975 124.259 213.282 124.475C215.147 124.733 216.948 125.358 218.589 126.316C219.455 126.822 220.304 127.432 221.287 127.587C221.935 127.689 224.744 128.538 225.39 128.658C226.811 128.921 228.131 130.242 229.494 129.75C230.798 129.28 231.086 127.524 231.118 126.089C231.19 122.82 228.803 118.296 226.701 115.864C225.106 114.018 222.704 113.166 220.357 112.723C217.614 112.265 214.835 112.089 212.059 112.198C208.302 112.268 204.44 112.57 201.052 114.26C197.664 115.951 194.818 119.316 194.656 123.22C194.622 124.033 194.703 124.85 194.637 125.661C194.477 127.64 193.466 129.428 192.992 131.351C192.653 132.763 192.603 134.233 192.844 135.666C193.084 137.099 193.611 138.464 194.39 139.672C195.648 141.596 197.624 143.337 197.551 145.662L200.278 142.725C200.685 142.401 200.973 141.943 201.095 141.425C201.216 140.907 201.162 140.362 200.944 139.88L199.979 135.966C199.731 135.267 199.701 134.504 199.895 133.787C200.93 131.129 202.048 135.075 203.093 134.785Z" fill="#003B72"/>
<path d="M327 330.552C326.887 330.36 324.223 325.734 323.3 316.128C322.452 307.314 322.997 292.458 330.406 271.736C344.441 232.478 327.171 200.803 326.995 200.487L327.847 199.973C327.891 200.053 332.348 208.129 334.98 220.989C338.459 238.038 337.192 255.765 331.329 272.093C317.318 311.283 327.734 329.836 327.841 330.019L327 330.552Z" fill="#003B72"/>
<path d="M321.512 198.182C325.047 198.182 327.913 195.202 327.913 191.526C327.913 187.85 325.047 184.87 321.512 184.87C317.977 184.87 315.112 187.85 315.112 191.526C315.112 195.202 317.977 198.182 321.512 198.182Z" fill="#DD3333"/>
<path d="M341.699 222.759C345.234 222.759 348.1 219.779 348.1 216.103C348.1 212.427 345.234 209.447 341.699 209.447C338.164 209.447 335.298 212.427 335.298 216.103C335.298 219.779 338.164 222.759 341.699 222.759Z" fill="#DD3333"/>
<path d="M327.913 239.144C331.448 239.144 334.314 236.164 334.314 232.488C334.314 228.812 331.448 225.832 327.913 225.832C324.378 225.832 321.512 228.812 321.512 232.488C321.512 236.164 324.378 239.144 327.913 239.144Z" fill="#DD3333"/>
<path d="M344.653 252.969C348.188 252.969 351.054 249.989 351.054 246.313C351.054 242.637 348.188 239.656 344.653 239.656C341.118 239.656 338.253 242.637 338.253 246.313C338.253 249.989 341.118 252.969 344.653 252.969Z" fill="#DD3333"/>
<path d="M322.989 274.474C326.524 274.474 329.39 271.494 329.39 267.818C329.39 264.142 326.524 261.162 322.989 261.162C319.454 261.162 316.589 264.142 316.589 267.818C316.589 271.494 319.454 274.474 322.989 274.474Z" fill="#DD3333"/>
<path d="M330.867 330.797C330.867 330.797 324.466 314.412 343.669 302.124L330.867 330.797Z" fill="#003B72"/>
<path d="M322.995 330.5C322.995 330.5 320.082 313.076 297.536 313.225L322.995 330.5Z" fill="#003B72"/>
</svg>
