<svg width="441" height="410" viewBox="0 0 441 410" fill="none" xmlns="http://www.w3.org/2000/svg">
<g clip-path="url(#clip0)">
<path d="M66.9793 329.821C66.9793 354.61 53.8567 363.267 37.6705 363.267C37.2936 363.267 36.9188 363.262 36.546 363.251C35.7964 363.233 35.0529 363.196 34.3195 363.137C19.71 361.977 8.35962 352.874 8.35962 329.821C8.35962 305.965 35.501 275.861 37.5482 273.626L37.5523 273.623C37.6297 273.536 37.6705 273.493 37.6705 273.493C37.6705 273.493 66.9793 305.029 66.9793 329.821Z" fill="#3F3D56"/>
<path d="M36.6009 359.474L47.3218 342.652L36.5745 361.32L36.546 363.251C35.7963 363.233 35.0528 363.196 34.3195 363.137L35.4745 338.336L35.4663 338.143L35.4867 338.107L35.5947 335.764L24.8208 317.048L35.6273 334.007L35.6537 334.504L36.5276 315.765L27.3039 296.427L36.6396 312.473L37.5482 273.626L37.5522 273.493V273.623L37.4015 304.258L46.5824 292.113L37.3628 306.896L37.1204 323.674L45.6942 307.573L37.0837 326.144L36.9493 335.471L49.3956 313.059L36.9025 338.727L36.6009 359.474Z" fill="#F2F2F2"/>
<g opacity="0.7">
<path opacity="0.7" d="M406.924 156.065V150.094H380.344V177.707C380.344 179.25 380.89 180.731 381.862 181.823C382.834 182.914 384.153 183.528 385.527 183.528H401.741C403.116 183.528 404.434 182.914 405.406 181.823C406.378 180.731 406.924 179.25 406.924 177.707V171.587C408.757 171.587 410.515 170.77 411.811 169.314C413.107 167.858 413.835 165.884 413.835 163.826C413.835 161.768 413.107 159.793 411.811 158.338C410.515 156.882 408.757 156.065 406.924 156.065ZM406.924 168.602V159.05C408.052 159.05 409.134 159.553 409.931 160.449C410.729 161.344 411.177 162.559 411.177 163.826C411.177 165.093 410.729 166.307 409.931 167.203C409.134 168.099 408.052 168.602 406.924 168.602Z" fill="url(#paint0_linear)"/>
</g>
<path d="M406.069 156.999C404.821 156.999 403.601 157.415 402.563 158.194C401.526 158.972 400.717 160.079 400.239 161.374C399.762 162.669 399.637 164.093 399.88 165.468C400.124 166.843 400.725 168.105 401.607 169.096C402.49 170.087 403.614 170.762 404.838 171.036C406.062 171.309 407.331 171.169 408.484 170.633C409.637 170.096 410.622 169.188 411.315 168.023C412.009 166.857 412.379 165.487 412.379 164.086C412.379 162.206 411.714 160.404 410.531 159.075C409.347 157.746 407.743 156.999 406.069 156.999ZM406.069 168.446C405.301 168.446 404.55 168.191 403.912 167.712C403.273 167.232 402.775 166.551 402.482 165.754C402.188 164.958 402.111 164.081 402.261 163.235C402.41 162.389 402.78 161.612 403.323 161.002C403.866 160.392 404.558 159.977 405.311 159.809C406.065 159.64 406.845 159.727 407.555 160.057C408.265 160.387 408.871 160.946 409.298 161.663C409.724 162.38 409.952 163.223 409.952 164.086C409.952 165.242 409.543 166.351 408.815 167.169C408.087 167.987 407.099 168.446 406.069 168.446Z" fill="#DD3333"/>
<path opacity="0.1" d="M406.069 156.999C404.821 156.999 403.601 157.415 402.563 158.194C401.526 158.972 400.717 160.079 400.239 161.374C399.762 162.669 399.637 164.093 399.88 165.468C400.124 166.843 400.725 168.105 401.607 169.096C402.49 170.087 403.614 170.762 404.838 171.036C406.062 171.309 407.331 171.169 408.484 170.633C409.637 170.096 410.622 169.188 411.315 168.023C412.009 166.857 412.379 165.487 412.379 164.086C412.379 162.206 411.714 160.404 410.531 159.075C409.347 157.746 407.743 156.999 406.069 156.999ZM406.069 168.446C405.301 168.446 404.55 168.191 403.912 167.712C403.273 167.232 402.775 166.551 402.482 165.754C402.188 164.958 402.111 164.081 402.261 163.235C402.41 162.389 402.78 161.612 403.323 161.002C403.866 160.392 404.558 159.977 405.311 159.809C406.065 159.64 406.845 159.727 407.555 160.057C408.265 160.387 408.871 160.946 409.298 161.663C409.724 162.38 409.952 163.223 409.952 164.086C409.952 165.242 409.543 166.351 408.815 167.169C408.087 167.987 407.099 168.446 406.069 168.446Z" fill="#1C2331"/>
<path d="M381.8 151.548H406.069V176.731C406.069 178.148 405.568 179.507 404.676 180.509C403.784 181.511 402.573 182.074 401.312 182.074H386.557C385.296 182.074 384.086 181.511 383.194 180.509C382.301 179.507 381.8 178.148 381.8 176.731V151.548Z" fill="#DD3333"/>
<path opacity="0.1" d="M401.701 151.548V176.759C401.701 178.169 401.202 179.521 400.315 180.517C399.427 181.514 398.223 182.074 396.968 182.074H399.395C400.65 182.074 401.854 181.514 402.741 180.517C403.629 179.521 404.128 178.169 404.128 176.759V151.548H401.701Z" fill="#1C2331"/>
<path d="M386.589 131.228C386.382 131.236 386.178 131.295 385.993 131.4C385.808 131.506 385.645 131.656 385.518 131.84C385.199 132.488 385.776 133.218 386.303 133.664C387.275 134.487 388.3 135.295 388.961 136.443C389.622 137.591 389.83 139.194 389.107 140.295C388.164 141.732 385.913 142.041 385.695 143.809C385.555 144.945 386.429 145.914 387.315 146.484C389.501 147.89 392.319 148.265 393.902 150.466C394.557 148.953 396.022 148.079 397.483 147.705C398.943 147.332 400.46 147.36 401.941 147.106C402.183 147.101 402.42 147.032 402.634 146.905C402.848 146.778 403.032 146.596 403.171 146.374C403.585 145.43 402.406 144.299 402.813 143.352C403.123 142.631 404.033 142.687 404.698 142.398C405.78 141.928 406.226 140.364 405.919 139.107C405.612 137.85 404.744 136.868 403.832 136.062C401.372 133.892 398.415 132.616 395.424 131.698C394.033 131.271 392.4 130.601 390.955 130.536C389.561 130.474 387.97 130.963 386.589 131.228Z" fill="#EEEEEE"/>
<path d="M216.254 188.511L165.51 366.053" stroke="#E0E0E0" stroke-width="8" stroke-miterlimit="10"/>
<g opacity="0.7">
<path opacity="0.7" d="M255.571 386.049C249.329 386.455 243.768 392.328 243.768 392.328L241.079 384.837L240.86 384.917C242.173 378.46 268.899 245.338 242.145 233.862C221.587 225.044 199.781 214.131 182.697 214.541V183.093H206.649V181.972H225.61C229.245 179.056 223.964 177.051 218.061 175.798C218.301 175.489 218.513 175.153 218.693 174.796L249.063 113.604C249.063 113.604 256.049 100.714 251.558 94.55C247.067 88.3856 240.58 110.241 240.58 110.241L215.63 150.59C215.63 150.59 190.449 121.114 174.43 106.456C172.653 104.477 170.647 102.775 168.467 101.394C165.543 99.1725 163.329 98.0213 162.238 98.4728C162.227 98.4774 162.218 98.485 162.207 98.4899C159.779 97.7352 157.272 97.3524 154.753 97.352H152.757V92.7539C157.228 91.0955 161.319 88.3499 164.737 84.7126C168.155 81.0753 170.816 76.636 172.531 71.7111C175.346 66.4752 177.065 60.5895 177.559 54.4983C178.052 48.4071 177.308 42.2696 175.381 36.549C175.678 36.5094 175.965 36.398 176.221 36.2222C177.125 35.5689 177.214 34.1397 177.127 32.9366C176.799 28.8989 175.6 25.0116 173.635 21.6109C171.669 18.2102 168.995 15.3983 165.845 13.4186C163.316 11.866 160.421 10.7962 158.557 8.32872C156.955 6.20845 156.281 3.24301 154.343 1.51302C152.04 -0.542241 148.713 -0.188915 145.887 0.728168C142.743 1.75002 139.763 3.32896 137.062 5.40541C134.005 7.75659 131.246 10.7772 127.727 12.0786C125.227 13.0033 122.515 12.9849 119.999 13.8536C118.068 14.5408 116.307 15.7261 114.856 17.3145C113.406 18.903 112.307 20.8506 111.647 23.0015C111.006 25.3122 110.764 27.7389 110.933 30.1516C109.402 33.0242 108.198 36.1006 107.348 39.3091C107.16 39.4234 106.971 39.5351 106.784 39.6529L107.331 39.3766C105.423 46.6117 105.359 54.3029 107.148 61.5764C108.937 68.85 112.507 75.4141 117.452 80.5231C121.359 86.2359 126.706 90.4973 132.797 92.7539V98.3165C128.451 99.3692 124.305 101.276 120.55 103.949L120.545 103.942C120.545 103.942 120.227 104.163 119.681 104.575C119.627 104.616 119.572 104.658 119.518 104.699C115.825 107.514 103.452 117.798 103.87 128.91C103.854 129.337 103.856 129.766 103.877 130.196C103.201 133.407 102.859 136.696 102.858 139.995V220.64C102.848 229.551 105.515 238.205 110.426 245.203C100.013 247.825 93.3767 251.789 93.3767 256.225C93.429 256.597 93.429 256.975 93.3767 257.346C93.3767 265.238 114.377 271.636 140.282 271.636C143.414 271.636 146.474 271.542 149.434 271.364L178.705 297.975L131.799 382.595C131.799 382.595 116.33 396.045 128.306 400.528C140.282 405.011 164.733 408.374 164.733 408.374C164.733 408.374 168.725 400.528 163.236 397.166C157.747 393.803 150.262 395.485 150.262 395.485L151.26 388.76C151.26 388.76 232.596 310.304 215.63 283.405C212.385 278.259 209.139 272.949 205.865 267.722L218.669 269.032L221.583 392.192L221.947 392.059C221.216 394.478 216.043 412.739 227.509 409.649C239.784 406.341 262.119 394.672 262.119 394.672C262.119 394.672 261.813 385.642 255.571 386.049ZM206.649 174.127L182.697 166.317V143.305L208.73 174.34C207.45 174.196 206.649 174.127 206.649 174.127Z" fill="url(#paint1_linear)"/>
</g>
<path d="M142.577 93.7117C161.979 93.7117 177.708 76.0476 177.708 54.2578C177.708 32.4681 161.979 14.804 142.577 14.804C123.175 14.804 107.446 32.4681 107.446 54.2578C107.446 76.0476 123.175 93.7117 142.577 93.7117Z" fill="#1C2331"/>
<path d="M182.587 144.673L209.397 176.635C209.962 177.308 210.66 177.823 211.434 178.136C212.209 178.449 213.038 178.553 213.855 178.44C214.672 178.326 215.454 177.997 216.137 177.48C216.82 176.964 217.384 176.273 217.785 175.466L247.481 115.631L239.187 112.343L214.79 151.797C214.79 151.797 168.99 98.1851 162.582 100.835C156.174 103.486 182.587 144.673 182.587 144.673Z" fill="#DD3333"/>
<path d="M131.355 255.363L91.8324 370.437" stroke="#BDBDBD" stroke-width="5" stroke-miterlimit="10"/>
<path d="M150.872 255.363L190.394 370.437" stroke="#BDBDBD" stroke-width="5" stroke-miterlimit="10"/>
<path d="M141.113 270.158C166.444 270.158 186.978 263.902 186.978 256.185C186.978 248.468 166.444 242.212 141.113 242.212C115.782 242.212 95.2479 248.468 95.2479 256.185C95.2479 263.902 115.782 270.158 141.113 270.158Z" fill="#B84733"/>
<path d="M141.113 269.062C166.444 269.062 186.978 262.806 186.978 255.089C186.978 247.372 166.444 241.116 141.113 241.116C115.782 241.116 95.2479 247.372 95.2479 255.089C95.2479 262.806 115.782 269.062 141.113 269.062Z" fill="#F55F44"/>
<path d="M121.814 280.646L165.088 295.621" stroke="#BDBDBD" stroke-width="5" stroke-miterlimit="10"/>
<path d="M160.413 280.646L117.138 295.621" stroke="#BDBDBD" stroke-width="5" stroke-miterlimit="10"/>
<path d="M141.647 99.7395H155.263C162.51 99.7395 169.46 102.973 174.584 108.727C179.708 114.482 182.587 122.287 182.587 130.426V211.526H104.519V141.437C104.519 130.378 108.43 119.772 115.393 111.952C122.356 104.133 131.8 99.7395 141.647 99.7395Z" fill="#DD3333"/>
<path d="M104.519 211.526H182.587V259.199H139.161C129.974 259.199 121.162 255.1 114.665 247.804C108.168 240.507 104.519 230.612 104.519 220.293V211.526Z" fill="#003B72"/>
<path opacity="0.05" d="M105.573 132.639L153.311 183.579H206.008V175.907L160.63 161.112L121.814 107.279C121.814 107.279 104.188 119.509 105.573 132.639Z" fill="#1C2331"/>
<path d="M105.573 131.543L153.311 182.483H206.008V174.811L160.63 160.016L121.814 106.183C121.814 106.183 104.188 118.414 105.573 131.543Z" fill="#DD3333"/>
<path d="M206.008 174.812C206.008 174.812 231.38 177.003 224.549 182.483H206.008V174.812Z" fill="#FDA57D"/>
<path d="M239.187 112.343C239.187 112.343 245.53 90.972 249.921 96.9997C254.312 103.027 247.481 115.631 247.481 115.631L239.187 112.343Z" fill="#FDA57D"/>
<path opacity="0.05" d="M104.519 211.525V214.083L182.587 214.265V211.525H104.519Z" fill="#1C2331"/>
<path d="M165.247 262.237L217.762 267.612L220.611 388.04L239.411 381.167C239.411 381.167 267.528 244.723 240.717 233.222C213.905 221.721 184.923 206.576 167.619 218.919C150.315 231.261 165.247 262.237 165.247 262.237Z" fill="#003B72"/>
<path opacity="0.1" d="M168.437 225.225C168.437 225.225 197.225 241.664 201.128 260.295L168.437 225.225Z" fill="#1C2331"/>
<path d="M137.698 258.651L178.684 295.913L132.818 378.656L151.848 384.684C151.848 384.684 231.38 307.968 214.79 281.666C198.201 255.363 181.611 224.677 161.118 224.129C140.625 223.581 137.698 258.651 137.698 258.651Z" fill="#003B72"/>
<path opacity="0.05" d="M202.104 137.549L212.351 157.276L214.79 151.797L202.104 137.549Z" fill="#1C2331"/>
<path d="M132.818 378.656C132.818 378.656 117.693 391.808 129.403 396.192C141.113 400.575 165.022 403.863 165.022 403.863C165.022 403.863 168.925 396.192 163.558 392.904C158.191 389.616 150.872 391.26 150.872 391.26L151.848 384.684L132.818 378.656Z" fill="#003B72"/>
<path d="M221.047 387.651C221.047 387.651 214.403 408.345 226.406 405.11C238.409 401.875 260.248 390.465 260.248 390.465C260.248 390.465 259.948 381.636 253.845 382.033C247.741 382.431 242.304 388.173 242.304 388.173L239.675 380.848L221.047 387.651Z" fill="#003B72"/>
<path d="M143.553 80.5605H143.553C138.163 80.5605 133.794 85.4672 133.794 91.52V102.479C133.794 108.532 138.163 113.439 143.553 113.439H143.553C148.942 113.439 153.311 108.532 153.311 102.479V91.52C153.311 85.4672 148.942 80.5605 143.553 80.5605Z" fill="#FDA57D"/>
<path opacity="0.05" d="M143.553 81.6565C140.965 81.6565 138.483 82.8111 136.652 84.8664C134.822 86.9217 133.794 89.7093 133.794 92.6159V96.3394C140.133 98.681 146.973 98.681 153.311 96.3394V92.6159C153.311 89.7093 152.283 86.9217 150.453 84.8664C148.623 82.8111 146.141 81.6565 143.553 81.6565Z" fill="#1C2331"/>
<path d="M143.553 96.9996C160.799 96.9996 174.78 81.2982 174.78 61.9295C174.78 42.5608 160.799 26.8594 143.553 26.8594C126.306 26.8594 112.325 42.5608 112.325 61.9295C112.325 81.2982 126.306 96.9996 143.553 96.9996Z" fill="#FDA57D"/>
<path opacity="0.05" d="M112.325 60.3381C112.325 60.3381 120.132 62.5975 124.524 52.6327C128.915 42.668 132.33 37.2326 150.384 43.1209C168.437 49.0092 172.069 49.7276 172.937 44.1595C173.53 40.3547 167.11 31.1128 162.985 25.6412C160.973 22.9719 157.689 21.3796 154.179 21.3796H133.794L121.596 27.7209L112.325 36.7797L110.374 49.0092L112.325 60.3381Z" fill="#1C2331"/>
<path d="M112.325 59.2423C112.325 59.2423 120.132 61.5017 124.524 51.5369C128.915 41.5721 132.33 36.1368 150.384 42.0251C168.437 47.9134 172.069 48.6318 172.937 43.0637C173.53 39.2589 167.11 30.017 162.985 24.5454C160.973 21.8761 157.689 20.2838 154.179 20.2838H133.794L121.596 26.625L112.325 35.6839L110.374 47.9134L112.325 59.2423Z" fill="#1C2331"/>
<path d="M115.497 66.3133C117.249 66.3133 118.669 63.1239 118.669 59.1897C118.669 55.2554 117.249 52.066 115.497 52.066C113.745 52.066 112.325 55.2554 112.325 59.1897C112.325 63.1239 113.745 66.3133 115.497 66.3133Z" fill="#FDA57D"/>
<path d="M113.23 40.8596C112.507 36.2723 111.796 31.4554 113.113 27.038C113.758 24.9348 114.833 23.0304 116.251 21.4772C117.669 19.9239 119.391 18.765 121.28 18.093C123.74 17.2436 126.392 17.2616 128.837 16.3574C132.278 15.0848 134.975 12.1312 137.964 9.83217C140.606 7.80176 143.519 6.25784 146.594 5.25866C149.357 4.3619 152.61 4.01641 154.862 6.02611C156.758 7.71773 157.416 10.6174 158.982 12.6906C160.805 15.1034 163.636 16.1494 166.109 17.6676C169.189 19.6035 171.804 22.3529 173.726 25.6782C175.648 29.0035 176.82 32.8046 177.141 36.7527C177.226 37.9291 177.138 39.3266 176.255 39.9655C175.706 40.279 175.087 40.4058 174.475 40.3303C161.995 40.13 149.499 39.9288 137.07 38.6421C133.206 38.2421 129.335 37.7367 125.457 37.9017C119.456 38.1645 113.596 40.0213 108.358 43.32" fill="#1C2331"/>
<path d="M59.1863 353.587H15.9963C7.16178 353.587 0 361.63 0 371.552V371.552C0 381.474 7.16178 389.517 15.9963 389.517H59.1863C68.0208 389.517 75.1826 381.474 75.1826 371.552C75.1826 361.63 68.0208 353.587 59.1863 353.587Z" fill="#DD3333"/>
<path d="M280.986 225.316C281.176 225.309 281.355 225.219 281.487 225.065C281.619 224.912 281.693 224.707 281.693 224.494C281.693 224.281 281.619 224.076 281.487 223.923C281.355 223.769 281.176 223.68 280.986 223.672C280.796 223.68 280.616 223.769 280.484 223.923C280.353 224.076 280.279 224.281 280.279 224.494C280.279 224.707 280.353 224.912 280.484 225.065C280.616 225.219 280.796 225.309 280.986 225.316Z" fill="url(#paint2_linear)"/>
<path d="M388.377 188.511L439.121 391.31" stroke="#E0E0E0" stroke-width="8" stroke-miterlimit="10"/>
<path d="M439.327 182.572H165.304V194.564H439.327V182.572Z" fill="#E0E0E0"/>
<path d="M274.561 179.743H236.015C234.264 179.743 232.844 181.338 232.844 183.305V183.305C232.844 185.272 234.264 186.867 236.015 186.867H274.561C276.313 186.867 277.733 185.272 277.733 183.305C277.733 181.338 276.313 179.743 274.561 179.743Z" fill="#003B72"/>
<g opacity="0.7">
<path opacity="0.7" d="M357.968 100.321H273.937C266.332 100.321 260.168 107.244 260.168 115.784V171.492C260.168 180.032 266.332 186.956 273.937 186.956H357.968C365.572 186.956 371.737 180.032 371.737 171.492V115.784C371.737 107.244 365.572 100.321 357.968 100.321Z" fill="url(#paint3_linear)"/>
</g>
<path d="M354.753 101.919H275.25C268.019 101.919 262.157 108.503 262.157 116.624V172.251C262.157 180.372 268.019 186.956 275.25 186.956H354.753C361.984 186.956 367.846 180.372 367.846 172.251V116.624C367.846 108.503 361.984 101.919 354.753 101.919Z" fill="#3E3F49"/>
<path d="M356.216 101.919H276.714C269.483 101.919 263.62 108.503 263.62 116.624V172.251C263.62 180.372 269.483 186.956 276.714 186.956H356.216C363.448 186.956 369.31 180.372 369.31 172.251V116.624C369.31 108.503 363.448 101.919 356.216 101.919Z" fill="#003B72"/>
<path d="M321.403 147.687C323.289 147.687 324.818 145.97 324.818 143.851C324.818 141.733 323.289 140.015 321.403 140.015C319.516 140.015 317.987 141.733 317.987 143.851C317.987 145.97 319.516 147.687 321.403 147.687Z" fill="#E0E0E0"/>
</g>
<defs>
<linearGradient id="paint0_linear" x1="397.09" y1="183.528" x2="397.09" y2="150.094" gradientUnits="userSpaceOnUse">
<stop stop-color="#808080" stop-opacity="0.25"/>
<stop offset="0.53514" stop-color="#808080" stop-opacity="0.12"/>
<stop offset="1" stop-color="#808080" stop-opacity="0.1"/>
</linearGradient>
<linearGradient id="paint1_linear" x1="86843.1" y1="337884" x2="86843.1" y2="31115.9" gradientUnits="userSpaceOnUse">
<stop stop-color="#808080" stop-opacity="0.25"/>
<stop offset="0.53514" stop-color="#808080" stop-opacity="0.12"/>
<stop offset="1" stop-color="#808080" stop-opacity="0.1"/>
</linearGradient>
<linearGradient id="paint2_linear" x1="1306.39" y1="1024.39" x2="1306.39" y2="1019.45" gradientUnits="userSpaceOnUse">
<stop stop-color="#808080" stop-opacity="0.25"/>
<stop offset="0.53514" stop-color="#808080" stop-opacity="0.12"/>
<stop offset="1" stop-color="#808080" stop-opacity="0.1"/>
</linearGradient>
<linearGradient id="paint3_linear" x1="72505.6" y1="29658.2" x2="72505.6" y2="15961.2" gradientUnits="userSpaceOnUse">
<stop stop-color="#808080" stop-opacity="0.25"/>
<stop offset="0.53514" stop-color="#808080" stop-opacity="0.12"/>
<stop offset="1" stop-color="#808080" stop-opacity="0.1"/>
</linearGradient>
<clipPath id="clip0">
<rect width="441" height="410" fill="white"/>
</clipPath>
</defs>
</svg>
