<svg width="128" height="128" viewBox="0 0 128 128" fill="none" xmlns="http://www.w3.org/2000/svg">
<path d="M64 12.3749C80.825 12.3749 82.8 12.4499 89.45 12.7499C95.6 13.0249 98.925 14.0499 101.15 14.9249C104.1 16.0749 106.2 17.4249 108.4 19.6249C110.6 21.8249 111.975 23.9249 113.1 26.8749C113.95 29.0999 115 32.4249 115.275 38.5749C115.575 45.2249 115.65 47.1999 115.65 64.0249C115.65 80.8499 115.575 82.8249 115.275 89.4749C115 95.6249 113.975 98.9499 113.1 101.175C111.95 104.125 110.6 106.225 108.4 108.425C106.2 110.625 104.1 112 101.15 113.125C98.925 113.975 95.6 115.025 89.45 115.3C82.8 115.6 80.825 115.675 64 115.675C47.175 115.675 45.2 115.6 38.55 115.3C32.4 115.025 29.075 114 26.85 113.125C23.9 111.975 21.8 110.625 19.6 108.425C17.4 106.225 16.025 104.125 14.9 101.175C14.05 98.9499 13 95.6249 12.725 89.4749C12.425 82.8249 12.35 80.8499 12.35 64.0249C12.35 47.1999 12.425 45.2249 12.725 38.5749C13 32.4249 14.025 29.0999 14.9 26.8749C16.05 23.9249 17.4 21.8249 19.6 19.6249C21.8 17.4249 23.9 16.0499 26.85 14.9249C29.075 14.0749 32.4 13.0249 38.55 12.7499C45.2 12.4249 47.175 12.3749 64 12.3749ZM64 1.0249C46.9 1.0249 44.75 1.0999 38.025 1.3999C31.325 1.6999 26.75 2.7749 22.75 4.3249C18.6 5.9249 15.1 8.0999 11.6 11.5999C8.10003 15.0999 5.95002 18.6249 4.32502 22.7499C2.77502 26.7499 1.70002 31.3249 1.40002 38.0499C1.10002 44.7499 1.02502 46.8999 1.02502 63.9999C1.02502 81.0999 1.10002 83.2499 1.40002 89.9749C1.70002 96.6749 2.77502 101.25 4.32502 105.275C5.92502 109.425 8.10003 112.925 11.6 116.425C15.1 119.925 18.625 122.075 22.75 123.7C26.75 125.25 31.325 126.325 38.05 126.625C44.775 126.925 46.9 127 64.025 127C81.15 127 83.275 126.925 90 126.625C96.7 126.325 101.275 125.25 105.3 123.7C109.45 122.1 112.95 119.925 116.45 116.425C119.95 112.925 122.1 109.4 123.725 105.275C125.275 101.275 126.35 96.6999 126.65 89.9749C126.95 83.2499 127.025 81.1249 127.025 63.9999C127.025 46.8749 126.95 44.7499 126.65 38.0249C126.35 31.3249 125.275 26.7499 123.725 22.7249C122.125 18.5749 119.95 15.0749 116.45 11.5749C112.95 8.0749 109.425 5.9249 105.3 4.2999C101.3 2.7499 96.725 1.6749 90 1.3749C83.25 1.0999 81.1 1.0249 64 1.0249Z" fill="#1C2331"/>
<path d="M64 31.6499C46.15 31.6499 31.65 46.1249 31.65 63.9999C31.65 81.8749 46.15 96.3499 64 96.3499C81.85 96.3499 96.35 81.8499 96.35 63.9999C96.35 46.1499 81.85 31.6499 64 31.6499ZM64 84.9999C52.4 84.9999 43 75.5999 43 63.9999C43 52.3999 52.4 42.9999 64 42.9999C75.6 42.9999 85 52.3999 85 63.9999C85 75.5999 75.6 84.9999 64 84.9999Z" fill="#1C2331"/>
<path d="M97.625 37.9249C101.795 37.9249 105.175 34.5447 105.175 30.3749C105.175 26.2052 101.795 22.825 97.625 22.825C93.4553 22.825 90.075 26.2052 90.075 30.3749C90.075 34.5447 93.4553 37.9249 97.625 37.9249Z" fill="#1C2331"/>
</svg>
