<svg width="128" height="128" viewBox="0 0 128 128" fill="none" xmlns="http://www.w3.org/2000/svg">
<path fill-rule="evenodd" clip-rule="evenodd" d="M40.256 127.998C88.5568 127.998 114.976 78.7468 114.976 36.0413C114.976 34.6393 114.976 33.2479 114.899 31.8616C120.038 27.2933 124.474 21.6213 128 15.1312C123.213 17.7461 118.125 19.461 112.922 20.2171C118.4 16.1765 122.502 9.8286 124.467 2.3382C119.309 6.10308 113.67 8.76018 107.789 10.1859C97.8432 -2.8259 81.2096 -3.45632 70.6304 8.78351C63.8144 16.6756 60.9152 28.4426 63.0336 39.6663C41.92 38.3589 22.2464 26.0877 8.9088 5.9007C1.9392 20.6688 5.504 39.5543 17.0432 49.0374C12.864 48.8877 8.7744 47.503 5.12 44.9984V45.4085C5.1264 60.7911 13.9392 74.0362 26.1888 77.0843C22.3232 78.3839 18.2656 78.5724 14.336 77.6351C17.7728 90.8044 27.6352 99.8244 38.8672 100.084C29.568 109.079 18.08 113.963 6.2528 113.948C4.1664 113.94 2.08 113.79 0 113.483C12.0128 122.966 25.984 127.999 40.256 127.975" fill="white"/>
</svg>
