<svg width="262" height="73" viewBox="0 0 262 73" fill="none" xmlns="http://www.w3.org/2000/svg">
<path d="M68.6495 54.0481C66.3883 54.0481 64.2734 53.0244 62.9925 51.3098L59.6332 46.8131C55.6759 53.3425 48.1532 57.5578 39.6643 57.5578C27.819 57.5578 18.0467 49.2318 16.8946 38.6059H19.0695C19.9192 38.6059 20.6991 38.1726 21.0947 37.4804C21.4902 36.7883 21.4365 35.9514 20.9551 35.3071L17.6193 30.8421L12.5646 24.0762C12.1379 23.5049 11.4326 23.1634 10.679 23.1634C10.5848 23.1634 10.4913 23.1687 10.399 23.1791C10.3066 23.1895 10.2157 23.2052 10.1263 23.2256C9.90288 23.2768 9.68969 23.3585 9.494 23.4675C9.22007 23.6201 8.97991 23.8261 8.79321 24.0761L0.40271 35.3069C-0.0786825 35.9513 -0.132446 36.7883 0.263111 37.4803C0.658667 38.1722 1.43862 38.6059 2.28846 38.6059H4.64971C5.19416 46.4379 8.76905 53.7322 14.8538 59.3316C21.4809 65.4301 30.2921 68.7887 39.6643 68.7887C49.0365 68.7887 57.8476 65.4301 64.4748 59.3316C66.2366 57.7104 67.7967 55.9319 69.1361 54.0309C68.9747 54.0413 68.8126 54.0481 68.6495 54.0481Z" fill="#003B72"/>
<path d="M41.4079 34.3943H37.9211C37.2601 34.3943 36.7225 33.8996 36.7225 33.2914V31.6869C36.7225 31.0788 37.2601 30.5841 37.9211 30.5841H41.4079C42.0689 30.5841 42.6065 31.0788 42.6065 31.6869C42.6065 32.8499 43.6311 33.7927 44.8948 33.7927C46.1585 33.7927 47.1831 32.8498 47.1831 31.6869C47.1831 28.9258 44.8826 26.6504 41.9525 26.3969V25.2695C41.9525 24.1065 40.9279 23.1638 39.6643 23.1638C38.4004 23.1638 37.376 24.1066 37.376 25.2695V26.3969C34.4461 26.6504 32.1454 28.9258 32.1454 31.6869V33.2914C32.1454 36.2219 34.7362 38.606 37.9208 38.606H41.4076C42.0686 38.606 42.6062 39.1007 42.6062 39.7089V41.3134C42.6062 41.9215 42.0684 42.4164 41.4076 42.4164H37.9208C37.2598 42.4164 36.7222 41.9216 36.7222 41.3135C36.7222 40.1505 35.6975 39.2078 34.4339 39.2078C33.1702 39.2078 32.1456 40.1507 32.1456 41.3135C32.1456 44.0747 34.4461 46.3501 37.3761 46.6036V47.7308C37.3761 48.8938 38.4008 49.8365 39.6644 49.8365C40.9283 49.8365 41.9527 48.8937 41.9527 47.7308V46.6034C44.8824 46.3499 47.1832 44.0745 47.1832 41.3134V39.7089C47.1831 36.7784 44.5925 34.3943 41.4079 34.3943Z" fill="#003B72"/>
<path d="M79.0653 35.5198C78.6696 34.8278 77.8898 34.3943 77.0399 34.3943H74.6787C74.1342 26.5624 70.5593 19.2681 64.4746 13.6686C57.8476 7.57024 49.0363 4.21167 39.6643 4.21167C30.2922 4.21167 21.4808 7.57024 14.8538 13.6687C13.092 15.29 11.5319 17.0685 10.1924 18.9695C10.3537 18.959 10.5158 18.9521 10.6789 18.9521C12.9403 18.9521 15.055 19.9758 16.3359 21.6905L19.6952 26.1871C23.6525 19.6577 31.1752 15.4425 39.6641 15.4425C51.5094 15.4425 61.2817 23.7685 62.4338 34.3945H60.2589C59.4092 34.3945 58.6293 34.8278 58.2337 35.52C57.8382 36.212 57.8919 37.049 58.3733 37.6933L61.7091 42.1583L66.7638 48.9242C66.8706 49.067 66.9947 49.1955 67.1326 49.3078C67.5463 49.6449 68.0844 49.8369 68.6496 49.8369C69.403 49.8369 70.1085 49.4955 70.5353 48.9242L73.565 44.8688L78.9257 37.6934C79.4072 37.0487 79.4608 36.2118 79.0653 35.5198Z" fill="#003B72"/>
<path d="M80.7843 59.552C79.6564 59.552 78.7019 59.2669 77.9211 58.6965C77.1526 58.1148 76.5886 57.3392 76.2291 56.3697L78.5346 55.3773L78.7577 55.7195C79.1172 56.2898 79.458 56.7347 79.7803 57.054C80.115 57.3734 80.5302 57.5331 81.026 57.5331C81.3483 57.5331 81.6334 57.3905 81.8813 57.1054C82.1416 56.8202 82.2717 56.5065 82.2717 56.1644C82.2717 55.845 82.1849 55.5541 82.0114 55.2918C81.8379 55.0294 81.6148 54.8184 81.3421 54.6587L78.9065 53.3242C78.1999 52.9592 77.636 52.4972 77.2145 51.9383C76.7931 51.3794 76.5824 50.7521 76.5824 50.0563C76.5824 49.3149 76.7683 48.6533 77.1402 48.0716C77.5244 47.4899 78.0388 47.0394 78.6833 46.72C79.3403 46.4006 80.0778 46.2409 80.8959 46.2409C81.8503 46.2409 82.6622 46.4576 83.3315 46.8911C84.0008 47.3245 84.4966 47.969 84.8189 48.8244L82.5134 49.7826C82.4638 49.6913 82.3585 49.486 82.1973 49.1666C82.0362 48.8472 81.8379 48.6191 81.6024 48.4823C81.3793 48.334 81.1004 48.2598 80.7657 48.2598C80.3567 48.2598 80.0406 48.3796 79.8175 48.6191C79.6068 48.8587 79.5014 49.1666 79.5014 49.543C79.5014 49.8168 79.582 50.0677 79.7431 50.2958C79.9166 50.5126 80.1212 50.6837 80.3567 50.8091L82.6064 52.0239C84.2673 52.8908 85.1412 54.0314 85.2279 55.4458C85.2279 56.2556 85.0296 56.9742 84.633 57.6015C84.2487 58.2175 83.7157 58.6965 83.034 59.0387C82.3647 59.3809 81.6148 59.552 80.7843 59.552ZM87.0167 59.4151V46.6858L89.7498 46.4805V59.2098L87.0167 59.4151ZM96.0361 59.552C94.9081 59.552 93.9537 59.2669 93.1728 58.6965C92.4043 58.1148 91.8404 57.3392 91.4809 56.3697L93.7864 55.3773L94.0095 55.7195C94.369 56.2898 94.7098 56.7347 95.0321 57.054C95.3668 57.3734 95.782 57.5331 96.2778 57.5331C96.6001 57.5331 96.8851 57.3905 97.133 57.1054C97.3933 56.8202 97.5235 56.5065 97.5235 56.1644C97.5235 55.845 97.4367 55.5541 97.2632 55.2918C97.0897 55.0294 96.8666 54.8184 96.5939 54.6587L94.1582 53.3242C93.4517 52.9592 92.8878 52.4972 92.4663 51.9383C92.0449 51.3794 91.8342 50.7521 91.8342 50.0563C91.8342 49.3149 92.0201 48.6533 92.3919 48.0716C92.7762 47.4899 93.2906 47.0394 93.9351 46.72C94.5921 46.4006 95.3296 46.2409 96.1476 46.2409C97.1021 46.2409 97.9139 46.4576 98.5833 46.8911C99.2526 47.3245 99.7484 47.969 100.071 48.8244L97.7652 49.7826C97.7156 49.6913 97.6103 49.486 97.4491 49.1666C97.288 48.8472 97.0897 48.6191 96.8542 48.4823C96.6311 48.334 96.3522 48.2598 96.0175 48.2598C95.6085 48.2598 95.2924 48.3796 95.0693 48.6191C94.8586 48.8587 94.7532 49.1666 94.7532 49.543C94.7532 49.8168 94.8338 50.0677 94.9949 50.2958C95.1684 50.5126 95.3729 50.6837 95.6085 50.8091L97.8582 52.0239C99.5191 52.8908 100.393 54.0314 100.48 55.4458C100.48 56.2556 100.281 56.9742 99.8847 57.6015C99.5005 58.2175 98.9675 58.6965 98.2858 59.0387C97.6165 59.3809 96.8666 59.552 96.0361 59.552ZM104.072 59.4151V48.4823H101.227L101.432 46.4805H109.612L109.389 48.4823H106.786V59.2098L104.072 59.4151ZM111.129 59.3125V46.4805H118.213L117.99 48.4823H113.862V51.5448H116.8L116.781 53.7006H113.862V57.3107H118.361L118.138 59.3125H111.129ZM129.45 59.4151V49.7826L126.847 59.3125H125.174L122.366 49.7483V59.2098L120.116 59.3125V46.6002L124.114 46.4976L126.419 54.4363L128.632 46.7884L132.276 46.5831V59.2098L129.45 59.4151ZM133.8 59.3125L136.737 46.6344L140.623 46.4805L143.635 59.2098L140.66 59.3125L140.158 56.5579H136.83L136.235 59.3125H133.8ZM137.332 54.5047H139.656L138.373 48.3625L137.332 54.5047ZM149.676 46.4805H152.539C154.373 46.4805 155.744 47.0165 156.648 48.0887C157.553 49.1609 158.006 50.7806 158.006 52.9478C158.006 54.0998 157.832 55.1549 157.485 56.113C157.15 57.0712 156.611 57.8468 155.868 58.4399C155.124 59.0216 154.175 59.3125 153.022 59.3125H149.676V46.4805ZM152.781 57.3107C153.723 57.3107 154.373 56.94 154.733 56.1986C155.105 55.4458 155.291 54.5219 155.291 53.4269V52.8451C155.291 52.0581 155.235 51.3623 155.124 50.7578C155.025 50.1419 154.783 49.6115 154.398 49.1666C154.026 48.7104 153.462 48.4823 152.706 48.4823H152.39V57.3107H152.781ZM159.97 59.3125V46.4805H167.054L166.831 48.4823H162.703V51.5448H165.641L165.622 53.7006H162.703V57.3107H167.203L166.98 59.3125H159.97ZM177.291 59.552C175.692 59.552 174.564 58.8848 173.907 57.5502C173.262 56.2157 172.94 54.5732 172.94 52.6227C172.94 51.5733 173.089 50.5639 173.386 49.5944C173.684 48.6248 174.161 47.8264 174.818 47.199C175.487 46.5603 176.33 46.2409 177.347 46.2409C178.127 46.2409 178.809 46.4633 179.392 46.9082C179.987 47.353 180.439 47.9347 180.749 48.6533C181.071 49.3605 181.232 50.1019 181.232 50.8776L178.592 50.9973C178.592 50.484 178.499 49.9023 178.313 49.2522C178.127 48.5906 177.756 48.2598 177.198 48.2598C176.615 48.2598 176.212 48.6876 175.989 49.543C175.766 50.3985 175.655 51.4251 175.655 52.6227C175.655 54.1055 175.779 55.2975 176.027 56.1986C176.274 57.0883 176.752 57.5331 177.458 57.5331C177.954 57.5331 178.307 57.2651 178.518 56.729C178.729 56.1815 178.865 55.5199 178.927 54.7443L181.251 54.9496C181.251 55.7708 181.102 56.5351 180.805 57.2422C180.507 57.938 180.061 58.4969 179.466 58.919C178.871 59.341 178.146 59.552 177.291 59.552ZM186.967 59.552C185.393 59.552 184.283 58.9304 183.639 57.6871C183.006 56.4324 182.69 54.8127 182.69 52.828C182.69 50.7179 183.031 49.0925 183.713 47.9519C184.395 46.8112 185.492 46.2409 187.004 46.2409C189.892 46.2409 191.336 48.4138 191.336 52.7596C191.336 54.7101 191.007 56.3297 190.351 57.6187C189.706 58.9076 188.578 59.552 186.967 59.552ZM187.004 57.5331C187.661 57.5331 188.095 57.1396 188.305 56.3526C188.516 55.5541 188.621 54.3508 188.621 52.7425C188.621 51.4536 188.516 50.3871 188.305 49.543C188.107 48.6876 187.673 48.2598 187.004 48.2598C186.335 48.2598 185.901 48.6819 185.702 49.5259C185.504 50.37 185.405 51.4365 185.405 52.7254C185.405 54.3451 185.504 55.5541 185.702 56.3526C185.913 57.1396 186.347 57.5331 187.004 57.5331ZM195.219 59.4151V48.4823H192.374L192.579 46.4805H200.759L200.536 48.4823H197.933V59.2098L195.219 59.4151ZM202.276 59.4151V46.6858L205.009 46.4805V59.2098L202.276 59.4151ZM206.87 59.3125V57.7213L211.351 48.4823H207.298L207.521 46.4805H214.512V48.1401L210.142 57.3107H214.642L214.214 59.3125H206.87ZM215.305 59.3125L218.242 46.6344L222.128 46.4805L225.14 59.2098L222.165 59.3125L221.663 56.5579H218.335L217.74 59.3125H215.305ZM218.837 54.5047H221.161L219.879 48.3625L218.837 54.5047ZM230.435 59.552C228.836 59.552 227.708 58.8848 227.051 57.5502C226.406 56.2157 226.084 54.5732 226.084 52.6227C226.084 51.5733 226.233 50.5639 226.53 49.5944C226.828 48.6248 227.305 47.8264 227.962 47.199C228.631 46.5603 229.474 46.2409 230.49 46.2409C231.271 46.2409 231.953 46.4633 232.535 46.9082C233.13 47.353 233.583 47.9347 233.893 48.6533C234.215 49.3605 234.376 50.1019 234.376 50.8776L231.736 50.9973C231.736 50.484 231.643 49.9023 231.457 49.2522C231.271 48.5906 230.899 48.2598 230.342 48.2598C229.759 48.2598 229.356 48.6876 229.133 49.543C228.91 50.3985 228.798 51.4251 228.798 52.6227C228.798 54.1055 228.922 55.2975 229.17 56.1986C229.418 57.0883 229.895 57.5331 230.602 57.5331C231.098 57.5331 231.451 57.2651 231.662 56.729C231.872 56.1815 232.009 55.5199 232.071 54.7443L234.395 54.9496C234.395 55.7708 234.246 56.5351 233.949 57.2422C233.651 57.938 233.205 58.4969 232.61 58.919C232.015 59.341 231.29 59.552 230.435 59.552ZM236.356 59.4151V46.6858L239.089 46.4805V59.2098L236.356 59.4151ZM245.45 59.552C243.875 59.552 242.766 58.9304 242.121 57.6871C241.489 56.4324 241.173 54.8127 241.173 52.828C241.173 50.7179 241.514 49.0925 242.196 47.9519C242.878 46.8112 243.975 46.2409 245.487 46.2409C248.375 46.2409 249.819 48.4138 249.819 52.7596C249.819 54.7101 249.49 56.3297 248.833 57.6187C248.189 58.9076 247.061 59.552 245.45 59.552ZM245.487 57.5331C246.144 57.5331 246.578 57.1396 246.788 56.3526C246.999 55.5541 247.104 54.3508 247.104 52.7425C247.104 51.4536 246.999 50.3871 246.788 49.543C246.59 48.6876 246.156 48.2598 245.487 48.2598C244.817 48.2598 244.384 48.6819 244.185 49.5259C243.987 50.37 243.888 51.4365 243.888 52.7254C243.888 54.3451 243.987 55.5541 244.185 56.3526C244.396 57.1396 244.83 57.5331 245.487 57.5331ZM245.803 45.7448L244.836 44.8893L247.253 41.5187L249.168 43.1441L245.803 45.7448ZM258.405 59.4151L254.334 51.3908V59.2098L251.898 59.3125V46.5831L254.743 46.4805L258.35 54.1112V46.6858L260.655 46.4805V59.2098L258.405 59.4151Z" fill="#DD3333"/>
<path d="M104.972 24.4379C104.972 26.8332 104.683 28.9623 104.105 30.8254C103.526 32.6884 102.535 34.0381 101.13 34.8746L103.95 38.7242L101.161 40.4066L97.5664 35.7586C92.8977 35.6826 90.5632 31.947 90.5632 24.5519C90.5632 21.035 91.1314 18.326 92.2675 16.425C93.4039 14.524 95.2321 13.5734 97.7524 13.5734C102.566 13.5734 104.972 17.1949 104.972 24.4379ZM95.0874 24.3808C95.0874 27.0803 95.2527 29.0955 95.5832 30.4262C95.9345 31.7379 96.6576 32.3937 97.7524 32.3937C98.8473 32.3937 99.5704 31.7379 99.9215 30.4262C100.273 29.0955 100.448 27.0898 100.448 24.4094C100.448 22.2611 100.273 20.4838 99.9215 19.0769C99.591 17.6512 98.8679 16.9383 97.7524 16.9383C96.6368 16.9383 95.9139 17.6416 95.5832 19.0484C95.2527 20.4552 95.0874 22.2326 95.0874 24.3808ZM115.193 35.7586C112.879 35.7586 111.144 35.0742 109.987 33.7055C108.83 32.3367 108.252 30.5402 108.252 28.316V14.1437L112.807 13.9726V28.6582C112.807 29.3996 112.848 30.0269 112.931 30.5402C113.034 31.0535 113.272 31.4908 113.644 31.8519C114.016 32.2131 114.584 32.3937 115.348 32.3937C116.071 32.3937 116.598 32.2131 116.928 31.8519C117.28 31.4717 117.497 31.0345 117.579 30.5402C117.662 30.0269 117.703 29.3806 117.703 28.6012V14.3148L121.855 13.9726V27.8312C121.855 29.8463 121.422 31.6713 120.554 33.3062C119.707 34.9412 117.92 35.7586 115.193 35.7586ZM132.309 35.7586C129.686 35.7586 127.837 34.7225 126.763 32.6504C125.709 30.5592 125.182 27.8598 125.182 24.5519C125.182 21.035 125.75 18.326 126.887 16.425C128.023 14.524 129.851 13.5734 132.371 13.5734C137.185 13.5734 139.591 17.1949 139.591 24.4379C139.591 27.6887 139.044 30.3881 137.949 32.5363C136.875 34.6845 134.995 35.7586 132.309 35.7586ZM132.371 32.3937C133.466 32.3937 134.189 31.7379 134.54 30.4262C134.892 29.0955 135.067 27.0898 135.067 24.4094C135.067 22.2611 134.892 20.4838 134.54 19.0769C134.21 17.6512 133.487 16.9383 132.371 16.9383C131.256 16.9383 130.533 17.6416 130.202 19.0484C129.872 20.4552 129.706 22.2326 129.706 24.3808C129.706 27.0803 129.872 29.0955 130.202 30.4262C130.553 31.7379 131.276 32.3937 132.371 32.3937ZM146.062 35.5305V17.309H141.321L141.662 13.9726H155.297L154.925 17.309H150.587V35.1883L146.062 35.5305ZM157.391 28.6867V25.3504H166.098V28.6867H157.391ZM176.744 35.7586C174.431 35.7586 172.695 35.0742 171.538 33.7055C170.382 32.3367 169.803 30.5402 169.803 28.316V14.1437L174.358 13.9726V28.6582C174.358 29.3996 174.4 30.0269 174.482 30.5402C174.586 31.0535 174.823 31.4908 175.194 31.8519C175.566 32.2131 176.135 32.3937 176.899 32.3937C177.622 32.3937 178.149 32.2131 178.479 31.8519C178.831 31.4717 179.048 31.0345 179.13 30.5402C179.214 30.0269 179.254 29.3806 179.254 28.6012V14.3148L183.406 13.9726V27.8312C183.406 29.8463 182.972 31.6713 182.105 33.3062C181.259 34.9412 179.471 35.7586 176.744 35.7586ZM203.158 35.5305V19.4762L198.819 35.3594H196.031L191.351 19.4191V35.1883L187.602 35.3594V14.1723L194.264 14.0012L198.107 27.2324L201.794 14.4859L207.868 14.1437V35.1883L203.158 35.5305ZM218.34 35.7586C216.459 35.7586 214.869 35.2834 213.568 34.3328C212.287 33.3633 211.346 32.0705 210.748 30.4547L214.591 28.8008L214.962 29.3711C215.56 30.3216 216.129 31.0631 216.667 31.5953C217.224 32.1275 217.916 32.3937 218.743 32.3937C219.279 32.3937 219.755 32.1561 220.168 31.6808C220.602 31.2056 220.819 30.6828 220.819 30.1125C220.819 29.5802 220.673 29.0955 220.385 28.6582C220.095 28.2209 219.724 27.8693 219.27 27.6031L215.21 25.3789C214.033 24.7705 213.092 24.0006 212.39 23.0691C211.687 22.1377 211.337 21.092 211.337 19.9324C211.337 18.6967 211.647 17.5941 212.266 16.6246C212.906 15.6551 213.763 14.9041 214.838 14.3719C215.932 13.8396 217.162 13.5734 218.526 13.5734C220.116 13.5734 221.47 13.9346 222.585 14.657C223.701 15.3795 224.527 16.4535 225.064 17.8793L221.222 19.4762C221.138 19.324 220.963 18.9818 220.695 18.4496C220.425 17.9174 220.095 17.5371 219.703 17.309C219.332 17.0619 218.867 16.9383 218.309 16.9383C217.627 16.9383 217.101 17.1379 216.729 17.5371C216.377 17.9363 216.202 18.4496 216.202 19.0769C216.202 19.5332 216.335 19.9514 216.605 20.3316C216.893 20.6928 217.234 20.9779 217.627 21.1871L221.377 23.2117C224.144 24.6565 225.6 26.5576 225.746 28.9148C225.746 30.2646 225.414 31.4623 224.754 32.5078C224.113 33.5344 223.225 34.3328 222.09 34.9031C220.974 35.4734 219.724 35.7586 218.34 35.7586ZM234.863 35.7586C232.982 35.7586 231.392 35.2834 230.091 34.3328C228.809 33.3633 227.869 32.0705 227.271 30.4547L231.113 28.8008L231.485 29.3711C232.083 30.3216 232.652 31.0631 233.189 31.5953C233.747 32.1275 234.438 32.3937 235.265 32.3937C235.802 32.3937 236.277 32.1561 236.691 31.6808C237.125 31.2056 237.342 30.6828 237.342 30.1125C237.342 29.5802 237.196 29.0955 236.908 28.6582C236.618 28.2209 236.246 27.8693 235.792 27.6031L231.733 25.3789C230.555 24.7705 229.615 24.0006 228.913 23.0691C228.21 22.1377 227.859 21.092 227.859 19.9324C227.859 18.6967 228.169 17.5941 228.789 16.6246C229.429 15.6551 230.286 14.9041 231.361 14.3719C232.455 13.8396 233.685 13.5734 235.049 13.5734C236.638 13.5734 237.992 13.9346 239.108 14.657C240.223 15.3795 241.049 16.4535 241.587 17.8793L237.744 19.4762C237.661 19.324 237.486 18.9818 237.218 18.4496C236.948 17.9174 236.618 17.5371 236.226 17.309C235.854 17.0619 235.389 16.9383 234.832 16.9383C234.15 16.9383 233.623 17.1379 233.251 17.5371C232.9 17.9363 232.724 18.4496 232.724 19.0769C232.724 19.5332 232.858 19.9514 233.127 20.3316C233.415 20.6928 233.756 20.9779 234.15 21.1871L237.899 23.2117C240.667 24.6565 242.123 26.5576 242.269 28.9148C242.269 30.2646 241.937 31.4623 241.277 32.5078C240.636 33.5344 239.748 34.3328 238.612 34.9031C237.497 35.4734 236.246 35.7586 234.863 35.7586Z" fill="#003B72"/>
</svg>
