<svg width="67" height="40" viewBox="0 0 67 40" fill="none" xmlns="http://www.w3.org/2000/svg">
<g clip-path="url(#clip0)">
<path d="M61.4108 0H5.58924C2.50239 0 0 2.12475 0 4.74576V4.7458C0 7.36681 2.50239 9.49156 5.58924 9.49156H61.4108C64.4976 9.49156 67 7.36681 67 4.74576C67 2.12475 64.4976 0 61.4108 0Z" fill="#1C2331"/>
<path d="M61.4108 15.2543H5.58924C2.50239 15.2543 0 17.379 0 20V20.0001C0 22.6211 2.50239 24.7458 5.58924 24.7458H61.4108C64.4976 24.7458 67 22.6211 67 20C67 17.379 64.4976 15.2543 61.4108 15.2543Z" fill="#1C2331"/>
<path d="M61.4108 30.5084H5.58924C2.50239 30.5084 0 32.6332 0 35.2542V35.2542C0 37.8752 2.50239 40 5.58924 40H61.4108C64.4976 40 67 37.8752 67 35.2542C67 32.6332 64.4976 30.5084 61.4108 30.5084Z" fill="#1C2331"/>
</g>
<defs>
<clipPath id="clip0">
<rect width="67" height="40" fill="white"/>
</clipPath>
</defs>
</svg>
