<svg xmlns="http://www.w3.org/2000/svg" viewBox="0 0 54.31 89.87"><defs><style>.cls-1{fill:#010000;}</style></defs><title>Asset 10</title><g id="Layer_2" data-name="Layer 2"><g id="Layer_1-2" data-name="Layer 1"><path class="cls-1" d="M51.47,50.45a20.73,20.73,0,0,0-8.79-7q-4.09-1.86-15.11-4.35C20.23,37.47,15.71,35.85,14,34.27a7.78,7.78,0,0,1-2.65-6.05A9,9,0,0,1,15.06,21Q18.8,18,27,18q7.86,0,11.9,3.3t4.72,9.77l8.65-.65a20.65,20.65,0,0,0-3.35-10.75A19.41,19.41,0,0,0,40,12.47a31.23,31.23,0,0,0-5.51-1.62V0H19.83V10.67a29.19,29.19,0,0,0-5.73,1.69,18.15,18.15,0,0,0-8.56,6.82A17.36,17.36,0,0,0,2.6,28.82,15.43,15.43,0,0,0,5,37.31a18.3,18.3,0,0,0,7.27,6.36c2.53,1.34,6.91,2.75,13.18,4.25A121.62,121.62,0,0,1,37.6,51.26a13.61,13.61,0,0,1,6.14,4,8.82,8.82,0,0,1,1.86,5.61,9.74,9.74,0,0,1-1.93,5.84,12.59,12.59,0,0,1-5.89,4.21,25.11,25.11,0,0,1-9.12,1.54,25.84,25.84,0,0,1-10.47-2,15.38,15.38,0,0,1-6.86-5.3,19,19,0,0,1-2.81-8.4L0,57.49A23,23,0,0,0,3.75,69.76a21.76,21.76,0,0,0,9.82,8.12,31.49,31.49,0,0,0,6.26,1.81V89.87H34.49V80.06a30,30,0,0,0,7.75-2.16,20.58,20.58,0,0,0,8.95-7.49,18.65,18.65,0,0,0,3.12-10.27A16.93,16.93,0,0,0,51.47,50.45Z"/></g></g></svg>