<?xml version="1.0" encoding="utf-8"?>
<!-- Generator: Adobe Illustrator 16.0.0, SVG Export Plug-In . SVG Version: 6.00 Build 0)  -->
<!DOCTYPE svg PUBLIC "-//W3C//DTD SVG 1.0//EN" "http://www.w3.org/TR/2001/REC-SVG-20010904/DTD/svg10.dtd">
<svg version="1.0" id="Layer_1" xmlns="http://www.w3.org/2000/svg" xmlns:xlink="http://www.w3.org/1999/xlink" x="0px" y="0px"
	 width="100px" height="100px" viewBox="0 0 100 100" enable-background="new 0 0 100 100" xml:space="preserve">
<rect x="56.667" y="30" width="13.333" height="6.667"/>
<rect x="56.667" y="43.333" width="20" height="6.667"/>
<rect x="56.667" y="56.667" width="20" height="6.666"/>
<polygon points="85.286,68.62 73.333,80.566 68.047,75.286 63.333,80 73.333,90 90,73.333 "/>
<path d="M40,50h-6.667C31.491,50,30,48.509,30,46.667h-0.006H30c0-1.842,1.491-3.333,3.333-3.333V43.33v0.003H40
	c1.842,0,3.333,1.491,3.333,3.333H50c0-5.521-4.479-10-10-10V30h-6.667v6.667l0,0c-5.521,0-10,4.479-10,10l0,0
	c0,5.521,4.479,10,10,10H40c1.842,0,3.333,1.49,3.333,3.333h-0.007c0,1.843-1.491,3.333-3.333,3.333h-6.66
	C31.491,63.333,30,61.843,30,60h-6.667c0,5.521,4.479,10,10,10v6.667H40V70c5.521-0.007,9.993-4.479,9.993-10H50
	C50,54.479,45.521,50,40,50z"/>
<polygon points="50,10 50,16.667 43.333,16.667 43.333,10 36.667,10 36.667,16.667 30,16.667 30,10 23.333,10 23.333,16.667 
	16.667,16.667 16.667,10 10,10 10,90 56.667,90 56.667,83.333 16.667,83.333 16.667,23.333 83.333,23.333 83.333,63.333 90,63.333 
	90,10 "/>
</svg>
